<svg width="24" height="24" viewBox="0 0 24 24" fill="none" xmlns="http://www.w3.org/2000/svg">
<path d="M19.1 10.5H10.4C9.572 10.5 9.5 11.1705 9.5 12C9.5 12.8295 9.572 13.5 10.4 13.5H19.1C19.928 13.5 20 12.8295 20 12C20 11.1705 19.928 10.5 19.1 10.5ZM22.1 18H10.4C9.572 18 9.5 18.6705 9.5 19.5C9.5 20.3295 9.572 21 10.4 21H22.1C22.928 21 23 20.3295 23 19.5C23 18.6705 22.928 18 22.1 18ZM10.4 6H22.1C22.928 6 23 5.3295 23 4.5C23 3.6705 22.928 3 22.1 3H10.4C9.572 3 9.5 3.6705 9.5 4.5C9.5 5.3295 9.572 6 10.4 6ZM5.6 10.5H2.9C2.072 10.5 2 11.1705 2 12C2 12.8295 2.072 13.5 2.9 13.5H5.6C6.428 13.5 6.5 12.8295 6.5 12C6.5 11.1705 6.428 10.5 5.6 10.5ZM5.6 18H2.9C2.072 18 2 18.6705 2 19.5C2 20.3295 2.072 21 2.9 21H5.6C6.428 21 6.5 20.3295 6.5 19.5C6.5 18.6705 6.428 18 5.6 18ZM5.6 3H2.9C2.072 3 2 3.6705 2 4.5C2 5.3295 2.072 6 2.9 6H5.6C6.428 6 6.5 5.3295 6.5 4.5C6.5 3.6705 6.428 3 5.6 3Z" fill="#A2A2A2"/>
</svg>
