<svg width="48" height="48" viewBox="0 0 48 48" fill="none" xmlns="http://www.w3.org/2000/svg">
<circle cx="24" cy="24" r="24" fill="url(#paint0_linear_4_2583)"/>
<path d="M23.9873 10.666C15.6908 10.666 9 16.0186 9 22.5167C9 26.7345 11.7834 30.4278 15.9584 32.5367L14.5453 37.8145C14.5187 37.8936 14.5146 37.9785 14.5335 38.0598C14.5524 38.1411 14.5935 38.2155 14.6524 38.2747C14.7381 38.3504 14.8485 38.3922 14.9628 38.3925C15.0576 38.3849 15.1476 38.3474 15.2197 38.2854L21.3003 34.1854C22.1979 34.3093 23.1027 34.3736 24.0087 34.378C32.2946 34.378 38.9961 29.0254 38.9961 22.5167C38.9961 16.0079 32.2732 10.666 23.9873 10.666Z" fill="#362121"/>
<path d="M14.2451 20.6432H12.6072C12.4042 20.6491 12.2037 20.5971 12.0291 20.4933C11.9516 20.4448 11.885 20.3807 11.8334 20.3051C11.7818 20.2296 11.7464 20.1442 11.7294 20.0544C11.7242 19.9974 11.7242 19.9402 11.7294 19.8832C11.7243 19.7766 11.745 19.6702 11.7897 19.5733C11.8344 19.4764 11.9019 19.3918 11.9863 19.3265C12.1729 19.1913 12.3982 19.1199 12.6286 19.123H17.5637C17.7683 19.1158 17.9702 19.1719 18.1418 19.2836C18.2211 19.33 18.2892 19.3935 18.341 19.4694C18.3928 19.5454 18.4272 19.6318 18.4415 19.7226C18.4468 19.776 18.4468 19.8298 18.4415 19.8832C18.4466 19.9913 18.4259 20.0991 18.3813 20.1977C18.3366 20.2963 18.2692 20.3829 18.1846 20.4505C18.0025 20.5855 17.7794 20.6536 17.553 20.6432H15.9686V26.2742C15.9751 26.3941 15.9565 26.5141 15.9141 26.6265C15.8717 26.7389 15.8065 26.8413 15.7224 26.9272C15.6418 27.0093 15.545 27.0736 15.438 27.116C15.3311 27.1584 15.2165 27.1779 15.1015 27.1734C14.9005 27.1791 14.7037 27.1149 14.5448 26.9915C14.3936 26.8709 14.291 26.6998 14.2558 26.5097C14.2452 26.4315 14.2452 26.3523 14.2558 26.2742L14.2451 20.6432Z" fill="#FAE44D"/>
<path d="M18.9141 19.5405C18.9612 19.3644 19.0717 19.2118 19.2245 19.1123C19.3873 19.02 19.5728 18.9755 19.7598 18.9838H20.1666C20.365 18.9767 20.5614 19.0249 20.734 19.123C20.9168 19.246 21.0468 19.4332 21.0979 19.6476L23.239 25.6961C23.2945 25.8539 23.341 26.0148 23.3782 26.1779C23.3818 26.2456 23.3818 26.3135 23.3782 26.3812C23.3818 26.4855 23.3626 26.5894 23.3219 26.6856C23.2812 26.7817 23.22 26.8678 23.1426 26.9379C23.0676 27.0148 22.9776 27.0754 22.8781 27.1159C22.7787 27.1564 22.6719 27.176 22.5646 27.1734C22.3994 27.1898 22.2336 27.1502 22.0938 27.0609C21.954 26.9715 21.8483 26.8377 21.7938 26.681L21.3442 25.3643H18.5287L18.0791 26.681C18.0259 26.8408 17.9189 26.9772 17.7764 27.067C17.6339 27.1568 17.4647 27.1944 17.2976 27.1734C17.1166 27.1781 16.9392 27.1215 16.7944 27.0128C16.6534 26.9006 16.5582 26.7407 16.5268 26.5632C16.5211 26.5027 16.5211 26.4417 16.5268 26.3812C16.5084 26.2749 16.5084 26.1664 16.5268 26.0601C16.5268 25.9424 16.6017 25.8138 16.6446 25.6961L18.9141 19.5405ZM19.9846 20.943L18.9676 24.1546H20.9909L19.9846 20.943Z" fill="#FAE44D"/>
<path d="M23.6233 19.8833C23.6125 19.6431 23.6971 19.4083 23.8588 19.2303C23.941 19.1474 24.0397 19.0826 24.1485 19.0402C24.2573 18.9977 24.3738 18.9786 24.4904 18.984C24.691 18.9816 24.8867 19.0456 25.0471 19.166C25.1958 19.2916 25.2946 19.4662 25.3255 19.6584C25.336 19.733 25.336 19.8087 25.3255 19.8833V25.5143H28.2694C28.4735 25.5116 28.674 25.5672 28.8475 25.6747C28.9254 25.7228 28.9924 25.7868 29.044 25.8624C29.0957 25.938 29.1308 26.0236 29.1472 26.1137C29.1472 26.1137 29.1472 26.2208 29.1472 26.2743C29.1523 26.3809 29.1316 26.4871 29.0869 26.584C29.0422 26.6809 28.9747 26.7657 28.8903 26.831C28.7037 26.9662 28.4784 27.0374 28.248 27.0343H24.6296C24.3992 27.0492 24.1701 26.9892 23.9766 26.8631C23.8035 26.7337 23.6882 26.5415 23.6554 26.3279C23.6476 26.2102 23.6476 26.0921 23.6554 25.9745L23.6233 19.8833Z" fill="#FAE44D"/>
<path d="M29.3401 19.8834C29.3337 19.6438 29.4178 19.4107 29.5756 19.2303C29.7361 19.0846 29.9419 18.9985 30.1584 18.9868C30.3748 18.9751 30.5887 19.0384 30.7639 19.1661C30.9159 19.2905 31.0184 19.4651 31.053 19.6585C31.0582 19.7333 31.0582 19.8085 31.053 19.8834V22.5061L33.7614 19.3801C33.8657 19.2735 33.9766 19.1735 34.0932 19.0805C34.2032 19.015 34.3293 18.9815 34.4572 18.984C34.6443 18.983 34.8273 19.039 34.9818 19.1446C35.0546 19.1936 35.1167 19.2569 35.1645 19.3304C35.2124 19.404 35.2449 19.4864 35.2601 19.5729C35.2644 19.5941 35.2644 19.616 35.2601 19.6372C35.2549 19.6619 35.2549 19.6873 35.2601 19.712C35.2597 19.8247 35.2302 19.9354 35.1745 20.0332C35.1177 20.1369 35.0494 20.2337 34.9711 20.3222L33.194 22.2706L35.3351 25.5892V25.6962C35.4462 25.8496 35.5329 26.0195 35.592 26.1995V26.2529C35.6044 26.3769 35.5865 26.5022 35.5399 26.6178C35.4933 26.7334 35.4193 26.8359 35.3243 26.9166C35.1458 27.0516 34.9273 27.1233 34.7034 27.1201C34.5547 27.1262 34.407 27.0929 34.2752 27.0237C34.1327 26.928 34.0152 26.7996 33.9327 26.649L31.9415 23.4374L30.9887 24.4331V26.2208C30.9951 26.4603 30.911 26.6935 30.7532 26.8738C30.6686 26.9565 30.568 27.021 30.4575 27.0634C30.3471 27.1057 30.2291 27.125 30.1109 27.1201C29.9134 27.1242 29.7205 27.0599 29.5649 26.9381C29.4137 26.8175 29.3111 26.6465 29.2759 26.4564C29.2653 26.3782 29.2653 26.2989 29.2759 26.2208L29.3401 19.8834Z" fill="#FAE44D"/>
<defs>
<linearGradient id="paint0_linear_4_2583" x1="24" y1="0" x2="24" y2="48" gradientUnits="userSpaceOnUse">
<stop stop-color="#FAE44D"/>
<stop offset="1" stop-color="#FED33B"/>
</linearGradient>
</defs>
</svg>
