<svg width="48" height="48" viewBox="0 0 48 48" fill="none" xmlns="http://www.w3.org/2000/svg">
<circle cx="24" cy="24" r="24" fill="url(#paint0_linear_4_2590)"/>
<path d="M23.701 38.6668C23.1699 38.5508 22.6595 38.3911 22.2491 38.0209C21.4609 37.3104 21.1601 36.4439 21.4446 35.4356C21.7416 34.3828 22.4772 33.7397 23.5959 33.5736C24.8308 33.3903 25.8723 33.9553 26.4072 35.0553C26.4783 35.2021 26.5598 35.2429 26.7176 35.2415C27.5747 35.2343 28.4325 35.2465 29.2897 35.2358C30.5016 35.2207 31.5669 34.4588 31.8217 33.4118C31.2958 33.5621 30.7839 33.545 30.2771 33.3896C29.1934 33.058 28.4503 32.1119 28.4407 30.9532C28.4214 28.6308 28.4066 26.3076 28.4437 23.9851C28.4763 21.9334 30.6646 20.7646 32.4847 21.8066C33.33 22.2907 33.7471 23.0563 33.7515 23.9959C33.7648 26.9278 33.7811 29.8597 33.7456 32.7916C33.7182 35.0517 31.7906 36.8886 29.4512 36.9452C28.5452 36.9674 27.6377 36.9466 26.7317 36.9588C26.6294 36.9603 26.4739 37.0254 26.4368 37.1028C26.0361 37.9285 25.3864 38.4384 24.4611 38.6224C24.4233 38.6296 24.3893 38.6518 24.353 38.6668H23.701Z" fill="white"/>
<path d="M10.6666 22.2291C10.84 17.7117 12.7312 14.0472 16.6664 11.5808C21.286 8.68538 26.1412 8.58226 30.8713 11.3036C35.0909 13.7313 37.1273 17.5019 37.3333 22.2836C37.0822 22.1403 36.8962 22.0214 36.6992 21.9255C36.471 21.8152 36.2384 21.6612 35.9969 21.639C35.4887 21.5932 35.4554 21.2795 35.4102 20.9021C35.1242 18.551 34.1301 16.5064 32.4877 14.7597C31.0943 13.2773 29.3986 12.2332 27.4177 11.6373C25.7271 11.1289 24.0011 10.9985 22.2498 11.2678C19.1429 11.7455 16.6456 13.22 14.7588 15.6341C13.538 17.1968 12.7972 18.9671 12.5846 20.9236C12.5431 21.306 12.4638 21.5402 12.0082 21.6448C11.56 21.7472 11.1511 22.01 10.6681 22.2284L10.6666 22.2291Z" fill="white"/>
<path d="M19.56 27.4957C19.56 28.6186 19.5651 29.7422 19.5585 30.8651C19.5511 32.0332 18.8436 33.03 17.8028 33.3602C16.0145 33.9267 14.2766 32.7858 14.2477 30.9675C14.2099 28.6358 14.2062 26.3026 14.2477 23.9715C14.284 21.9341 16.4597 20.7739 18.2747 21.8009C19.1547 22.2986 19.5503 23.095 19.5577 24.0682C19.5666 25.2105 19.56 26.3527 19.56 27.495V27.4957Z" fill="white"/>
<path d="M12.4905 31.6264C11.5845 31.4216 10.7577 30.4963 10.717 29.4787C10.6637 28.1395 10.6637 26.7953 10.717 25.4561C10.7577 24.4384 11.5941 23.5053 12.4905 23.3119V31.6271V31.6264Z" fill="white"/>
<path d="M35.5028 31.64V23.289C36.3525 23.5855 36.9221 24.1412 37.1829 24.9756C37.2614 25.2269 37.297 25.4991 37.3 25.7619C37.3125 26.9034 37.3118 28.0457 37.3037 29.1872C37.2955 30.3015 36.6362 31.2375 35.6169 31.6099C35.5813 31.6228 35.5435 31.6293 35.5035 31.64H35.5028Z" fill="white"/>
<defs>
<linearGradient id="paint0_linear_4_2590" x1="24" y1="0" x2="24" y2="48" gradientUnits="userSpaceOnUse">
<stop stop-color="#176953"/>
<stop offset="1" stop-color="#064736"/>
</linearGradient>
</defs>
</svg>
