<svg width="48" height="48" viewBox="0 0 48 48" fill="none" xmlns="http://www.w3.org/2000/svg">
<circle cx="24" cy="24" r="24" fill="url(#paint0_linear_4_2597)"/>
<path fill-rule="evenodd" clip-rule="evenodd" d="M33.902 11.5527H14.0883C11.284 11.5527 9 13.8454 9 16.639V28.95C9 31.7532 11.2936 34.0362 14.0883 34.0362H21.0848L22.2894 36.117L23.4748 38.1688C23.6868 38.5445 24.2265 38.5445 24.4481 38.1688L25.6335 36.117L26.8381 34.0362H33.9117C36.716 34.0362 39 31.7436 39 28.95V16.6486C39 13.8454 36.7064 11.5527 33.902 11.5527ZM25.384 20.5686C23.8517 20.5686 22.6086 21.792 22.6086 23.3044C22.6086 24.8168 23.8517 26.0402 25.384 26.0402C26.9163 26.0402 28.1595 24.8168 28.1595 23.3044C28.1595 21.792 26.9259 20.5686 25.384 20.5686ZM25.384 24.6145C24.6516 24.6145 24.0541 24.0269 24.0541 23.3044C24.0541 22.5819 24.6516 21.9943 25.384 21.9943C26.1164 21.9943 26.7139 22.5819 26.7139 23.3044C26.7139 24.0269 26.1261 24.6145 25.384 24.6145ZM15.0142 21.1942C15.4479 20.7992 16.0068 20.568 16.6043 20.568C17.9921 20.568 19.1003 21.8011 19.1003 23.3135C19.1003 24.8259 17.9824 26.0493 16.6043 26.0493C15.9972 26.0493 15.4479 25.8084 15.0142 25.4231V25.9144H13.4723V18.9304H15.0142V21.1942ZM15.0239 23.8433C15.2359 24.3346 15.7274 24.6717 16.2959 24.6717C17.0669 24.6717 17.6837 24.0648 17.6837 23.3038C17.6837 22.5428 17.0669 21.9359 16.2959 21.9359C15.7274 21.9359 15.2359 22.2731 15.0239 22.7644C14.9468 22.9281 14.9082 23.1112 14.9082 23.3038C14.9082 23.4965 14.9564 23.6795 15.0239 23.8433ZM32.9701 20.6841V21.1176C32.5364 20.7805 31.9967 20.5782 31.4185 20.5782C30.0019 20.5782 28.8551 21.763 28.8551 23.2176C28.8551 24.6722 30.0019 25.8571 31.4185 25.8571C32.0064 25.8571 32.546 25.6548 32.9701 25.3176V26.0497C32.9701 26.0497 32.8159 26.7722 31.7365 26.7722V28.1305C31.7365 28.1305 32.9026 28.2653 33.9434 27.225C33.9434 27.225 34.4252 26.7144 34.5313 26.0401V20.6841H32.9701ZM31.7076 24.5566C30.927 24.5566 30.3006 23.9497 30.3006 23.208C30.3006 22.4662 30.9366 21.8594 31.7076 21.8594C32.2569 21.8594 32.7388 22.1676 32.9701 22.6107C33.0664 22.7938 33.1146 22.9961 33.1146 23.208C33.1146 23.4199 33.0568 23.6318 32.9701 23.8052C32.7388 24.258 32.2569 24.5566 31.7076 24.5566ZM19.2748 20.193V18.7962C19.2748 18.7962 20.2963 18.6613 21.2022 19.7306C21.2022 19.7306 21.6166 20.2508 21.713 20.9444V20.9829V25.915H20.1229V20.9829C19.9879 20.2893 19.2748 20.193 19.2748 20.193Z" fill="white"/>
<defs>
<linearGradient id="paint0_linear_4_2597" x1="24" y1="0" x2="24" y2="48" gradientUnits="userSpaceOnUse">
<stop stop-color="#00E56D"/>
<stop offset="1" stop-color="#00D44D"/>
</linearGradient>
</defs>
</svg>
