<svg width="48" height="48" viewBox="0 0 48 48" fill="none" xmlns="http://www.w3.org/2000/svg">
<circle cx="24" cy="24" r="24" fill="url(#paint0_linear_4_2610)"/>
<path d="M38.3696 17.2839C38.0217 15.9877 37 14.9722 35.7174 14.6265C33.3696 14 24 14 24 14C24 14 14.6087 14 12.2826 14.6265C11 14.9722 9.97826 15.9877 9.63044 17.2839C9 19.6173 9 24.5 9 24.5C9 24.5 9 29.3827 9.63044 31.716C9.97826 33.0123 11 34.0278 12.2826 34.3735C14.6304 35 24 35 24 35C24 35 33.3913 35 35.7174 34.3735C37 34.0278 38.0217 33.0123 38.3696 31.716C39 29.3827 39 24.5 39 24.5C39 24.5 39 19.6173 38.3696 17.2839ZM20.9348 28.929V20.071L28.7826 24.5L20.9348 28.929Z" fill="white"/>
<defs>
<linearGradient id="paint0_linear_4_2610" x1="24" y1="0" x2="24" y2="48" gradientUnits="userSpaceOnUse">
<stop stop-color="#EA3223"/>
<stop offset="1" stop-color="#DB2314"/>
</linearGradient>
</defs>
</svg>
