<svg width="56" height="56" viewBox="0 0 56 56" fill="none" xmlns="http://www.w3.org/2000/svg">
<rect x="1" y="1" width="54" height="54" stroke="white" stroke-width="2"/>
<path d="M27.4167 10.5C27.8808 10.5 28.3259 10.6844 28.6541 11.0126C28.9823 11.3408 29.1667 11.7859 29.1667 12.25V25.6667H42.5833C43.0475 25.6667 43.4926 25.851 43.8208 26.1792C44.149 26.5074 44.3333 26.9525 44.3333 27.4167C44.3333 27.8808 44.149 28.3259 43.8208 28.6541C43.4926 28.9823 43.0475 29.1667 42.5833 29.1667H29.1667V42.5833C29.1667 43.0475 28.9823 43.4926 28.6541 43.8208C28.3259 44.149 27.8808 44.3333 27.4167 44.3333C26.9525 44.3333 26.5074 44.149 26.1792 43.8208C25.851 43.4926 25.6667 43.0475 25.6667 42.5833V29.1667H12.25C11.7859 29.1667 11.3408 28.9823 11.0126 28.6541C10.6844 28.3259 10.5 27.8808 10.5 27.4167C10.5 26.9525 10.6844 26.5074 11.0126 26.1792C11.3408 25.851 11.7859 25.6667 12.25 25.6667H25.6667V12.25C25.6667 11.7859 25.851 11.3408 26.1792 11.0126C26.5074 10.6844 26.9525 10.5 27.4167 10.5Z" fill="white"/>
</svg>
