<svg width="32" height="32" viewBox="0 0 32 32" fill="none" xmlns="http://www.w3.org/2000/svg">
<path d="M16.3233 2.66602C8.02671 2.66602 1.33594 8.01858 1.33594 14.5167C1.33594 18.7345 4.1193 22.4278 8.29434 24.5367L6.88125 29.8145C6.85461 29.8936 6.85051 29.9785 6.86942 30.0598C6.88832 30.1411 6.92949 30.2155 6.9883 30.2747C7.07406 30.3504 7.18441 30.3922 7.29875 30.3925C7.39356 30.3849 7.48351 30.3474 7.55568 30.2854L13.6363 26.1854C14.5338 26.3093 15.4386 26.3736 16.3447 26.378C24.6305 26.378 31.332 21.0254 31.332 14.5167C31.332 8.00787 24.6091 2.66602 16.3233 2.66602Z" fill="#645A41"/>
<path d="M6.58103 12.6432H4.94313C4.74012 12.6491 4.53963 12.5971 4.36505 12.4933C4.28754 12.4448 4.22091 12.3807 4.16932 12.3051C4.11774 12.2296 4.08233 12.1442 4.0653 12.0544C4.0601 11.9974 4.0601 11.9402 4.0653 11.8832C4.06022 11.7766 4.08091 11.6702 4.12564 11.5733C4.17036 11.4764 4.2378 11.3918 4.32223 11.3265C4.50886 11.1913 4.73412 11.1199 4.96454 11.123H9.89966C10.1043 11.1158 10.3061 11.1719 10.4777 11.2836C10.5571 11.33 10.6251 11.3935 10.677 11.4694C10.7288 11.5454 10.7631 11.6318 10.7775 11.7226C10.7827 11.776 10.7827 11.8298 10.7775 11.8832C10.7825 11.9913 10.7619 12.0991 10.7172 12.1977C10.6726 12.2963 10.6052 12.3829 10.5206 12.4505C10.3385 12.5855 10.1154 12.6536 9.88895 12.6432H8.30458V18.2742C8.31101 18.3941 8.29244 18.5141 8.25006 18.6265C8.20767 18.7389 8.14239 18.8413 8.05835 18.9272C7.97777 19.0093 7.8809 19.0736 7.77396 19.116C7.66703 19.1584 7.55239 19.1779 7.43745 19.1734C7.2364 19.1791 7.03961 19.1149 6.88078 18.9915C6.72956 18.8709 6.62693 18.6998 6.59174 18.5097C6.58116 18.4315 6.58116 18.3523 6.59174 18.2742L6.58103 12.6432Z" fill="white"/>
<path d="M11.25 11.5405C11.2971 11.3644 11.4077 11.2118 11.5605 11.1123C11.7233 11.02 11.9088 10.9755 12.0957 10.9838H12.5025C12.7009 10.9767 12.8973 11.0249 13.0699 11.123C13.2528 11.246 13.3827 11.4332 13.4339 11.6476L15.5749 17.6961C15.6304 17.8539 15.6769 18.0148 15.7141 18.1779C15.7178 18.2456 15.7178 18.3135 15.7141 18.3812C15.7177 18.4855 15.6985 18.5894 15.6578 18.6856C15.6172 18.7817 15.556 18.8678 15.4786 18.9379C15.4036 19.0148 15.3135 19.0754 15.2141 19.1159C15.1146 19.1564 15.0079 19.176 14.9005 19.1734C14.7354 19.1898 14.5696 19.1502 14.4297 19.0609C14.2899 18.9715 14.1842 18.8377 14.1297 18.681L13.6801 17.3643H10.8646L10.415 18.681C10.3618 18.8408 10.2549 18.9772 10.1124 19.067C9.96987 19.1568 9.80064 19.1944 9.63352 19.1734C9.4525 19.1781 9.27518 19.1215 9.13038 19.0128C8.98929 18.9006 8.89411 18.7407 8.86274 18.5632C8.85707 18.5027 8.85707 18.4417 8.86274 18.3812C8.84436 18.2749 8.84436 18.1664 8.86274 18.0601C8.86274 17.9424 8.93768 17.8138 8.9805 17.6961L11.25 11.5405ZM12.3205 12.943L11.3035 16.1546H13.3268L12.3205 12.943Z" fill="white"/>
<path d="M15.9593 11.8833C15.9484 11.6431 16.0331 11.4083 16.1948 11.2303C16.277 11.1474 16.3757 11.0826 16.4845 11.0402C16.5933 10.9977 16.7097 10.9786 16.8264 10.984C17.0269 10.9816 17.2226 11.0456 17.3831 11.166C17.5317 11.2916 17.6305 11.4662 17.6614 11.6584C17.6719 11.733 17.6719 11.8087 17.6614 11.8833V17.5143H20.6053C20.8094 17.5116 21.01 17.5672 21.1834 17.6747C21.2614 17.7228 21.3283 17.7868 21.38 17.8624C21.4316 17.938 21.4668 18.0236 21.4832 18.1137C21.4832 18.1137 21.4832 18.2208 21.4832 18.2743C21.4883 18.3809 21.4676 18.4871 21.4228 18.584C21.3781 18.6809 21.3107 18.7657 21.2262 18.831C21.0396 18.9662 20.8143 19.0374 20.5839 19.0343H16.9656C16.7351 19.0492 16.506 18.9892 16.3125 18.8631C16.1395 18.7337 16.0241 18.5415 15.9914 18.3279C15.9835 18.2102 15.9835 18.0921 15.9914 17.9745L15.9593 11.8833Z" fill="white"/>
<path d="M21.6761 11.8834C21.6696 11.6438 21.7537 11.4107 21.9116 11.2303C22.072 11.0846 22.2778 10.9985 22.4943 10.9868C22.7108 10.9751 22.9246 11.0384 23.0999 11.1661C23.2518 11.2905 23.3543 11.4651 23.3889 11.6585C23.3942 11.7333 23.3942 11.8085 23.3889 11.8834V14.5061L26.0973 11.3801C26.2017 11.2735 26.3125 11.1735 26.4292 11.0805C26.5391 11.015 26.6652 10.9815 26.7932 10.984C26.9803 10.983 27.1632 11.039 27.3177 11.1446C27.3905 11.1936 27.4527 11.2569 27.5005 11.3304C27.5483 11.404 27.5808 11.4864 27.5961 11.5729C27.6004 11.5941 27.6004 11.616 27.5961 11.6372C27.5909 11.6619 27.5909 11.6873 27.5961 11.712C27.5957 11.8247 27.5662 11.9354 27.5104 12.0332C27.4536 12.1369 27.3854 12.2337 27.307 12.3222L25.5299 14.2706L27.671 17.5892V17.6962C27.7822 17.8496 27.8688 18.0195 27.9279 18.1995V18.2529C27.9403 18.3769 27.9224 18.5022 27.8758 18.6178C27.8292 18.7334 27.7552 18.8359 27.6603 18.9166C27.4817 19.0516 27.2632 19.1233 27.0394 19.1201C26.8907 19.1262 26.7429 19.0929 26.6112 19.0237C26.4686 18.928 26.3511 18.7996 26.2686 18.649L24.2774 15.4374L23.3247 16.4331V18.2208C23.3311 18.4603 23.247 18.6935 23.0891 18.8738C23.0045 18.9565 22.9039 19.021 22.7935 19.0634C22.683 19.1057 22.565 19.125 22.4468 19.1201C22.2493 19.1242 22.0564 19.0599 21.9009 18.9381C21.7496 18.8175 21.647 18.6465 21.6118 18.4564C21.6012 18.3782 21.6012 18.2989 21.6118 18.2208L21.6761 11.8834Z" fill="white"/>
</svg>
