<svg width="32" height="32" viewBox="0 0 32 32" fill="none" xmlns="http://www.w3.org/2000/svg">
<path d="M15.6985 30.6673C15.1673 30.5513 14.6569 30.3916 14.2465 30.0214C13.4583 29.3109 13.1575 28.4444 13.442 27.4361C13.7391 26.3833 14.4747 25.7402 15.5933 25.5741C16.8282 25.3908 17.8698 25.9558 18.4046 27.0558C18.4757 27.2026 18.5572 27.2434 18.715 27.242C19.5721 27.2348 20.43 27.247 21.2871 27.2363C22.499 27.2212 23.5643 26.4592 23.8192 25.4122C23.2932 25.5626 22.7813 25.5454 22.2746 25.39C21.1908 25.0585 20.4478 24.1124 20.4381 22.9537C20.4189 20.6313 20.4041 18.3081 20.4411 15.9856C20.4737 13.9339 22.662 12.7651 24.4822 13.8071C25.3274 14.2912 25.7445 15.0568 25.7489 15.9964C25.7623 18.9283 25.7786 21.8602 25.743 24.7921C25.7156 27.0522 23.788 28.8891 21.4486 28.9457C20.5426 28.9679 19.6351 28.9471 18.7291 28.9593C18.6269 28.9607 18.4713 29.0259 18.4343 29.1033C18.0335 29.929 17.3838 30.4389 16.4585 30.6229C16.4208 30.6301 16.3867 30.6523 16.3504 30.6673H15.6985Z" fill="#645A41"/>
<path d="M2.66406 14.2296C2.83741 9.71217 4.72868 6.04765 8.66382 3.58125C13.2835 0.685869 18.1387 0.582744 22.8687 3.3041C27.0883 5.73183 29.1248 9.50234 29.3307 14.284C29.0796 14.1408 28.8937 14.0219 28.6966 13.926C28.4684 13.8157 28.2358 13.6617 27.9943 13.6395C27.4861 13.5937 27.4528 13.28 27.4076 12.9026C27.1217 10.5515 26.1275 8.5069 24.4851 6.76022C23.0917 5.2778 21.396 4.23366 19.4151 3.63782C17.7246 3.12936 15.9985 2.99902 14.2472 3.26829C11.1403 3.74596 8.64308 5.2205 6.75626 7.63463C5.53541 9.19726 4.79461 10.9676 4.582 12.9241C4.54052 13.3065 4.46125 13.5407 4.00566 13.6452C3.55747 13.7477 3.14855 14.0105 2.66554 14.2289L2.66406 14.2296Z" fill="#645A41"/>
<path d="M11.5574 19.4962C11.5574 20.6191 11.5626 21.7427 11.5559 22.8656C11.5485 24.0337 10.841 25.0305 9.80021 25.3607C8.01192 25.9271 6.27399 24.7863 6.2451 22.968C6.20732 20.6363 6.20362 18.3031 6.2451 15.972C6.2814 13.9346 8.45714 12.7744 10.2721 13.8014C11.1522 14.2991 11.5478 15.0954 11.5552 16.0687C11.5641 17.2109 11.5574 18.3532 11.5574 19.4954V19.4962Z" fill="#645A41"/>
<path d="M4.48792 23.6269C3.58192 23.4221 2.75518 22.4968 2.71444 21.4792C2.6611 20.14 2.6611 18.7958 2.71444 17.4566C2.75518 16.4389 3.59155 15.5058 4.48792 15.3124V23.6276V23.6269Z" fill="#645A41"/>
<path d="M27.5002 23.6405V15.2895C28.3499 15.586 28.9196 16.1417 29.1803 16.976C29.2589 17.2274 29.2944 17.4995 29.2974 17.7624C29.31 18.9039 29.3092 20.0462 29.3011 21.1877C29.2929 22.302 28.6336 23.238 27.6143 23.6104C27.5787 23.6233 27.5409 23.6298 27.5009 23.6405H27.5002Z" fill="#645A41"/>
</svg>
