<svg width="230" height="141" viewBox="0 0 230 141" fill="none" xmlns="http://www.w3.org/2000/svg">
<g clip-path="url(#clip0_1_9656)">
<path d="M155.497 48.8583C154.029 48.8583 152.56 48.5876 151.386 47.787C149.929 46.7906 149.189 45.1952 149.189 43.0354V31.8906H151.479V43.0354C151.479 44.4177 151.872 45.3565 152.676 45.9037C154.48 47.1362 158.065 46.399 160.025 45.7827C160.031 45.4544 160.036 45.1261 160.036 44.7978C160.042 21.2009 141.753 1.86024 118.527 0.069015C116.642 0.610415 114.075 1.57226 111.536 3.23102C105.078 7.44702 101.805 13.9669 101.805 22.6177V36.1009C101.805 37.5408 101.25 38.7618 100.198 39.6373C98.5785 40.985 96.0402 41.319 93.9124 41.319C92.0621 41.319 90.5299 41.0656 90.2003 41.008L90.605 38.7618C92.2298 39.0498 96.8497 39.4529 98.7289 37.8863C99.2666 37.4371 99.5152 36.8727 99.5152 36.1009V22.6177C99.5152 10.7761 105.413 4.46933 110.362 1.26701C111.097 0.788961 111.831 0.368513 112.554 -0.00585938C94.6525 0.950229 79.5323 12.3196 73.1778 28.1296C73.623 29.2009 74.6349 31.067 76.3406 31.067H91.8193V33.3478H76.3406C74.392 33.3478 73.039 32.2016 72.1486 30.9691C70.732 35.3233 69.9688 39.9713 69.9688 44.7921C69.9688 64.15 82.273 80.6454 99.521 86.9348V44.0606H101.811V50.5113C106.327 50.0736 112.982 45.967 114.601 42.4652C115.861 39.7409 113.606 38.0591 112.808 37.5696H103.852V35.2888H113.392L113.641 35.4155C115.52 36.3946 118.579 39.3262 116.676 43.4213C114.693 47.7006 107.159 52.3774 101.805 52.7979V87.7066C105.98 88.9795 110.414 89.6649 115.005 89.6649C138.735 89.6649 158.175 71.3898 159.921 48.196C158.741 48.5185 157.128 48.8526 155.503 48.8526L155.497 48.8583ZM91.8135 52.6481H79.3242C75.427 52.6481 74.3978 47.8101 74.3574 47.6085L74.3342 47.4933V34.7531H76.6239V47.2514C76.7569 47.787 77.497 50.3673 79.3184 50.3673H91.8077V52.6481H91.8135ZM129.686 35.2888H139.227L139.475 35.4155C141.354 36.3946 144.407 39.3262 142.511 43.4213C140.395 47.9944 134.387 51.214 130.993 52.7288L130.056 50.6438C132.554 49.5322 138.556 46.5027 140.429 42.4594C141.69 39.7352 139.435 38.0534 138.637 37.5638H129.68V35.283L129.686 35.2888ZM118.058 47.1765L118.139 46.0361C119.336 46.1168 122.742 46.0419 124.13 44.7575C124.511 44.4004 124.69 43.9915 124.69 43.4616V31.355H126.98V43.4616C126.98 43.669 126.963 43.8648 126.934 44.0664H126.98V55.2745H124.69V47.1477C122.846 48.1845 120.342 48.3457 118.96 48.3457C118.463 48.3457 118.11 48.3227 117.989 48.3169L118.07 47.1765H118.058ZM153.959 61.5639C153.959 65.5899 150.669 68.8671 146.628 68.8671H142.551C142.424 68.8671 142.297 68.8671 142.17 68.8555C136.214 68.8268 118.134 68.7576 112.583 68.8671C112.542 68.8671 112.502 68.8671 112.461 68.8671C110.883 68.8671 109.599 68.2681 108.743 67.1277C106.078 63.5855 108.408 55.8044 108.686 54.9289L110.871 55.6085C109.969 58.4883 109.096 63.7871 110.576 65.7569C110.848 66.1198 111.351 66.592 112.537 66.5805C116.971 66.4941 129.333 66.5229 137.209 66.5517C135.977 65.2443 135.225 63.4876 135.225 61.5639V60.6597C135.225 56.6337 138.515 53.3565 142.557 53.3565H146.633C150.675 53.3565 153.965 56.6337 153.965 60.6597V61.5639H153.959Z" fill="white"/>
<path d="M146.618 55.6308H142.542C139.761 55.6308 137.5 57.8827 137.5 60.6531V61.5574C137.5 64.2644 139.663 66.4703 142.357 66.5682C143.421 66.5682 144.051 66.5739 144.092 66.5739H146.618C149.4 66.5739 151.66 64.3219 151.66 61.5516V60.6473C151.66 57.877 149.4 55.625 146.618 55.625V55.6308Z" fill="white"/>
<path d="M16.2766 125.063H12.8478V121.935C11.6625 122.247 10.5061 122.442 9.0085 122.442H2.50943C0.676505 122.442 0 120.905 0 119.534V104.668H10.3846V107.75H3.45191V119.367H11.3502C12.3621 119.367 12.8478 118.791 12.8478 117.996V114.748H8.47654V111.695H12.8478V103.683H16.2766V125.069V125.063Z" fill="white"/>
<path d="M29.8733 110.1C28.1849 113.59 24.3456 115.658 20.2345 116.332L19.0781 113.014C23.2586 113.037 26.8782 110.416 27.0227 107.358H20.1883V104.306H30.7926V105.987C30.7926 106.949 30.6712 107.842 30.4284 108.683H34.2214V103.678H37.6502V118.929H34.2214V111.758H29.8733V110.1ZM38.0839 124.821H25.8663C23.7674 124.821 22.8249 123.813 22.8249 122.391V116.907H26.2537V121.746H38.0896V124.827L38.0839 124.821Z" fill="white"/>
<path d="M52.405 105.889C52.405 112.455 47.0681 115.272 41.633 115.871L40.4766 112.622C44.7495 112.72 48.3749 110.601 48.7103 107.352H41.367V104.271H52.405V105.884V105.889ZM55.0879 103.678H58.5167V108.706H61.003V111.787H58.5167V116.118H56.2212C58.083 116.89 58.852 118.261 58.852 120.185C58.852 123.335 56.8457 125.069 51.3874 125.069C45.9291 125.069 43.7319 123.335 43.7319 120.185C43.7319 117.034 45.9522 115.398 51.3874 115.398C52.8618 115.398 54.0934 115.519 55.0821 115.761V103.683L55.0879 103.678ZM51.3931 118.422C48.5888 118.422 47.1202 118.877 47.1202 120.179C47.1202 121.573 48.5946 122.033 51.3931 122.033C54.1917 122.033 55.4753 121.578 55.4753 120.179C55.4753 118.877 54.2206 118.422 51.3931 118.422Z" fill="white"/>
<path d="M73.8255 106.056H76.9883V103.678H80.4171V119.073H76.9883V113.999H73.8486V112.196C73.1027 114.575 71.1195 115.756 68.61 115.756C65.3258 115.756 62.9609 113.832 62.9609 109.933C62.9609 106.033 65.3027 104.133 68.61 104.133C71.0963 104.133 73.0796 105.285 73.8255 107.623V106.062V106.056ZM80.949 124.821H68.7315C66.6326 124.821 65.6901 124.003 65.6901 122.201V117.074H69.0957V121.74H80.9548V124.821H80.949ZM68.61 107.018C66.9679 107.018 66.17 108.222 66.17 109.927C66.17 111.632 66.9679 112.864 68.61 112.864C70.2522 112.864 70.9518 111.661 70.9518 109.927C70.9518 108.193 70.2522 107.018 68.61 107.018ZM77.0172 111.182V108.896H74.0972C74.1435 109.23 74.1724 109.57 74.1724 109.933C74.1724 110.365 74.1493 110.797 74.0741 111.182H77.023H77.0172Z" fill="white"/>
<path d="M94.3059 120.254L92.1087 122.488C90.6574 120.974 89.5241 118.71 89.0905 117.414C88.7783 118.929 87.1361 121.912 85.9739 123.093L83.5859 120.686C86.9164 117.702 87.3038 111.424 87.3038 107.381V104.3H90.7326V107.162C90.7326 110.773 90.6112 115.894 94.3059 119.839V113.607H91.9411V110.526H94.3059V103.672H97.6133V125.057H94.3059V120.248V120.254ZM102.181 125.063H98.8738V103.678H102.181V125.063Z" fill="white"/>
<path d="M113.292 122.512C112.159 121.475 110.586 119.384 110.106 118.18C109.84 119.482 108.562 121.838 107.452 123.064L104.891 120.974C107.787 118.036 108.319 113.469 108.319 107.744H105.712V104.64H114.234V107.744H111.65C111.65 113.446 112.037 117.316 115.564 120.156L113.292 122.512ZM123.578 125.063H120.248V115.03H118.993V125.063H115.663V103.678H118.993V111.954H120.248V103.678H123.578V125.063Z" fill="white"/>
<path d="M126.781 107.26V104.495H131.227V102.883H134.656V104.495H139.126V107.26H137.917C138.206 107.669 138.351 108.176 138.351 108.798C138.351 110.963 136.466 111.706 134.656 111.948V112.645H139.004C139.825 112.645 140.623 111.85 140.623 111.298V103.649H144.052V108.124H146.538V111.177H144.052V115.289H140.623V114.782C138.79 115.047 138.062 115.191 134.61 115.191H126.469V112.64H131.227V111.966C129.418 111.724 127.51 110.958 127.51 108.792C127.51 108.164 127.654 107.663 127.92 107.254H126.787L126.781 107.26ZM144.387 124.844H130.886C129.51 124.844 128.423 124.124 128.423 122.465V119.24H140.618V118.468H128.423V115.894H144.046V121.452H131.852V122.27H144.387V124.844ZM132.916 107.617C132.118 107.617 130.695 107.617 130.695 108.798C130.695 109.979 132.118 109.979 132.939 109.979C133.714 109.979 135.136 109.979 135.136 108.798C135.136 107.617 133.714 107.617 132.916 107.617Z" fill="white"/>
<path d="M167.111 116.954H159.381V120.634H155.952V116.954H148.273V113.993H167.111V116.954ZM157.692 112.576C153.223 112.576 149.459 111.758 149.459 108.297C149.459 104.835 153.229 104.018 157.692 104.018C162.156 104.018 165.88 104.835 165.88 108.297C165.88 111.758 162.139 112.576 157.692 112.576ZM166.024 124.821H152.234C150.471 124.821 149.673 123.859 149.673 122.442V118.376H153.101V121.913H166.024V124.821ZM157.692 106.707C153.587 106.707 152.888 107.381 152.888 108.32C152.888 109.259 153.587 109.881 157.692 109.881C161.798 109.881 162.451 109.23 162.451 108.291C162.451 107.352 161.798 106.702 157.692 106.702V106.707Z" fill="white"/>
<path d="M188.486 115.969H169.648V112.887H177.35V111.949H173.366C171.747 111.949 171.048 111.056 171.048 109.783V104.248H187.035V107.185H174.476V109.011H187.035V111.949H180.779V112.887H188.481V115.969H188.486ZM179.067 125.063C174.771 125.063 170.834 124.245 170.834 120.784C170.834 117.322 174.771 116.504 179.067 116.504C183.364 116.504 187.255 117.322 187.255 120.784C187.255 124.245 183.34 125.063 179.067 125.063ZM179.067 119.24C175.274 119.24 174.263 119.868 174.263 120.801C174.263 121.734 175.274 122.316 179.067 122.316C182.861 122.316 183.826 121.717 183.826 120.778C183.826 119.839 182.861 119.24 179.067 119.24Z" fill="white"/>
<path d="M199.286 115.992C197.742 114.84 196.51 113.227 195.88 112.092C195.493 113.319 194.047 115.583 192.717 116.712L190.422 114.356C193.463 112.311 194.094 108.464 194.094 106.321V104.254H197.569V106.108C197.569 108.032 197.835 111.355 201.263 113.515L199.286 115.992ZM209.335 124.821H197.089C195.204 124.821 194.14 124.124 194.14 122.293V116.614H197.569V121.74H209.329V124.821H209.335ZM204.576 118.929H201.269V110.388H199.049V107.525H201.269V103.678H204.576V118.929ZM209.069 118.929H205.762V103.678H209.069V118.929Z" fill="white"/>
<path d="M230.003 125.063H226.574V121.936C225.1 122.321 223.336 122.442 221.405 122.442H216.091C214.282 122.442 213.727 121.072 213.727 119.724V104.663H224.036V107.744H217.178V111.689H222.082V114.817H217.178V119.361H225.123C225.823 119.361 226.574 118.998 226.574 118.301V114.788H223.458V111.735H226.574V103.678H230.003V125.063Z" fill="white"/>
<path d="M39.7792 136.807L42.3175 140.839H41.0223L38.6632 137.032H36.7725V140.839H35.6797V131.877H38.5592C40.6407 131.877 41.6931 132.798 41.6931 134.405C41.6931 135.655 40.9472 136.415 39.7792 136.767V136.807ZM38.484 136.214C39.9064 136.214 40.5424 135.557 40.5424 134.417C40.5424 133.277 39.8717 132.747 38.484 132.747H36.7725V136.208H38.484V136.214Z" fill="white"/>
<path d="M50.6602 140.372C50.2439 140.637 49.313 140.965 48.2722 140.965C46.2138 140.965 45.1094 139.727 45.1094 137.538C45.1094 135.188 46.5029 134.111 48.0409 134.111C49.8276 134.111 50.77 135.211 50.77 137.245V137.763H46.2022C46.2542 139.456 47.0522 140.113 48.411 140.113C49.1858 140.113 49.8854 139.934 50.4289 139.617L50.6602 140.36V140.372ZM49.6946 136.997C49.683 135.557 49.0354 134.923 48.0178 134.923C47.1909 134.923 46.3178 135.442 46.2138 136.997H49.6888H49.6946Z" fill="white"/>
<path d="M54.2031 131.283H55.2439V134.848C55.8279 134.405 56.6894 134.117 57.5163 134.117C58.6727 134.117 59.5111 134.658 59.5111 135.948V140.838H58.4703V136.173C58.4703 135.424 58.1003 135.01 57.0248 135.01C56.516 135.01 55.6776 135.211 55.2612 135.551V140.832H54.2089V131.277L54.2031 131.283Z" fill="white"/>
<path d="M62.844 139.116C62.844 137.941 63.7344 137.319 65.0932 137.169L66.8799 136.968V136.3C66.8799 135.263 66.2728 134.975 65.232 134.975C64.648 134.975 63.9773 135.142 63.5205 135.355L63.214 134.612C63.7865 134.307 64.6249 134.105 65.4748 134.105C66.8683 134.105 67.9265 134.699 67.9265 136.064V140.844H67.0534L66.9377 140.303H66.8972C66.5445 140.642 65.7929 140.971 65.0296 140.971C63.8212 140.971 62.844 140.349 62.844 139.128V139.116ZM66.8799 139.675V137.688L65.2667 137.866C64.4283 137.97 63.9195 138.31 63.9195 139.082C63.9195 139.853 64.5266 140.193 65.2898 140.193C65.8738 140.193 66.585 139.951 66.8741 139.675H66.8799Z" fill="white"/>
<path d="M72.6828 140.182V140.838H71.6016V131.283H72.6828V134.825H72.6944C73.0876 134.474 73.8739 134.105 74.6603 134.105C76.0306 134.105 77.1986 134.889 77.1986 137.469C77.1986 140.049 75.915 140.959 74.6372 140.959C73.8277 140.959 73.0529 140.591 72.6828 140.187V140.182ZM72.6828 139.421C73.0124 139.773 73.6484 140.141 74.3191 140.141C75.3194 140.141 76.0942 139.519 76.0942 137.561C76.0942 135.603 75.4351 134.981 74.3538 134.981C73.7294 134.981 73.024 135.298 72.677 135.574V139.416L72.6828 139.421Z" fill="white"/>
<path d="M80.6016 131.877H81.7291V132.925H80.6016V131.877ZM80.6247 134.238H81.6886V140.839H80.6247V134.238Z" fill="white"/>
<path d="M85.5078 131.283H86.5891V140.838H85.5078V131.283Z" fill="white"/>
<path d="M90.375 131.877H91.5025V132.925H90.375V131.877ZM90.3981 134.238H91.462V140.839H90.3981V134.238Z" fill="white"/>
<path d="M95.8336 139.335V135.061H94.7812V134.226H95.8336V132.631H96.8628V134.226H98.8692V135.061H96.8628V139.185C96.8628 139.842 97.2965 140.095 98.0308 140.095C98.3488 140.095 98.7825 140.009 99.0831 139.894L99.2335 140.637C98.927 140.786 98.3315 140.942 97.7475 140.942C96.6836 140.942 95.8336 140.487 95.8336 139.335Z" fill="white"/>
<path d="M102.109 139.116C102.109 137.941 103 137.319 104.359 137.17L106.145 136.968V136.3C106.145 135.263 105.538 134.975 104.497 134.975C103.913 134.975 103.243 135.142 102.786 135.355L102.479 134.612C103.052 134.307 103.89 134.105 104.74 134.105C106.134 134.105 107.192 134.699 107.192 136.064V140.844H106.319L106.203 140.303H106.163C105.81 140.643 105.058 140.971 104.295 140.971C103.087 140.971 102.109 140.349 102.109 139.128V139.116ZM106.145 139.675V137.688L104.532 137.866C103.694 137.97 103.185 138.31 103.185 139.082C103.185 139.854 103.792 140.193 104.555 140.193C105.139 140.193 105.85 139.951 106.139 139.675H106.145Z" fill="white"/>
<path d="M111.427 139.335V135.061H110.375V134.226H111.427V132.631H112.457V134.226H114.463V135.061H112.457V139.185C112.457 139.842 112.89 140.095 113.625 140.095C113.943 140.095 114.376 140.009 114.677 139.894L114.827 140.637C114.521 140.786 113.925 140.942 113.341 140.942C112.277 140.942 111.427 140.487 111.427 139.335Z" fill="white"/>
<path d="M118.062 131.877H119.19V132.925H118.062V131.877ZM118.086 134.238H119.15V140.839H118.086V134.238Z" fill="white"/>
<path d="M122.609 137.561C122.609 135.321 124.055 134.1 125.743 134.1C127.432 134.1 128.866 135.303 128.866 137.515C128.866 139.727 127.409 140.977 125.732 140.977C123.945 140.977 122.609 139.79 122.609 137.561ZM127.738 137.55C127.738 135.551 126.761 134.935 125.732 134.935C124.616 134.935 123.725 135.781 123.725 137.527C123.725 139.514 124.702 140.159 125.755 140.159C126.807 140.159 127.732 139.324 127.732 137.555L127.738 137.55Z" fill="white"/>
<path d="M132.266 134.227H133.283V134.86H133.306C133.89 134.417 134.763 134.117 135.579 134.117C136.735 134.117 137.585 134.647 137.585 135.937V140.844H136.544V136.202C136.544 135.355 136.036 134.987 135.134 134.987C134.55 134.987 133.838 135.217 133.318 135.546V140.844H132.266V134.232V134.227Z" fill="white"/>
<path d="M146.43 136.352C146.43 133.063 148.459 131.727 150.57 131.727C151.663 131.727 152.588 131.951 153.12 132.245L152.854 133.103C152.258 132.815 151.472 132.637 150.558 132.637C149.038 132.637 147.604 133.696 147.604 136.254C147.604 138.811 148.783 140.107 150.587 140.107C151.605 140.107 152.466 139.819 153.085 139.537L153.339 140.395C152.744 140.735 151.651 141 150.46 141C148.216 141 146.436 139.456 146.436 136.346L146.43 136.352Z" fill="white"/>
<path d="M161.863 140.372C161.447 140.637 160.516 140.965 159.475 140.965C157.417 140.965 156.312 139.727 156.312 137.538C156.312 135.188 157.706 134.111 159.244 134.111C161.031 134.111 161.973 135.211 161.973 137.245V137.763H157.405C157.457 139.456 158.255 140.113 159.614 140.113C160.389 140.113 161.089 139.934 161.632 139.617L161.863 140.36V140.372ZM160.898 136.997C160.886 135.557 160.239 134.923 159.221 134.923C158.394 134.923 157.521 135.442 157.417 136.997H160.892H160.898Z" fill="white"/>
<path d="M165.406 134.227H166.424V134.86H166.447C167.031 134.417 167.904 134.117 168.719 134.117C169.876 134.117 170.726 134.647 170.726 135.937V140.844H169.685V136.202C169.685 135.355 169.176 134.987 168.274 134.987C167.69 134.987 166.979 135.217 166.459 135.546V140.844H165.406V134.232V134.227Z" fill="white"/>
<path d="M175.037 139.335V135.061H173.984V134.226H175.037V132.631H176.066V134.226H178.072V135.061H176.066V139.185C176.066 139.842 176.5 140.095 177.234 140.095C177.552 140.095 177.986 140.009 178.286 139.894L178.437 140.637C178.13 140.786 177.535 140.942 176.951 140.942C175.887 140.942 175.037 140.487 175.037 139.335Z" fill="white"/>
<path d="M186.879 140.372C186.463 140.637 185.532 140.965 184.491 140.965C182.433 140.965 181.328 139.727 181.328 137.538C181.328 135.188 182.722 134.111 184.26 134.111C186.046 134.111 186.989 135.211 186.989 137.245V137.763H182.421C182.473 139.456 183.271 140.113 184.63 140.113C185.405 140.113 186.104 139.934 186.648 139.617L186.873 140.36L186.879 140.372ZM185.913 136.997C185.902 135.557 185.254 134.923 184.237 134.923C183.41 134.923 182.537 135.442 182.433 136.997H185.908H185.913Z" fill="white"/>
<path d="M190.422 134.225H191.44V135.02H191.463C192.024 134.565 192.683 134.162 193.492 134.162C193.781 134.162 194.099 134.214 194.319 134.329L194.013 135.228C193.862 135.164 193.567 135.101 193.313 135.101C192.579 135.089 192.006 135.331 191.463 135.734V140.843H190.422V134.231V134.225Z" fill="white"/>
</g>
<defs>
<clipPath id="clip0_1_9656">
<rect width="230" height="141" fill="white"/>
</clipPath>
</defs>
</svg>
