<svg width="48" height="48" viewBox="0 0 48 48" fill="none" xmlns="http://www.w3.org/2000/svg">
<path d="M25.6433 17.2089C26.4255 16.3556 27.2966 15.8578 28.2566 15.7156C29.2166 15.6089 30.1588 15.7689 31.0832 16.1956C31.9721 16.6578 32.7366 17.3156 33.3766 18.1689C34.0166 19.0933 34.4255 20.16 34.6033 21.3689C34.781 22.6133 34.5855 23.9467 34.0166 25.3689C33.4121 26.8267 32.3455 28.16 30.8166 29.3689C29.2522 30.6133 27.3855 31.4667 25.2166 31.9289C24.8255 32 24.5588 32.0178 24.4166 31.9822C24.2743 31.9467 24.1855 31.8933 24.1499 31.8222C24.1499 31.5022 24.2566 31.2711 24.4699 31.1289C25.3588 30.6311 26.1055 30.0089 26.7099 29.2622C27.3143 28.5156 27.6877 27.7867 27.8299 27.0756C27.9721 26.4 27.8121 25.9022 27.3499 25.5822C27.2077 25.4756 26.8699 25.1733 26.3366 24.6756C25.8032 24.2133 25.3055 23.5911 24.8432 22.8089C24.381 22.0622 24.1677 21.2089 24.2033 20.2489C24.2033 19.2889 24.6833 18.2756 25.6433 17.2089ZM14.4433 17.2089C15.2255 16.3556 16.0966 15.8578 17.0566 15.7156C18.0166 15.6089 18.9588 15.7689 19.8832 16.1956C20.7721 16.6578 21.5366 17.3156 22.1766 18.1689C22.8166 19.0933 23.2255 20.16 23.4033 21.3689C23.581 22.6133 23.3855 23.9467 22.8166 25.3689C22.2121 26.8267 21.1455 28.16 19.6166 29.3689C18.0522 30.6133 16.1855 31.4667 14.0166 31.9289C13.6255 32 13.3588 32.0178 13.2166 31.9822C13.0744 31.9467 12.9855 31.8933 12.9499 31.8222C12.9499 31.5022 13.0566 31.2711 13.2699 31.1289C14.1588 30.6311 14.9055 30.0089 15.5099 29.2622C16.1144 28.5156 16.4877 27.7867 16.6299 27.0756C16.7721 26.4 16.6122 25.9022 16.1499 25.5822C16.0077 25.4756 15.6699 25.1733 15.1366 24.6756C14.6032 24.2133 14.1055 23.5911 13.6433 22.8089C13.181 22.0622 12.9677 21.2089 13.0032 20.2489C13.0032 19.2889 13.4833 18.2756 14.4433 17.2089Z" fill="#507772"/>
</svg>
