<svg width="48" height="49" viewBox="0 0 48 49" fill="none" xmlns="http://www.w3.org/2000/svg">
<g id="Frame 25">
<path id="Strong &#226;&#134;&#146; &#235;&#172;&#184;&#236;&#160;&#156;&#236;&#160;&#144;&#236;&#151;&#144; &#235;&#140;&#128;&#237;&#149;&#156; &#236;&#160;&#149;&#237;&#153;&#149;&#237;&#149;&#156; &#237;&#143;&#137;&#234;&#176;&#128;&#236;&#153;&#128; &#235;&#182;&#132;&#236;&#132;&#157;," d="M22.3567 31.2911C21.5745 32.1444 20.7034 32.6422 19.7434 32.7844C18.7834 32.8911 17.8412 32.7311 16.9168 32.3044C16.0279 31.8422 15.2634 31.1844 14.6234 30.3311C13.9834 29.4067 13.5745 28.34 13.3967 27.1311C13.219 25.8867 13.4145 24.5533 13.9834 23.1311C14.5879 21.6733 15.6545 20.34 17.1834 19.1311C18.7478 17.8867 20.6145 17.0333 22.7834 16.5711C23.1745 16.5 23.4412 16.4822 23.5834 16.5178C23.7257 16.5533 23.8145 16.6067 23.8501 16.6778C23.8501 16.9978 23.7434 17.2289 23.5301 17.3711C22.6412 17.8689 21.8945 18.4911 21.2901 19.2378C20.6857 19.9844 20.3123 20.7133 20.1701 21.4244C20.0279 22.1 20.1879 22.5978 20.6501 22.9178C20.7923 23.0244 21.1301 23.3267 21.6634 23.8244C22.1968 24.2867 22.6945 24.9089 23.1568 25.6911C23.619 26.4378 23.8323 27.2911 23.7967 28.2511C23.7967 29.2111 23.3167 30.2244 22.3567 31.2911ZM33.5567 31.2911C32.7745 32.1444 31.9034 32.6422 30.9434 32.7844C29.9834 32.8911 29.0412 32.7311 28.1168 32.3044C27.2279 31.8422 26.4634 31.1844 25.8234 30.3311C25.1834 29.4067 24.7745 28.34 24.5967 27.1311C24.419 25.8867 24.6145 24.5533 25.1834 23.1311C25.7879 21.6733 26.8545 20.34 28.3834 19.1311C29.9478 17.8867 31.8145 17.0333 33.9834 16.5711C34.3745 16.5 34.6412 16.4822 34.7834 16.5178C34.9256 16.5533 35.0145 16.6067 35.0501 16.6778C35.0501 16.9978 34.9434 17.2289 34.7301 17.3711C33.8412 17.8689 33.0945 18.4911 32.4901 19.2378C31.8856 19.9844 31.5123 20.7133 31.3701 21.4244C31.2279 22.1 31.3878 22.5978 31.8501 22.9178C31.9923 23.0244 32.3301 23.3267 32.8634 23.8244C33.3968 24.2867 33.8945 24.9089 34.3567 25.6911C34.819 26.4378 35.0323 27.2911 34.9968 28.2511C34.9968 29.2111 34.5167 30.2244 33.5567 31.2911Z" fill="#507772"/>
</g>
</svg>
