<svg width="88" height="88" viewBox="0 0 88 88" fill="none" xmlns="http://www.w3.org/2000/svg">
<path fill-rule="evenodd" clip-rule="evenodd" d="M18.0832 25H31.9884C34.2007 25 36 26.8279 36 29.0744V50.7595C36 53.0057 34.2007 54.8339 31.9884 54.8339H30.8227V33.1515C30.8227 32.7841 30.5301 32.4871 30.1685 32.4871C29.8078 32.4871 29.5135 32.785 29.5135 33.1515V83H21.2054V59.4805C21.2054 59.1132 20.9121 58.8154 20.5503 58.8154C20.1881 58.8154 19.8961 59.1129 19.8961 59.4805V83H11.5874V45.6855H21.5016C21.6993 45.6855 21.8848 45.5964 22.0097 45.4407C22.0409 45.4018 22.0679 45.3587 22.0896 45.3135L22.2179 45.0446L22.512 45.0328C24.5976 44.9492 26.2548 43.1989 26.2548 41.0786C26.2548 38.8958 24.5061 37.12 22.3565 37.12H20.5582L18.0832 25ZM6.96789 43.1329C5.75635 42.3999 5 41.0692 5 39.6326V29.0744C5 26.8276 6.79881 25 9.01157 25H11.3355L7.56008 43.4912L6.96789 43.1329ZM20.8299 38.4497L21.902 43.7076H22.3563C23.7841 43.7076 24.9454 42.5285 24.9454 41.0786C24.9454 39.6287 23.7843 38.4495 22.3563 38.4495L20.8299 38.4497Z" fill="#B3D9E8"/>
<path fill-rule="evenodd" clip-rule="evenodd" d="M74.2353 31.4423C74.0806 30.8197 74.4611 30.189 75.0835 30.0353L80.833 28.611L41.8458 5.13541C41.296 4.80417 41.1186 4.09004 41.4482 3.53996C41.6235 3.24889 41.9064 3.06226 42.2151 3H42.6756C42.8024 3.02574 42.927 3.07322 43.0441 3.14379L82.0366 26.6226L80.5299 20.5371C80.3752 19.9145 80.7548 19.2838 81.3781 19.1301C82.0014 18.9753 82.631 19.3551 82.7855 19.9785L84.9648 28.7845C85.1187 29.408 84.7405 30.0378 84.1166 30.1924L75.6428 32.2918C75.5483 32.3143 75.4554 32.3261 75.3624 32.3261C74.8405 32.326 74.3665 31.9721 74.2353 31.4423ZM21.1753 3H19.9153C15.3202 3.32444 11.68 7.16772 11.68 11.8467C11.68 16.7368 15.6573 20.7159 20.5452 20.7159C25.4354 20.7159 29.4127 16.7368 29.4127 11.8467C29.4127 7.16772 25.7726 3.32444 21.1753 3ZM82.6756 82.6758H76.7715V46.5941L82.6756 50.1498V82.6758ZM84.4368 48.4972L76.209 43.5423C75.8489 43.326 75.4021 43.3205 75.0366 43.5259C74.6717 43.7321 74.4476 44.119 74.4476 44.5384V83.8376C74.4476 84.4798 74.967 85 75.6091 85H83.8377C84.4798 85 85 84.4796 85 83.8376V49.4926C85 49.0855 84.7852 48.7074 84.4368 48.4972ZM66.0933 82.6758H60.1892V36.6099L66.0933 40.1656V82.6758ZM67.8547 38.5124L59.626 33.5575C59.266 33.3418 58.8191 33.3355 58.4545 33.5419C58.0889 33.7481 57.8647 34.1341 57.8647 34.5537V83.8376C57.8647 84.4798 58.3849 85 59.027 85H67.2556C67.8977 85 68.417 84.4796 68.417 83.8376V39.5084C68.417 39.1006 68.2046 38.7224 67.8547 38.5124ZM49.5104 82.6758V30.1806L43.6063 26.6249V82.6756L49.5104 82.6758ZM51.2717 28.5282L43.0439 23.5733C42.6854 23.3569 42.237 23.3514 41.8723 23.5568C41.5083 23.763 41.2826 24.1499 41.2826 24.5687V83.8376C41.2826 84.4798 41.802 85 42.4448 85H50.6727C51.3155 85 51.8349 84.4796 51.8349 83.8376V29.5236C51.8349 29.1164 51.6225 28.7384 51.2717 28.5282ZM35.7667 50.9662C35.7667 52.9357 34.1647 54.5383 32.1964 54.5383H31.5122V33.3761C31.5122 32.7347 30.9928 32.2144 30.3508 32.2144C29.7102 32.2144 29.1885 32.7347 29.1885 33.3761V82.6758H21.7589V59.6784C21.7589 59.0362 21.238 58.5158 20.5967 58.5158C19.9546 58.5158 19.4352 59.0362 19.4352 59.6784V82.6758H12.005V46.3955H21.5614C21.9121 46.3955 22.2418 46.2384 22.4627 45.9675C22.519 45.8979 22.5673 45.8222 22.6056 45.7432C24.9778 45.6493 26.8797 43.6908 26.8797 41.2952C26.8797 38.8396 24.8834 36.8425 22.4284 36.8425H21.01L18.7065 25.7309H32.1964C34.1647 25.7309 35.7667 27.3334 35.7667 29.3031V50.9662ZM22.4284 43.4234C23.6016 43.4234 24.556 42.4687 24.556 41.2952C24.556 40.1216 23.6016 39.1669 22.4284 39.1669H21.4918L22.3729 43.4234H22.4284ZM13.0132 25.7311L9.21186 44.0712H20.1335L16.3329 25.7311H13.0132ZM5.32453 39.8506V29.3032C5.32453 27.3335 6.92568 25.7311 8.89482 25.7311H10.6397L7.07723 42.9195C6.01804 42.2882 5.32453 41.1319 5.32453 39.8506ZM32.1964 23.4059H8.89482C5.64473 23.4059 3 26.0514 3 29.3031V39.8505C3 42.2491 4.47317 44.3843 6.62424 45.289C6.63752 45.5343 6.72499 45.7725 6.88285 45.9671C7.10395 46.2383 7.43427 46.3952 7.78418 46.3952H9.68145V83.8376C9.68145 84.4798 10.2008 85 10.8437 85H30.3509C30.993 85 31.5124 84.4796 31.5124 83.8376V56.8625H32.1966C35.4467 56.8625 38.0906 54.2171 38.0906 50.966V29.3031C38.0904 26.0514 35.4465 23.4059 32.1964 23.4059ZM20.5452 5.30178C24.1545 5.30178 27.089 8.23783 27.089 11.8467C27.089 15.4555 24.1545 18.3916 20.5452 18.3916C16.9382 18.3916 14.0037 15.4555 14.0037 11.8467C14.0037 8.23783 16.9382 5.30178 20.5452 5.30178Z" fill="#2A2C28"/>
</svg>
