<svg width="88" height="88" viewBox="0 0 88 88" fill="none" xmlns="http://www.w3.org/2000/svg">
<rect x="10" y="37" width="6" height="27" fill="#B3D9E8"/>
<rect x="72" y="37" width="6" height="27" fill="#B3D9E8"/>
<path d="M29.2207 58.6881C28.6104 58.6881 28.1152 58.1929 28.1152 57.5826V53.8978C28.1152 51.2569 30.2647 49.1074 32.9056 49.1074C34.1857 49.1074 35.389 49.6064 36.293 50.5104C37.1969 51.4143 37.694 52.6157 37.694 53.8939V57.5788C37.694 58.1891 37.1988 58.6843 36.5885 58.6843C35.9782 58.6843 35.4831 58.1891 35.4831 57.5788V53.8939C35.4831 53.2068 35.2144 52.5581 34.7288 52.0707C34.2433 51.5832 33.5965 51.3164 32.9075 51.3164C31.4854 51.3164 30.3281 52.4737 30.3281 53.8958V57.5807C30.3262 58.1949 29.831 58.6881 29.2207 58.6881Z" fill="#2A2C28"/>
<path d="M33.9496 69.8736C33.3393 69.8736 32.8441 69.3784 32.8441 68.7681V66.3633L31.66 65.3385C29.4068 63.3886 28.1133 60.5616 28.1133 57.581C28.1133 56.9707 28.6084 56.4756 29.2187 56.4756C29.829 56.4756 30.3242 56.9707 30.3242 57.581C30.3242 59.9186 31.3375 62.1372 33.1051 63.6649L34.6712 65.0199C34.913 65.2291 35.0531 65.5342 35.0531 65.8567V68.7681C35.055 69.3784 34.5599 69.8736 33.9496 69.8736Z" fill="#2A2C28"/>
<path d="M52.5586 69.8724C51.9483 69.8724 51.4531 69.3773 51.4531 68.767V65.8555C51.4531 65.5331 51.5932 65.228 51.837 65.0169C54.8482 62.4278 56.3663 58.5299 55.8999 54.5898C55.8289 53.9833 56.2607 53.4344 56.8672 53.3615C57.4775 53.2886 58.0226 53.7223 58.0955 54.3288C58.629 58.8293 56.9766 63.2857 53.6641 66.3507V68.767C53.6641 69.3773 53.1689 69.8724 52.5586 69.8724Z" fill="#2A2C28"/>
<path d="M20.2156 68.5755C17.6784 68.5755 15.6152 66.5124 15.6152 63.9752V36.4519C15.6152 33.9147 17.6784 31.8516 20.2156 31.8516C22.7528 31.8516 24.8159 33.9147 24.8159 36.4519V63.9771C24.8159 66.5124 22.7528 68.5755 20.2156 68.5755ZM20.2156 34.0625C18.899 34.0625 17.8262 35.1334 17.8262 36.4519V63.9771C17.8262 65.2937 18.8971 66.3665 20.2156 66.3665C21.5321 66.3665 22.605 65.2956 22.605 63.9771V36.4519C22.605 35.1334 21.5341 34.0625 20.2156 34.0625Z" fill="#2A2C28"/>
<path d="M13.567 65.396H12.8895C10.5385 65.396 8.62695 63.4845 8.62695 61.1334V39.2967C8.62695 36.9457 10.5385 35.0342 12.8895 35.0342H13.567C15.918 35.0342 17.8295 36.9457 17.8295 39.2967C17.8295 39.907 17.3344 40.4022 16.7241 40.4022C16.1138 40.4022 15.6186 39.907 15.6186 39.2967C15.6186 38.1663 14.6993 37.2451 13.567 37.2451H12.8895C11.7591 37.2451 10.8379 38.1644 10.8379 39.2967V61.1354C10.8379 62.2658 11.7572 63.187 12.8895 63.187H13.567C14.6974 63.187 15.6186 62.2677 15.6186 61.1354C15.6186 60.5251 16.1138 60.0299 16.7241 60.0299C17.3344 60.0299 17.8295 60.5251 17.8295 61.1354C17.8276 63.4845 15.9161 65.396 13.567 65.396Z" fill="#2A2C28"/>
<path d="M67.8738 68.5756C66.6475 68.5756 65.4921 68.0977 64.6246 67.2302C63.7552 66.3608 63.2773 65.2054 63.2773 63.9771V36.4519C63.2773 33.9147 65.3405 31.8516 67.8777 31.8516C70.4149 31.8516 72.478 33.9147 72.478 36.4519V63.9771C72.478 66.5143 70.4149 68.5775 67.8777 68.5775C67.8758 68.5756 67.8738 68.5756 67.8738 68.5756ZM67.8777 34.0625C66.5611 34.0625 65.4883 35.1334 65.4883 36.4519V63.9771C65.4883 64.6162 65.7358 65.2169 66.1869 65.668C66.6379 66.119 67.2367 66.3665 67.8738 66.3665H67.8758C69.1943 66.3665 70.2652 65.2956 70.2652 63.9771V36.4519C70.2671 35.1334 69.1943 34.0625 67.8777 34.0625Z" fill="#2A2C28"/>
<path d="M75.2076 65.396H74.5301C72.1791 65.396 70.2676 63.4845 70.2676 61.1334C70.2676 60.5231 70.7627 60.028 71.373 60.028C71.9833 60.028 72.4785 60.5231 72.4785 61.1334C72.4785 62.2639 73.3978 63.1851 74.5301 63.1851H75.2076C76.338 63.1851 77.2592 62.2658 77.2592 61.1334V39.2967C77.2592 38.1663 76.3399 37.2451 75.2076 37.2451H74.5301C73.3997 37.2451 72.4785 38.1644 72.4785 39.2967C72.4785 39.907 71.9833 40.4022 71.373 40.4022C70.7627 40.4022 70.2676 39.907 70.2676 39.2967C70.2676 36.9457 72.1791 35.0342 74.5301 35.0342H75.2076C77.5586 35.0342 79.4702 36.9457 79.4702 39.2967V61.1354C79.4682 63.4845 77.5567 65.396 75.2076 65.396Z" fill="#2A2C28"/>
<path d="M37.6595 47.0732H37.623C37.0127 47.0732 36.5176 46.5781 36.5176 45.9678C36.5176 45.3575 37.0127 44.8623 37.623 44.8623H37.6595C38.2698 44.8623 38.765 45.3575 38.765 45.9678C38.765 46.5781 38.2698 47.0732 37.6595 47.0732Z" fill="#2A2C28"/>
<path d="M37.6615 47.0732H37.6269C37.0166 47.0732 36.5215 46.5781 36.5215 45.9678C36.5215 45.3575 37.0166 44.8623 37.6269 44.8623H37.6615C38.2718 44.8623 38.767 45.3575 38.767 45.9678C38.767 46.5781 38.2718 47.0732 37.6615 47.0732Z" fill="#2A2C28"/>
<path d="M64.3828 47.0732H57.0918C56.4815 47.0732 55.9863 46.5781 55.9863 45.9678C55.9863 45.3575 56.4796 44.8623 57.0918 44.8623H64.3848C64.9951 44.8623 65.4902 45.3575 65.4902 45.9678C65.4902 46.5781 64.9932 47.0732 64.3828 47.0732Z" fill="#2A2C28"/>
<path d="M45.1165 47.0732H45.0801C44.4698 47.0732 43.9746 46.5781 43.9746 45.9678C43.9746 45.3575 44.4698 44.8623 45.0801 44.8623H45.1146C45.7249 44.8623 46.2201 45.3575 46.2201 45.9678C46.2201 46.5781 45.7268 47.0732 45.1165 47.0732Z" fill="#2A2C28"/>
<path d="M31.0058 47.0732H23.7109C23.1006 47.0732 22.6055 46.5781 22.6055 45.9678C22.6055 45.3575 23.1006 44.8623 23.7109 44.8623H31.0058C31.6161 44.8623 32.1113 45.3575 32.1113 45.9678C32.1113 46.5781 31.6161 47.0732 31.0058 47.0732Z" fill="#2A2C28"/>
<path d="M64.3798 55.5674H36.584C35.9737 55.5674 35.4785 55.0722 35.4785 54.4619C35.4785 53.8516 35.9737 53.3564 36.584 53.3564H64.3798C64.9901 53.3564 65.4853 53.8516 65.4853 54.4619C65.4853 55.0722 64.9901 55.5674 64.3798 55.5674Z" fill="#2A2C28"/>
<path d="M29.219 55.5674H23.7109C23.1006 55.5674 22.6055 55.0722 22.6055 54.4619C22.6055 53.8516 23.1006 53.3564 23.7109 53.3564H29.219C29.8294 53.3564 30.3245 53.8516 30.3245 54.4619C30.3245 55.0722 29.8294 55.5674 29.219 55.5674Z" fill="#2A2C28"/>
<path d="M45.1147 47.0732H45.082C44.4717 47.0732 43.9766 46.5781 43.9766 45.9678C43.9766 45.3575 44.4717 44.8623 45.082 44.8623H45.1147C45.725 44.8623 46.2201 45.3575 46.2201 45.9678C46.2201 46.5781 45.725 47.0732 45.1147 47.0732Z" fill="#2A2C28"/>
<path d="M54.358 50.3185C52.245 50.3185 50.5234 48.5989 50.5234 46.484V42.1178C50.5234 40.0028 52.243 38.2832 54.358 38.2832C55.3829 38.2832 56.3444 38.6824 57.0698 39.4059C57.7934 40.1295 58.1926 41.0929 58.1926 42.1178V46.484C58.1926 48.5989 56.473 50.3185 54.358 50.3185ZM54.358 40.496C53.4637 40.496 52.7344 41.2234 52.7344 42.1197V46.4859C52.7344 47.3802 53.4617 48.1095 54.358 48.1095C55.2524 48.1095 55.9817 47.3822 55.9817 46.4859V42.1197C55.9817 41.2253 55.2543 40.496 54.358 40.496Z" fill="#2A2C28"/>
<path d="M48.3721 50.318C45.9654 50.318 44.0078 48.3604 44.0078 45.9537V40.7393C44.0078 38.3326 45.9654 36.375 48.3721 36.375C50.7788 36.375 52.7364 38.3326 52.7364 40.7393V45.9537C52.7383 48.3604 50.7788 50.318 48.3721 50.318ZM48.3721 38.584C47.1841 38.584 46.2187 39.5513 46.2187 40.7374V45.9518C46.2187 47.1398 47.186 48.1052 48.3721 48.1052C49.5582 48.1052 50.5254 47.1379 50.5254 45.9518V40.7374C50.5273 39.5513 49.5601 38.584 48.3721 38.584Z" fill="#2A2C28"/>
<path d="M34.3145 50.3195C31.8809 50.3195 29.9003 48.3389 29.8965 45.9035V40.6045C29.8965 38.1691 31.879 36.1865 34.3145 36.1865C36.75 36.1865 38.7325 38.1691 38.7325 40.6045V45.9015C38.7306 48.3389 36.75 50.3195 34.3145 50.3195ZM34.3145 38.3974C33.0977 38.3974 32.1074 39.3878 32.1074 40.6045V45.9015C32.1093 47.1183 33.0977 48.1086 34.3145 48.1086C35.5313 48.1086 36.5216 47.1183 36.5216 45.9015V40.6045C36.5197 39.3878 35.5313 38.3974 34.3145 38.3974Z" fill="#2A2C28"/>
<path d="M41.3713 50.3184C38.6979 50.3184 36.5215 48.1439 36.5215 45.4686V39.4787C36.5215 36.8053 38.6959 34.6289 41.3713 34.6289C42.6668 34.6289 43.8836 35.1337 44.8009 36.0491C45.7164 36.9646 46.2211 38.1833 46.2211 39.4787V45.4686C46.2211 48.1439 44.0448 50.3184 41.3713 50.3184ZM41.3713 36.8417C39.9166 36.8417 38.7324 38.0259 38.7324 39.4807V45.4705C38.7324 46.9253 39.9166 48.1094 41.3713 48.1094C42.8261 48.1094 44.0102 46.9253 44.0102 45.4705V39.4807C44.0102 38.0259 42.8261 36.8417 41.3713 36.8417Z" fill="#2A2C28"/>
<path d="M9.73426 56.5448H6.80747C5.31049 56.5448 4.0918 55.3261 4.0918 53.8291V46.6014C4.0918 45.1044 5.31049 43.8857 6.80747 43.8857H9.73234C10.3426 43.8857 10.8378 44.3809 10.8378 44.9912C10.8378 45.6015 10.3426 46.0967 9.73234 46.0967H6.80747C6.52919 46.0967 6.30272 46.3231 6.30272 46.6014V53.8291C6.30272 54.1074 6.52919 54.3339 6.80747 54.3339H9.73234C10.3426 54.3339 10.8378 54.829 10.8378 55.4394C10.8378 56.0497 10.3446 56.5448 9.73426 56.5448Z" fill="#2A2C28"/>
<path d="M81.2843 56.5448H78.3613C77.751 56.5448 77.2559 56.0497 77.2559 55.4394C77.2559 54.829 77.751 54.3339 78.3613 54.3339H81.2843C81.5626 54.3339 81.789 54.1074 81.789 53.8291V46.6014C81.789 46.3231 81.5626 46.0967 81.2843 46.0967H78.3613C77.751 46.0967 77.2559 45.6015 77.2559 44.9912C77.2559 44.3809 77.751 43.8857 78.3613 43.8857H81.2843C82.7813 43.8857 83.9999 45.1044 83.9999 46.6014V53.8291C83.9999 55.3261 82.7813 56.5448 81.2843 56.5448Z" fill="#2A2C28"/>
<path d="M33.9473 86.691C33.337 86.691 32.8418 86.1959 32.8418 85.5856V68.7676C32.8418 68.1573 33.337 67.6621 33.9473 67.6621C34.5576 67.6621 35.0527 68.1573 35.0527 68.7676V85.5856C35.0527 86.1959 34.5576 86.691 33.9473 86.691Z" fill="#2A2C28"/>
<path d="M52.5586 86.691C51.9483 86.691 51.4531 86.1959 51.4531 85.5856V68.7676C51.4531 68.1573 51.9483 67.6621 52.5586 67.6621C53.1689 67.6621 53.6641 68.1573 53.6641 68.7676V85.5856C53.6641 86.1959 53.1689 86.691 52.5586 86.691Z" fill="#2A2C28"/>
<path d="M44.9997 30.5003C43.3991 29.7003 36.9994 21.5003 33.9997 17.5003C29.1997 11.1005 31.333 6.50041 32.9997 5.00031C38.5997 -0.19945 43.333 4.50038 44.9997 7.50026C49.3991 -0.499771 55.1666 2.50028 57.5004 5.00031C60.7004 9.00031 57.8338 15.0003 56.0004 17.5003C56.0004 18.7003 48.6666 26.667 44.9997 30.5003Z" fill="#B3D9E8"/>
<path d="M44.859 31.4494C44.5769 31.4494 44.2928 31.342 44.0779 31.1251C37.1169 24.1641 29.9199 16.9671 29.9199 9.59161C29.9199 5.16784 33.5184 1.56934 37.9422 1.56934C41.3411 1.56934 43.3045 3.12005 44.859 5.59007C46.4136 3.12005 48.3769 1.56934 51.7758 1.56934C56.1996 1.56934 59.7981 5.16784 59.7981 9.59161C59.7981 16.9671 52.6011 24.1641 45.6401 31.1232C45.4252 31.342 45.1431 31.4494 44.859 31.4494ZM37.9422 3.78218C34.7371 3.78218 32.1308 6.38846 32.1308 9.59353C32.1308 15.8002 38.4719 22.3831 44.859 28.7817C51.248 22.3831 57.5872 15.8002 57.5872 9.59353C57.5872 6.38846 54.9809 3.78218 51.7758 3.78218C49.0544 3.78218 47.5593 4.93754 45.8474 8.35948C45.6593 8.73373 45.2774 8.96979 44.859 8.96979C44.4406 8.96979 44.0568 8.73373 43.8706 8.35948C42.1587 4.93754 40.6636 3.78218 37.9422 3.78218Z" fill="#2A2C28"/>
</svg>
