<svg width="88" height="88" viewBox="0 0 88 88" fill="none" xmlns="http://www.w3.org/2000/svg">
<path fill-rule="evenodd" clip-rule="evenodd" d="M50.4492 71.2646H57.6766V83.5317H50.4492V71.2646Z" fill="white"/>
<path fill-rule="evenodd" clip-rule="evenodd" d="M63.377 63.1289H70.6043V83.5313H63.377V63.1289Z" fill="#B3D9E8"/>
<path fill-rule="evenodd" clip-rule="evenodd" d="M76.3066 55.668H83.534V83.5315H76.3066V55.668Z" fill="white"/>
<path fill-rule="evenodd" clip-rule="evenodd" d="M44.0024 23.5088C50.8889 23.5088 56.4714 29.0913 56.4714 35.9778C56.4714 43.7225 50.237 45.2972 50.237 51.5966H44.0024H37.7678C37.7678 45.2972 31.5332 43.7225 31.5332 35.9778C31.5334 29.0913 37.1159 23.5088 44.0024 23.5088Z" fill="#B3D9E8"/>
<path fill-rule="evenodd" clip-rule="evenodd" d="M40.8516 57.8955C40.8516 59.6351 42.2616 61.0451 44.0012 61.0451C45.7407 61.0451 47.1508 59.6351 47.1508 57.8955H40.8516Z" fill="#B3D9E8"/>
<path fill-rule="evenodd" clip-rule="evenodd" d="M40.9172 57.8959H47.087C48.8193 57.8959 50.2366 56.4786 50.2366 54.7463V51.5967H37.7676V54.7463C37.7676 56.4786 39.1849 57.8959 40.9172 57.8959Z" fill="#B3D9E8"/>
<path fill-rule="evenodd" clip-rule="evenodd" d="M45.3697 62.2091V83.5312C45.3697 84.2877 44.7564 84.9009 44 84.9009V84.9062H37.5525C36.7931 84.9062 36.1775 84.2906 36.1775 83.5312V78.376C32.2896 77.4941 28.5716 75.9476 25.2239 73.8391L21.5787 77.4843C21.0418 78.0213 20.1712 78.0213 19.6343 77.4843L10.516 68.366C9.97906 67.8291 9.97906 66.9585 10.516 66.4216L14.1613 62.7765C12.0526 59.4289 10.506 55.7105 9.62431 51.8227H4.46875C3.70941 51.8227 3.09375 51.2071 3.09375 50.4477V37.5525C3.09375 36.7931 3.70941 36.1775 4.46875 36.1775H9.62397C10.5059 32.2896 12.0524 28.5715 14.161 25.2239L10.5157 21.5787C9.97872 21.0418 9.97872 20.1712 10.5157 19.6343L19.634 10.516C20.1709 9.97906 21.0415 9.97906 21.5784 10.516L25.2235 14.1611C28.5711 12.0524 32.2896 10.506 36.1773 9.62414V4.46875C36.1773 3.70941 36.7929 3.09375 37.5523 3.09375H50.4475C51.2069 3.09375 51.8225 3.70941 51.8225 4.46875V9.62397C55.7104 10.5059 59.4284 12.0522 62.7763 14.161L66.4214 10.5158C66.9584 9.97889 67.8289 9.97889 68.3659 10.5158L77.4842 19.6341C78.0211 20.1711 78.0211 21.0416 77.4842 21.5786L73.8391 25.2237C76.1453 28.8848 77.7877 33.0088 78.6103 37.2946C78.7526 38.0392 78.2645 38.7583 77.5199 38.9006C76.7754 39.043 76.0564 38.5548 75.9139 37.8103C75.4951 35.6364 74.8626 33.5442 74.0393 31.5566C73.2115 29.5585 72.1823 27.6514 70.9753 25.86C70.5739 25.3217 70.6176 24.5563 71.1064 24.0675L74.5676 20.6064L67.3936 13.4324L63.9325 16.8936L63.9317 16.8927C63.4762 17.3492 62.7467 17.4341 62.1923 17.0601C60.3855 15.8379 58.4605 14.7965 56.4427 13.9607C54.479 13.1472 52.4131 12.5201 50.2673 12.1012C49.5932 12.0129 49.0725 11.4362 49.0725 10.7379V5.84375H38.9273V10.7379H38.925C38.9257 11.384 38.468 11.9603 37.8101 12.0861C35.6362 12.5049 33.544 13.1374 31.5564 13.9607C29.5584 14.7885 27.6513 15.8177 25.8598 17.0247C25.3215 17.4261 24.5561 17.3824 24.0673 16.8936L20.6063 13.4324L13.4322 20.6064L16.8934 24.0675L16.8926 24.0683C17.3491 24.5238 17.434 25.2533 17.06 25.8077C15.8378 27.6145 14.7964 29.5395 13.9605 31.5573C13.1471 33.521 12.5199 35.5869 12.101 37.7327C12.0127 38.407 11.436 38.9275 10.7377 38.9275H5.84375V49.0727H10.7379V49.075C11.384 49.0743 11.9603 49.5318 12.0861 50.1899C12.5049 52.3638 13.1374 54.456 13.9607 56.4436C14.7885 58.4416 15.8177 60.3488 17.0247 62.1402C17.4261 62.6785 17.3824 63.4439 16.8936 63.9327L13.4324 67.3937L20.6064 74.5678L24.0675 71.1066L24.0683 71.1074C24.5238 70.6509 25.2533 70.566 25.8077 70.94C27.6145 72.1622 29.5395 73.2036 31.5571 74.0395C33.5208 74.8529 35.5867 75.4801 37.7326 75.899C38.4068 75.9873 38.9273 76.5639 38.9273 77.2621V82.1562H42.6303V62.2091C41.1716 61.7463 40.0357 60.5655 39.6333 59.085C37.7415 58.5234 36.3904 56.771 36.3904 54.746V51.5964C36.3552 45.8939 30.156 44.2178 30.156 35.9776C30.156 28.3319 36.3545 22.1335 44 22.1335C51.6457 22.1335 57.844 28.332 57.844 35.9776C57.844 44.2131 51.6096 45.9547 51.6096 51.5964V54.746C51.6096 56.771 50.2585 58.5234 48.3667 59.085C47.9643 60.5655 46.8282 61.7463 45.3697 62.2091ZM45.375 43.2819V50.2214H48.9473C49.7056 44.4355 55.0942 42.6833 55.0942 35.9776C55.0942 29.8502 50.1275 24.8835 44.0002 24.8835C37.8728 24.8835 32.9062 29.8502 32.9062 35.9776C32.9062 42.6833 38.2948 44.4355 39.0531 50.2214H42.625V43.2819L39.901 40.558C39.364 40.0211 39.364 39.1505 39.901 38.6136C40.4379 38.0767 41.3084 38.0767 41.8454 38.6136L44 40.7682L46.1546 38.6136C46.6916 38.0767 47.5621 38.0767 48.099 38.6136C48.636 39.1505 48.636 40.0211 48.099 40.558L45.375 43.2819ZM40.9152 56.5206H47.085C48.0583 56.5206 48.8596 55.7191 48.8596 54.746V52.9714H39.1404V54.746C39.1404 55.7193 39.9419 56.5206 40.9152 56.5206ZM23.7215 38.9275H25.2802C26.0396 38.9275 26.6552 38.3118 26.6552 37.5525C26.6552 36.7931 26.0396 36.1775 25.2802 36.1775H23.7215C22.9622 36.1775 22.3465 36.7931 22.3465 37.5525C22.3465 38.3118 22.9622 38.9275 23.7215 38.9275ZM64.2785 36.1775H62.7198C61.9604 36.1775 61.3448 36.7931 61.3448 37.5525C61.3448 38.3118 61.9604 38.9275 62.7198 38.9275H64.2785C65.0378 38.9275 65.6535 38.3118 65.6535 37.5525C65.6535 36.7931 65.0378 36.1775 64.2785 36.1775ZM52.9523 19.3086L52.173 20.6585C51.7962 21.314 52.0224 22.1509 52.678 22.5277C53.3335 22.9044 54.1704 22.6782 54.5471 22.0227L55.3264 20.6728C55.7031 20.0173 55.477 19.1804 54.8214 18.8036C54.1659 18.4269 53.3289 18.6531 52.9523 19.3086ZM32.6738 20.6781L33.4532 22.028C33.8329 22.6835 34.6722 22.9072 35.3277 22.5275C35.9832 22.1478 36.2068 21.3085 35.8272 20.653L35.0477 19.3031C34.668 18.6476 33.8288 18.424 33.1732 18.8036C32.5177 19.1833 32.2941 20.0226 32.6738 20.6781ZM42.8778 59.2706C43.5303 59.8037 44.4697 59.8036 45.1222 59.2706H42.8778ZM54.7487 62.1914L79.7882 47.7348L78.6601 49.6885C78.2834 50.3441 78.5096 51.1809 79.1651 51.5577C79.8206 51.9344 80.6575 51.7082 81.0342 51.0527L84.6723 44.7514C85.2856 43.7638 84.5965 42.5874 83.4515 42.6202H76.1633C75.4069 42.6202 74.7936 43.2334 74.7936 43.9899C74.7936 44.7463 75.4069 45.3595 76.1633 45.3595H78.4154L53.3737 59.8173C52.7182 60.197 52.4946 61.0362 52.8742 61.6918C53.2539 62.3475 54.0932 62.5711 54.7487 62.1914ZM77.6789 57.0427V82.1562H82.1562V57.0427H77.6789ZM74.9289 83.5312C74.9289 84.2906 75.5446 84.9062 76.3039 84.9062H83.5312C84.2906 84.9062 84.9062 84.2906 84.9062 83.5312V55.6677C84.9062 54.9084 84.2906 54.2927 83.5312 54.2927H76.3039C75.5446 54.2927 74.9289 54.9084 74.9289 55.6677V83.5312ZM63.3758 61.7538C62.6165 61.7538 62.0008 62.3695 62.0008 63.1288V83.5312C62.0008 84.2906 62.6165 84.9062 63.3758 84.9062H70.6033C71.3627 84.9062 71.9783 84.2906 71.9783 83.5312V63.1288C71.9783 62.3695 71.3627 61.7538 70.6033 61.7538H63.3758ZM69.2282 64.5038H64.7506V82.1562H69.2282V64.5038ZM50.4475 69.8894C49.6882 69.8894 49.0725 70.505 49.0725 71.2644V83.5312C49.0725 84.2906 49.6882 84.9062 50.4475 84.9062H57.6749C58.4342 84.9062 59.0499 84.2906 59.0499 83.5312V71.2642C59.0499 70.5048 58.4342 69.8892 57.6749 69.8892H50.4475V69.8894ZM56.3001 72.6392H51.8227V82.1562H56.3001V72.6392Z" fill="#2A2C28"/>
</svg>
