<svg width="80" height="80" viewBox="0 0 80 80" fill="none" xmlns="http://www.w3.org/2000/svg">
<path d="M75.9684 43.5943C74.6639 43.5943 73.3594 43.3528 72.3169 42.6386C71.0227 41.7496 70.3653 40.3263 70.3653 38.3994V28.4566H72.3991V38.3994C72.3991 39.6326 72.7483 40.4702 73.4622 40.9583C75.0645 42.0579 78.2487 41.4002 79.9897 40.8504C79.9949 40.5575 80 40.2646 80 39.9717C80.0051 18.9196 63.7607 1.66485 43.1303 0.0667994C41.456 0.549811 39.1757 1.40793 36.9211 2.88779C31.1844 6.64911 28.2776 12.4658 28.2776 20.1837V32.2127C28.2776 33.4973 27.7846 34.5867 26.8498 35.3677C25.4118 36.5701 23.1572 36.8681 21.2673 36.8681C19.6238 36.8681 18.2628 36.642 17.9701 36.5907L18.3296 34.5867C19.7727 34.8436 23.8762 35.2033 25.5454 33.8056C26.023 33.4048 26.2438 32.9013 26.2438 32.2127V20.1837C26.2438 9.61911 31.4823 3.99255 35.8785 1.13559C36.5308 0.709101 37.183 0.333997 37.825 0C21.9246 0.852977 8.49457 10.9962 2.85035 25.1012C3.24581 26.0569 4.14457 27.7218 5.65963 27.7218H19.4081V29.7566H5.65963C3.92887 29.7566 2.7271 28.734 1.93619 27.6344C0.677921 31.519 0 35.6657 0 39.9666C0 57.2368 10.9289 71.9532 26.249 77.5644V39.314H28.2827V45.069C32.2938 44.6785 38.205 41.0148 39.6431 37.8907C40.7627 35.4602 38.7597 33.9598 38.051 33.523H30.0957V31.4882H38.5697L38.7905 31.6013C40.4596 32.4748 43.1765 35.0902 41.4868 38.7437C39.7252 42.5615 33.0333 46.7339 28.2776 47.109V78.2529C31.9856 79.3885 35.9248 80 40.0026 80C61.0798 80 78.3463 63.6958 79.8973 43.0034C78.8496 43.2912 77.4167 43.5892 75.9735 43.5892L75.9684 43.5943ZM19.403 46.9754H8.30969C4.84817 46.9754 3.93401 42.6591 3.89806 42.4793L3.87751 42.3765V31.0103H5.91128V42.1607C6.0294 42.6386 6.68678 44.9406 8.30455 44.9406H19.3978V46.9754H19.403ZM53.0423 31.4882H61.5163L61.7372 31.6013C63.4063 32.4748 66.118 35.0902 64.4335 38.7437C62.5538 42.8236 57.2177 45.6959 54.203 47.0473L53.371 45.1872C55.5896 44.1955 60.9206 41.4927 62.5846 37.8855C63.7042 35.4551 61.7012 33.9547 60.9925 33.5179H53.0372V31.4831L53.0423 31.4882ZM42.7143 42.0939L42.7862 41.0765C43.8493 41.1484 46.8742 41.0816 48.1068 39.9358C48.4458 39.6172 48.605 39.2524 48.605 38.7796V27.9787H50.6388V38.7796C50.6388 38.9646 50.6234 39.1393 50.5977 39.3192H50.6388V49.3185H48.605V42.0682C46.9667 42.9931 44.7429 43.137 43.5154 43.137C43.0738 43.137 42.7605 43.1165 42.6526 43.1113L42.7245 42.0939H42.7143ZM74.6023 54.9297C74.6023 58.5214 71.68 61.4452 68.0901 61.4452H64.4694C64.3564 61.4452 64.2434 61.4452 64.1304 61.4349C58.8406 61.4092 42.781 61.3476 37.8507 61.4452C37.8147 61.4452 37.7788 61.4452 37.7428 61.4452C36.3408 61.4452 35.2006 60.9108 34.4405 59.8934C32.0729 56.7333 34.1426 49.7913 34.3892 49.0102L36.3305 49.6166C35.5293 52.1858 34.7538 56.9131 36.0686 58.6704C36.3099 58.9942 36.7568 59.4155 37.8096 59.4052C41.7487 59.3282 52.729 59.3539 59.724 59.3795C58.63 58.2131 57.9624 56.6459 57.9624 54.9297V54.1229C57.9624 50.5312 60.8846 47.6074 64.4745 47.6074H68.0953C71.6852 47.6074 74.6074 50.5312 74.6074 54.1229V54.9297H74.6023Z" fill="#176953"/>
<path d="M68.0819 49.6363H64.4611C61.9908 49.6363 59.9827 51.6454 59.9827 54.117V54.9237C59.9827 57.3388 61.9035 59.3068 64.2968 59.3942C65.2418 59.3942 65.8016 59.3993 65.8375 59.3993H68.0819C70.5522 59.3993 72.5602 57.3902 72.5602 54.9186V54.1119C72.5602 51.6403 70.5522 49.6312 68.0819 49.6312V49.6363Z" fill="#176953"/>
</svg>
