<svg width="48" height="48" viewBox="0 0 48 48" fill="none" xmlns="http://www.w3.org/2000/svg">
<path d="M18.6647 2.6582C15.2679 2.6582 12.5166 5.12491 11.8284 8.32789C7.68103 9.06773 4.43714 12.5286 4.43714 16.8858C4.43714 17.3233 4.48516 17.7128 4.54918 18.1094C3.40208 19.7953 2.65869 21.7818 2.65869 23.9996C2.65869 27.1954 4.2504 29.8845 6.49302 31.8354C6.33296 32.4685 6.21559 33.0999 6.21559 33.781C6.21559 38.1791 9.8205 41.784 14.2186 41.784H14.3306C15.3657 43.7919 17.1584 45.3409 19.5539 45.3409C20.3838 45.3391 21.2048 45.1708 21.9685 44.8461C22.7322 44.5213 23.423 44.0468 24.0001 43.4505C24.5771 44.0468 25.268 44.5213 26.0316 44.8461C26.7953 45.1708 27.6163 45.3391 28.4462 45.3409C30.8435 45.3409 32.6344 43.7919 33.6713 41.784H33.7815C37.9573 41.784 41.3808 38.533 41.7294 34.448H41.7845C41.7845 34.3359 41.7365 34.2256 41.7294 34.1136C41.7365 34.0033 41.7845 33.8913 41.7845 33.781C41.7845 33.1212 41.548 32.5575 41.3951 31.9475C43.7017 29.9876 45.3414 27.2524 45.3414 23.9996C45.3414 21.7836 44.598 19.7971 43.4509 18.1076C43.515 17.7128 43.563 17.3251 43.563 16.8858C43.563 12.5286 40.3191 9.06951 36.1718 8.32611C35.4835 5.12669 32.7322 2.6582 29.3354 2.6582C27.2013 2.6582 25.3054 3.65236 24.0001 5.1587C22.6947 3.65413 20.7989 2.6582 18.6647 2.6582ZM18.6647 6.2151C20.6512 6.2151 22.2216 7.78547 22.2216 9.77199V13.3289C22.2216 15.6822 20.7308 17.6594 18.6335 18.3763C17.704 18.6939 16.8863 19.4605 16.8863 20.4427C16.8863 21.4249 17.6909 22.2404 18.6523 22.039C19.9717 21.7627 21.1778 21.1841 22.2216 20.3875V39.1164C22.2216 40.6103 21.0478 41.784 19.5539 41.784C18.9317 41.7928 18.3268 41.5792 17.8479 41.1818C17.369 40.7844 17.0476 40.2293 16.9414 39.6161L16.6088 37.8946L14.8855 38.172C14.2523 38.272 13.6049 38.2332 12.9882 38.0582C12.3715 37.8833 11.8001 37.5763 11.3138 37.1587C10.8275 36.741 10.4377 36.2226 10.1716 35.6394C9.90545 35.0562 9.76927 34.4221 9.77248 33.781C9.77248 33.2315 9.8614 32.7175 10.0499 32.2249C10.0641 32.184 10.0926 32.1538 10.1051 32.1129C10.3779 31.4349 10.8158 30.8359 11.3788 30.37C11.4763 30.2894 11.5769 30.2132 11.6805 30.1416C12.4971 29.5769 13.1658 28.6522 12.9652 27.6798C12.7671 26.7194 11.8183 26.0804 10.9224 26.4791C9.79067 26.9828 8.78505 27.7485 7.99403 28.7231C6.8377 27.4226 6.20412 25.7398 6.21559 23.9996C6.21255 22.4003 6.76229 20.8491 7.77173 19.6086L8.32838 18.9417L8.16121 18.0524C8.06043 17.6714 8.00433 17.2798 7.99403 16.8858C7.99403 13.9193 10.3629 11.5504 13.3294 11.5504H15.1078V9.77199C15.1078 7.78547 16.6782 6.2151 18.6647 6.2151ZM29.3354 6.2151C31.3219 6.2151 32.8923 7.78547 32.8923 9.77199V11.5504H34.6707C37.6372 11.5504 40.0061 13.9193 40.0061 16.8858C40.0061 17.2681 39.935 17.6363 39.8389 18.0524L39.6735 18.9417L40.2284 19.6086C41.2378 20.8491 41.7876 22.4003 41.7845 23.9996C41.7845 26.1337 40.874 28.0366 39.3943 29.3349C38.1796 28.259 36.6306 27.5565 34.8931 27.5565C33.8421 27.5565 32.8558 27.7902 31.972 28.2132C31.0948 28.633 31.0058 29.7697 31.6299 30.5156C32.2635 31.2727 33.4155 31.3005 34.3913 31.1506C34.5564 31.1252 34.7241 31.1126 34.8931 31.1134C36.6093 31.1134 37.9769 32.3992 38.1725 34.0585C38.0267 36.4007 36.1575 38.2272 33.7815 38.2272C33.6215 38.2272 33.4258 38.22 33.1146 38.172L31.3913 37.8928L31.0587 39.6179C30.9521 40.2307 30.6306 40.7855 30.1517 41.1825C29.6729 41.5795 29.0681 41.7928 28.4462 41.784C26.9523 41.784 25.7785 40.6103 25.7785 39.1164V20.3875C26.8332 21.2054 28.0546 21.766 29.3459 22.0361C30.3078 22.2372 31.1138 21.4232 31.1138 20.4405C31.1138 19.4595 30.2971 18.6939 29.3687 18.377C27.2703 17.6607 25.7785 15.683 25.7785 13.3289V9.77199C25.7785 7.78547 27.3489 6.2151 29.3354 6.2151Z" fill="#176953"/>
</svg>
