<svg width="48" height="48" viewBox="0 0 48 48" fill="none" xmlns="http://www.w3.org/2000/svg">
<path d="M35.2385 35.6412C35.2385 36.1042 35.224 36.4957 35.247 36.8848C35.2543 37 35.3415 37.1321 35.43 37.2169C36.9403 38.6545 37.4058 40.5078 36.7076 42.3357C36.0337 44.0981 34.4046 45.2642 32.4167 45.2739C26.8058 45.2994 21.1961 45.2994 15.5852 45.2739C13.5815 45.2654 11.9452 44.0909 11.2725 42.3018C10.59 40.4872 11.0603 38.6387 12.5525 37.223C12.6494 37.1309 12.7355 36.9794 12.744 36.8497C12.7694 36.4751 12.7525 36.0981 12.7525 35.646C10.8143 35.7733 9.13064 35.2884 7.9173 33.703C7.21306 32.7818 6.88215 31.7333 6.927 30.5709C6.98397 29.0763 7.61185 27.8642 8.75609 26.92C9.90761 25.9697 11.2773 25.7539 12.7525 25.8557C12.7525 25.3357 12.7682 24.8836 12.7428 24.4339C12.7355 24.3078 12.6252 24.166 12.5258 24.0715C10.4349 22.0909 10.4434 19.1309 12.5428 17.1769C12.6494 17.0775 12.7343 16.9078 12.7452 16.7636C12.7743 16.4048 12.7549 16.0412 12.7549 15.6072C12.4664 15.6072 12.2022 15.6121 11.9367 15.6072C9.37306 15.5575 7.43003 13.9369 6.98276 11.4775C6.47852 8.70662 8.63124 5.96723 11.4422 5.81086C11.8615 5.78783 12.2834 5.80723 12.7537 5.80723C12.7537 5.22299 12.75 4.71389 12.7537 4.20359C12.7622 3.19511 13.2882 2.66905 14.3028 2.66783C20.7452 2.66541 27.1876 2.66541 33.63 2.66783C34.7318 2.66783 35.2361 3.18056 35.2385 4.28117C35.2385 4.76238 35.2385 5.2448 35.2385 5.79268C37.1585 5.64844 38.8155 6.13086 40.0288 7.66905C40.8106 8.66056 41.1525 9.80117 41.0555 11.0593C40.9428 12.509 40.2906 13.68 39.1525 14.5806C38.0191 15.4763 36.6918 15.6666 35.2422 15.6024C35.2422 16.0545 35.2264 16.4727 35.2531 16.8884C35.2603 16.9975 35.3828 17.1139 35.4761 17.2012C37.5294 19.1042 37.5415 22.12 35.5161 24.0412C35.3658 24.183 35.2749 24.4387 35.2506 24.6521C35.2082 25.0242 35.2385 25.4036 35.2385 25.8521C37.2022 25.7078 38.8931 26.2084 40.1064 27.8266C40.8543 28.8254 41.1682 29.96 41.0506 31.1963C40.9161 32.6242 40.2567 33.7781 39.1234 34.6581C37.9961 35.5333 36.6822 35.7248 35.2397 35.6436L35.2385 35.6412ZM32.5682 36.0836C32.5682 35.52 32.5585 34.9927 32.5706 34.4666C32.5912 33.5006 33.11 32.989 34.0725 32.9794C34.7828 32.9721 35.4943 32.989 36.2046 32.9745C37.4494 32.949 38.4203 31.9624 38.4191 30.7418C38.4191 29.52 37.4397 28.5297 36.2009 28.5103C35.5355 28.4994 34.87 28.509 34.2046 28.5078C33.0676 28.5066 32.5743 28.0181 32.5682 26.8812C32.5646 26.343 32.5682 25.8048 32.5682 25.2533H15.4834C15.4603 25.309 15.4385 25.3357 15.4385 25.3624C15.4325 25.9212 15.4337 26.4812 15.4215 27.04C15.4034 27.9672 14.87 28.4969 13.9452 28.5066C13.2349 28.5139 12.5234 28.5006 11.8131 28.5103C10.5682 28.526 9.58639 29.4981 9.57185 30.7175C9.5573 31.9539 10.5391 32.949 11.807 32.9769C12.1852 32.9854 12.5634 32.9927 12.9403 32.9769C15.0712 32.886 15.5318 33.2509 15.4252 35.4412C15.4155 35.6472 15.424 35.8533 15.424 36.0848H32.5682V36.0836ZM32.5682 5.37086H15.4228C15.4228 5.95026 15.4373 6.50541 15.4191 7.06056C15.3912 7.91026 14.8494 8.43632 14.0046 8.44602C13.2943 8.4545 12.5828 8.44117 11.8725 8.44965C10.5815 8.46541 9.59609 9.41329 9.57306 10.6497C9.55003 11.8848 10.5076 12.8775 11.7937 12.9224C12.4882 12.9466 13.1852 12.9272 13.8809 12.9333C14.904 12.9418 15.4143 13.4484 15.424 14.4678C15.4288 14.9781 15.424 15.4897 15.424 16.0278H32.5682C32.5682 15.4909 32.5622 14.9806 32.5694 14.4703C32.584 13.4424 33.0906 12.9381 34.1088 12.9321C34.8349 12.9272 35.5609 12.9478 36.2858 12.9163C37.5088 12.8618 38.4397 11.8545 38.4179 10.6521C38.3961 9.44723 37.4325 8.48117 36.2106 8.45329C35.5452 8.43874 34.8797 8.44844 34.2143 8.44844C33.0518 8.44844 32.5731 7.96602 32.5682 6.79026C32.5658 6.32602 32.5682 5.86177 32.5682 5.37329V5.37086ZM23.9997 18.7078C21.1876 18.7078 18.3767 18.703 15.5646 18.7103C14.5985 18.7127 13.79 19.4133 13.6567 20.3212C13.5137 21.2884 14.0712 22.1987 15.0009 22.4642C15.2712 22.5406 15.5682 22.549 15.8518 22.549C21.2785 22.5539 26.7052 22.5527 32.1318 22.5515C32.2834 22.5515 32.4349 22.5551 32.5852 22.5406C33.4046 22.4654 33.967 22.0303 34.2446 21.2666C34.704 20.0024 33.7706 18.7139 32.39 18.709C29.5937 18.6994 26.7973 18.7066 24.0009 18.7066L23.9997 18.7078ZM23.9937 38.766C21.167 38.766 18.3403 38.7587 15.5149 38.7709C14.5791 38.7745 13.784 39.4897 13.6567 40.3818C13.5173 41.3515 14.0737 42.2533 15.0082 42.5187C15.2785 42.5951 15.5743 42.6024 15.8591 42.6024C21.2858 42.6072 26.7112 42.606 32.1379 42.606C32.2737 42.606 32.4106 42.606 32.5464 42.5987C33.3306 42.5551 33.9973 42.0533 34.2518 41.3175C34.687 40.0642 33.7828 38.7757 32.43 38.7697C29.6191 38.7551 26.807 38.7648 23.9961 38.766H23.9937Z" fill="#F9F2E0"/>
<path d="M24.0022 32.063C24.2434 32.063 24.4858 32.0727 24.727 32.0606C25.4288 32.0266 25.9755 31.4642 25.9912 30.7697C26.007 30.0618 25.4591 29.4569 24.7379 29.4218C24.2409 29.3987 23.7415 29.3975 23.2446 29.4218C22.544 29.4569 22.0058 30.0424 22.0022 30.7345C21.9985 31.446 22.5549 32.0266 23.2785 32.0594C23.5197 32.0703 23.7609 32.0606 24.0034 32.0606L24.0022 32.063Z" fill="white"/>
<path d="M23.9767 12.0097C24.2337 12.0097 24.4906 12.0242 24.7464 12.0072C25.4531 11.96 25.9864 11.3927 25.9912 10.6993C25.9961 10.0109 25.4603 9.41086 24.7634 9.37208C24.2518 9.34299 23.7355 9.34299 23.224 9.37208C22.5282 9.41208 21.9949 10.0145 22.0022 10.7054C22.0094 11.3987 22.5452 11.9636 23.2518 12.0097C23.4918 12.0254 23.7343 12.0121 23.9767 12.0121V12.0097Z" fill="white"/>
<path d="M24.0022 32.063C23.7609 32.063 23.5185 32.0727 23.2773 32.0618C22.5537 32.029 21.9985 31.4484 22.0009 30.7369C22.0046 30.0448 22.5415 29.4593 23.2434 29.4242C23.7403 29.3987 24.2397 29.4 24.7367 29.4242C25.4579 29.4581 26.0058 30.063 25.99 30.7721C25.9743 31.4654 25.4288 32.0278 24.7258 32.063C24.4846 32.0751 24.2434 32.0654 24.0009 32.0654L24.0022 32.063Z" fill="#F9F2E0"/>
<path d="M23.9767 12.0097C23.7355 12.0097 23.4931 12.023 23.2518 12.0072C22.5452 11.9612 22.0094 11.3963 22.0022 10.703C21.9949 10.0133 22.527 9.41086 23.224 9.36965C23.7355 9.33935 24.2518 9.34056 24.7634 9.36965C25.4603 9.40844 25.9961 10.0084 25.9912 10.6969C25.9864 11.3903 25.4531 11.9587 24.7464 12.0048C24.4906 12.0218 24.2337 12.0072 23.9767 12.0072V12.0097Z" fill="#F9F2E0"/>
</svg>
