<svg width="48" height="48" viewBox="0 0 48 48" fill="none" xmlns="http://www.w3.org/2000/svg">
<path d="M23.9998 41.5452C28.6529 41.5452 33.1154 39.6968 36.4056 36.4065C39.6958 33.1163 41.5442 28.6539 41.5442 24.0008C41.5442 19.3477 39.6958 14.8853 36.4056 11.595C33.1154 8.30483 28.6529 6.45641 23.9998 6.45641C23.3718 6.45641 22.7695 6.7059 22.3254 7.14999C21.8813 7.59409 21.6318 8.19641 21.6318 8.82446C21.6318 9.4525 21.8813 10.0548 22.3254 10.4989C22.7695 10.943 23.3718 11.1925 23.9998 11.1925C24.5218 11.1925 25.0224 11.3999 25.3914 11.7689C25.7605 12.138 25.9679 12.6386 25.9679 13.1606C25.9679 13.6825 25.7605 14.1831 25.3914 14.5522C25.0224 14.9213 24.5218 15.1286 23.9998 15.1286C22.3279 15.1286 20.7244 14.4644 19.5421 13.2822C18.3599 12.0999 17.6957 10.4964 17.6957 8.82446V8.81728L17.6952 8.81012C17.6736 8.50931 17.6736 8.20734 17.6952 7.90653L17.718 7.58811L17.4215 7.70644C13.6276 9.22069 10.4809 12.0114 8.5242 15.5973C6.5675 19.1832 5.92343 23.3394 6.70306 27.3493C7.48269 31.3593 9.63716 34.9714 12.7949 37.5629C15.9524 40.1543 19.9152 41.5626 23.9998 41.5452ZM23.9998 41.5452V41.3452L24.0007 41.5452C24.0004 41.5452 24.0001 41.5452 23.9998 41.5452ZM29.3188 28.6395L29.32 28.6402C29.7702 28.8998 30.0994 29.327 30.2358 29.8284C30.3722 30.3297 30.3048 30.8645 30.0485 31.3163C29.4372 32.3801 28.5562 33.2638 27.4943 33.8784C26.4322 34.493 25.2269 34.8166 23.9998 34.8166C22.7728 34.8166 21.5674 34.493 20.5054 33.8784C19.4435 33.2638 18.5624 32.38 17.9511 31.3162C17.6948 30.8644 17.6275 30.3296 17.7639 29.8284C17.9003 29.327 18.2295 28.8998 18.6796 28.6402L18.6808 28.6395C18.9043 28.5086 19.1514 28.423 19.4079 28.3878C19.6645 28.3525 19.9255 28.3683 20.176 28.4341C20.4265 28.4999 20.6615 28.6145 20.8676 28.7714C21.0735 28.928 21.2465 29.1238 21.3767 29.3474C21.6402 29.8104 22.0217 30.1953 22.4822 30.4632C22.943 30.7313 23.4667 30.8725 23.9998 30.8725C24.533 30.8725 25.0566 30.7313 25.5175 30.4632C25.9781 30.1953 26.3595 29.8102 26.6231 29.3472C26.7532 29.1237 26.9262 28.928 27.132 28.7714C27.3381 28.6145 27.5732 28.4999 27.8236 28.4341C28.0741 28.3683 28.3351 28.3525 28.5917 28.3878C28.8483 28.423 29.0954 28.5086 29.3188 28.6395ZM19.1321 18.5713C19.3483 18.895 19.4637 19.2755 19.4637 19.6647C19.4637 20.1867 19.2564 20.6872 18.8873 21.0563C18.5182 21.4254 18.0176 21.6327 17.4957 21.6327C17.1064 21.6327 16.7259 21.5173 16.4023 21.3011C16.0786 21.0848 15.8264 20.7775 15.6774 20.4178C15.5285 20.0582 15.4895 19.6625 15.5654 19.2808C15.6414 18.899 15.8288 18.5483 16.1041 18.2731C16.3793 17.9978 16.73 17.8104 17.1117 17.7345C17.4935 17.6585 17.8892 17.6975 18.2488 17.8465C18.6084 17.9954 18.9158 18.2477 19.1321 18.5713ZM29.4106 18.0283C29.7342 17.8121 30.1147 17.6966 30.504 17.6966C31.0259 17.6966 31.5265 17.904 31.8956 18.2731C32.2647 18.6422 32.472 19.1427 32.472 19.6647C32.472 20.0539 32.3566 20.4344 32.1403 20.7581C31.9241 21.0817 31.6167 21.334 31.2571 21.4829C30.8975 21.6319 30.5018 21.6709 30.12 21.5949C29.7383 21.519 29.3876 21.3316 29.1124 21.0563C28.8371 20.7811 28.6497 20.4304 28.5737 20.0486C28.4978 19.6669 28.5368 19.2712 28.6857 18.9116C28.8347 18.5519 29.0869 18.2446 29.4106 18.0283ZM12.0659 6.14043C15.5984 3.78012 19.7514 2.52031 23.9998 2.52031C26.8207 2.52031 29.6139 3.07592 32.2201 4.15542C34.8262 5.23491 37.1942 6.81715 39.1888 8.8118C41.1835 10.8064 42.7657 13.1744 43.8452 15.7806C44.9247 18.3867 45.4803 21.1799 45.4803 24.0008C45.4803 28.2492 44.2205 32.4023 41.8602 35.9347C39.4999 39.4672 36.1451 42.2204 32.2201 43.8462C28.295 45.472 23.976 45.8974 19.8092 45.0685C15.6424 44.2397 11.8149 42.1939 8.81083 39.1898C5.80673 36.1857 3.76092 32.3582 2.93209 28.1914C2.10326 24.0246 2.52864 19.7056 4.15445 15.7806C5.78026 11.8555 8.53346 8.50073 12.0659 6.14043Z" fill="#176953" stroke="white" stroke-width="0.4"/>
</svg>
