<svg width="48" height="48" viewBox="0 0 48 48" fill="none" xmlns="http://www.w3.org/2000/svg">
<path d="M19.6481 1.8457H28.2847C29.0693 2.18378 29.367 2.77686 29.3324 3.62724C29.2874 4.73263 29.3208 5.84147 29.3208 6.94916V7.35532C30.4931 7.41763 31.092 7.83301 31.1139 8.63609C31.122 8.94416 31.0135 9.29493 30.8508 9.56032C30.5162 10.1084 29.9277 10.173 29.3208 10.1384C29.3208 11.2311 29.3116 12.2649 29.3347 13.2988C29.337 13.4119 29.5031 13.5826 29.6277 13.6219C30.3893 13.8688 31.257 13.5745 31.7866 12.9111C31.9747 12.6757 32.1362 12.4184 32.322 12.1807C33.8751 10.203 35.9185 9.19224 38.4235 9.11724C39.7389 9.07801 40.9804 9.47032 42.2116 9.86032C43.9735 10.4188 45.147 11.6107 45.7747 13.3403C45.9051 13.7003 45.9777 14.0811 46.077 14.4526V20.7572C46.0516 20.868 46.0124 20.9776 46.0031 21.0896C45.7931 23.5057 45.0593 25.7522 43.8662 27.8603C42.8093 29.7284 41.3485 31.248 39.7781 32.6765C38.6104 33.7392 38.2839 35.0095 38.787 36.5084C39.1435 37.5711 39.4851 38.6384 39.8093 39.7115C40.6839 42.5996 38.8677 45.5776 35.8874 45.9769C34.047 46.2238 32.1824 46.1315 30.3466 45.7657C28.1208 45.3226 26.1339 44.3476 24.3074 43.0276C24.0558 42.8453 23.8793 42.8465 23.6266 43.0276C22.3839 43.9195 21.0627 44.6672 19.6216 45.2015C17.2608 46.0772 14.8066 46.2053 12.3443 46.0288C9.48967 45.8234 7.45428 43.1534 8.00351 40.3438C8.26082 39.0261 8.76159 37.7557 9.17121 36.4692C9.63851 35.0015 9.32005 33.7542 8.1939 32.703C7.63659 32.1826 7.07467 31.6645 6.54621 31.1153C3.83236 28.3022 2.23313 24.9526 1.95044 21.0492C1.80505 19.0438 1.84544 17.0222 1.87082 15.0088C1.8939 13.1995 2.69351 11.7515 4.13582 10.6553C5.08313 9.93532 6.21736 9.70686 7.32621 9.41263C9.7389 8.7734 11.9704 9.17724 14.0104 10.6149C14.8204 11.1861 15.4551 11.9245 16.0158 12.7369C16.5651 13.533 17.4189 13.8757 18.2612 13.6426C18.3951 13.6057 18.5935 13.4534 18.5958 13.3495C18.6201 12.2892 18.6108 11.2288 18.6108 10.1742C17.3439 10.0334 16.7762 9.60532 16.8154 8.76878C16.8293 8.4607 16.9677 8.12263 17.1454 7.86532C17.4812 7.37955 18.0374 7.35301 18.612 7.36224C18.612 6.09532 18.6443 4.85955 18.6004 3.62724C18.5704 2.77916 18.8566 2.18032 19.6481 1.84686V1.8457ZM25.3493 36.3365C25.3493 37.6519 25.3458 38.9442 25.3562 40.2365C25.3562 40.3299 25.4312 40.4569 25.5097 40.5099C26.8227 41.3938 28.1451 42.2465 29.6774 42.7346C31.4254 43.2919 33.2139 43.3149 35.0151 43.293C36.6304 43.2734 37.5939 41.9545 37.1116 40.4061C36.7781 39.3365 36.4135 38.2761 36.0927 37.2019C35.3589 34.7453 35.9047 32.6038 37.7254 30.7945C38.0924 30.4299 38.4766 30.0803 38.8527 29.7249C41.4489 27.2719 42.9904 24.2845 43.2235 20.7088C43.3493 18.7876 43.3135 16.8538 43.2801 14.9269C43.2604 13.7776 42.44 12.8211 41.3347 12.4899C40.7427 12.3122 40.1474 12.1357 39.5416 12.0238C39.0524 11.9338 38.5377 11.8726 38.0462 11.9165C36.3743 12.0676 35.1316 12.9249 34.1901 14.3038C32.6993 16.4857 30.0097 17.0892 27.7077 15.813C27.5427 15.7219 27.3316 15.6722 27.1424 15.6711C25.0412 15.6607 22.9389 15.6595 20.8377 15.6722C20.6081 15.6734 20.3577 15.7449 20.1524 15.8511C18.582 16.6634 17.0162 16.6969 15.4435 15.8695C14.6716 15.4634 14.1085 14.8438 13.6124 14.1399C12.3893 12.4057 10.7116 11.6453 8.60698 11.9661C7.84544 12.0826 7.09198 12.3099 6.36274 12.5672C5.30467 12.9411 4.62851 13.9657 4.62159 15.1115C4.61236 16.7095 4.59736 18.3076 4.62736 19.9045C4.67582 22.4961 5.42467 24.8822 6.81736 27.0711C7.71736 28.4857 8.93813 29.6003 10.1301 30.7495C12.0166 32.5669 12.5785 34.7465 11.8066 37.2561C11.4766 38.3269 11.1143 39.3884 10.7866 40.4592C10.3308 41.9488 11.3139 43.2861 12.8658 43.3034C13.4554 43.3103 14.0462 43.3069 14.6358 43.3034C17.0301 43.2942 19.2304 42.6319 21.2301 41.3165C21.6847 41.0176 22.2801 40.7822 22.5212 40.3542C22.7439 39.9584 22.5789 39.3446 22.5835 38.8276C22.5847 38.6407 22.5835 38.4538 22.5835 38.2657V36.3699C22.5189 36.333 22.5074 36.3203 22.4958 36.3203C22.1508 36.3145 21.8047 36.3226 21.4597 36.3042C19.2166 36.1888 17.4951 35.1619 16.6758 33.0745C16.2212 31.9161 15.537 31.0922 14.592 30.3919C14.4304 30.2719 14.2816 30.1357 14.1304 30.003C13.2962 29.2692 12.7216 28.3692 12.4758 27.2845C12.1897 26.0211 12.2208 24.7334 12.3951 23.4653C12.5947 22.0022 13.4393 20.943 14.7304 20.2357C15.6247 19.7465 16.5939 19.6992 17.5816 19.7234C19.0897 19.7603 20.2631 20.3984 21.0904 21.6595C21.4135 22.1522 21.7216 22.6553 22.0204 23.1642C22.2697 23.5899 22.6193 23.7988 23.1177 23.7872C23.6935 23.7734 24.2693 23.778 24.8451 23.7872C25.3054 23.7942 25.6447 23.6084 25.8824 23.2138C26.202 22.6842 26.5239 22.1557 26.8574 21.6353C27.4597 20.6949 28.3089 20.0638 29.3981 19.8457C30.0108 19.7234 30.657 19.7234 31.287 19.7372C33.2601 19.7799 35.0266 21.1403 35.442 23.0765C35.6474 24.0319 35.6174 25.0461 35.6162 26.0349C35.6139 27.6134 34.9885 28.9392 33.8127 29.9949C33.4377 30.3319 33.0604 30.6688 32.652 30.9607C32.0427 31.3957 31.6977 31.9622 31.4462 32.673C30.7204 34.7165 29.247 35.9292 27.0881 36.2476C26.5377 36.3295 25.9712 36.3088 25.3504 36.3388L25.3493 36.3365ZM23.9451 33.543C24.7654 33.543 25.5858 33.5511 26.4062 33.5407C27.4977 33.5269 28.4081 32.8899 28.8062 31.8757C28.8951 31.6484 28.9816 31.4188 29.0485 31.1845C29.2689 30.4092 29.7097 29.793 30.3374 29.2922C30.8993 28.8434 31.4508 28.3807 31.9908 27.9053C32.5747 27.393 32.8516 26.7319 32.8608 25.9576C32.8643 25.5976 32.8366 25.2353 32.8666 24.8788C33.0051 23.208 32.2181 22.3553 30.4516 22.4788C29.8701 22.5192 29.4293 22.7176 29.1258 23.2172C28.8039 23.7457 28.4831 24.2742 28.1474 24.7934C27.5451 25.7222 26.7027 26.3419 25.6008 26.4699C24.7331 26.5703 23.8493 26.5519 22.9735 26.5426C21.6085 26.5276 20.5389 25.9334 19.7866 24.7934C19.4704 24.3134 19.1797 23.8161 18.8762 23.328C18.2024 22.2457 16.2627 22.113 15.4804 23.1284C15.2658 23.4076 15.177 23.7976 15.0835 24.1507C15.027 24.3665 15.0974 24.6122 15.0674 24.8384C14.8389 26.5299 15.4712 27.7957 16.8916 28.7257C18.012 29.4584 18.7435 30.4738 19.1151 31.7938C19.4277 32.9061 20.4166 33.5349 21.5704 33.5453C22.362 33.5522 23.1535 33.5465 23.9451 33.5465V33.543ZM26.5297 4.63916H21.4101V7.34263H26.5297V4.63916ZM21.3939 12.8603H26.5135V10.1615H21.3939V12.8603Z" fill="#176953"/>
<path d="M23.9693 20.328C23.667 20.328 23.3647 20.3384 23.0635 20.3257C22.3124 20.2934 21.7297 19.6934 21.7239 18.9596C21.7181 18.2038 22.3054 17.5911 23.0808 17.5703C23.6704 17.5542 24.2612 17.5553 24.8497 17.5703C25.6227 17.5899 26.2158 18.2061 26.2112 18.9572C26.2066 19.7084 25.6112 20.3038 24.8324 20.3292C24.5451 20.3384 24.2566 20.3303 23.9693 20.3292V20.328Z" fill="#176953"/>
</svg>
