<svg width="48" height="48" viewBox="0 0 48 48" fill="none" xmlns="http://www.w3.org/2000/svg">
<path d="M8.73126 12.1025C11.2288 9.221 14.1403 8 17.6953 8C20.0068 8 22.1728 8.663 23.9968 9.8075C26.3959 8.30749 29.2522 7.71425 32.0503 8.1348C34.8483 8.55535 37.404 9.962 39.2563 12.101L39.2938 12.143L39.3283 12.188C41.0713 14.528 42.6313 17.084 44.1403 19.559C44.7988 20.636 45.4453 21.698 46.0963 22.721L46.1008 22.7285C46.386 23.1658 46.5295 23.6803 46.5118 24.2021C46.4941 24.7239 46.316 25.2276 46.0018 25.6445L45.8158 26.0165L45.8143 26.021C43.9963 29.7185 40.9018 33.3605 37.2613 36.0845C33.6298 38.8025 29.3068 40.715 25.0153 40.715H22.9903C18.6973 40.715 14.3743 38.798 10.7383 36.08C7.09326 33.353 3.98826 29.711 2.14776 26.0255L1.84776 25.4255C1.82392 25.3768 1.8019 25.3273 1.78176 25.277C1.57539 24.8771 1.47862 24.4296 1.50128 23.9801C1.52394 23.5306 1.66522 23.0952 1.91076 22.718L1.91826 22.7045C2.66526 21.5615 3.35676 20.3645 4.07676 19.1165C4.39626 18.5615 4.72176 17.996 5.06076 17.4215C6.13776 15.599 7.31526 13.7375 8.73126 12.1025ZM42.2443 26.294L42.0193 26.219L39.3553 27.029C29.3308 30.0699 18.6297 30.0699 8.60526 27.029L5.94726 26.2205L5.72976 26.2955C7.38276 28.9835 9.77526 31.613 12.5353 33.6755C15.8548 36.1595 19.5583 37.715 22.9903 37.715H25.0153C28.4473 37.715 32.1508 36.1625 35.4643 33.683C38.2213 31.619 40.6078 28.988 42.2443 26.294ZM42.0703 23.0675L42.6613 22.8875C42.2653 22.2485 41.8783 21.6125 41.4913 20.9795C40.0288 18.581 38.6008 16.2395 36.9568 14.0285C35.4753 12.3359 33.4058 11.2698 31.1676 11.0462C28.9294 10.8225 26.6899 11.4581 24.9028 12.824L23.9908 13.517L23.0818 12.8195C21.5362 11.6354 19.6423 10.9956 17.6953 11C14.9803 11 12.9058 11.8655 10.9993 14.0675C9.76626 15.4895 8.69976 17.159 7.64526 18.947C7.33926 19.4645 7.03326 19.997 6.72126 20.5355C6.26826 21.32 5.80776 22.118 5.33676 22.898L5.89776 23.0705L12.5038 20.8295C19.9523 18.309 28.0232 18.309 35.4718 20.8295L42.0703 23.0675ZM14.1103 23.4605C16.6453 24.1025 20.1373 24.5 23.9953 24.5C27.8488 24.5 31.3393 24.104 33.8713 23.462C27.4408 21.4317 20.541 21.4312 14.1103 23.4605Z" fill="#176953"/>
</svg>
