<svg width="48" height="49" viewBox="0 0 48 49" fill="none" xmlns="http://www.w3.org/2000/svg">
<path d="M32 18.5C44 18.5 44 26.5 44 26.5V30.5H32V26.5C32 26.5 32 23.12 29.7 20.1C29.36 19.64 28.94 19.2 28.5 18.78C29.54 18.62 30.68 18.5 32 18.5ZM4 26.5C4 26.5 4 18.5 16 18.5C28 18.5 28 26.5 28 26.5V30.5H4V26.5ZM18 34.5V38.5H30V34.5L36 40.5L30 46.5V42.5H18V46.5L12 40.5L18 34.5ZM16 2.5C12.68 2.5 10 5.18 10 8.5C10 11.82 12.68 14.5 16 14.5C19.32 14.5 22 11.82 22 8.5C22 5.18 19.32 2.5 16 2.5ZM32 2.5C28.68 2.5 26 5.18 26 8.5C26 11.82 28.68 14.5 32 14.5C35.32 14.5 38 11.82 38 8.5C38 5.18 35.32 2.5 32 2.5Z" fill="#645A41"/>
</svg>
