<svg width="48" height="48" viewBox="0 0 48 48" fill="none" xmlns="http://www.w3.org/2000/svg">
<path d="M19.6486 1.8457H28.2852C29.0698 2.18378 29.3675 2.77686 29.3328 3.62724C29.2878 4.73263 29.3213 5.84147 29.3213 6.94916V7.35532C30.4936 7.41763 31.0925 7.83301 31.1144 8.63609C31.1225 8.94416 31.014 9.29493 30.8513 9.56032C30.5167 10.1084 29.9282 10.173 29.3213 10.1384C29.3213 11.2311 29.3121 12.2649 29.3352 13.2988C29.3375 13.4119 29.5036 13.5826 29.6282 13.6219C30.3898 13.8688 31.2575 13.5745 31.7871 12.9111C31.9752 12.6757 32.1367 12.4184 32.3225 12.1807C33.8755 10.203 35.919 9.19224 38.424 9.11724C39.7394 9.07801 40.9809 9.47032 42.2121 9.86032C43.974 10.4188 45.1475 11.6107 45.7752 13.3403C45.9055 13.7003 45.9782 14.0811 46.0775 14.4526V20.7572C46.0521 20.868 46.0128 20.9776 46.0036 21.0896C45.7936 23.5057 45.0598 25.7522 43.8667 27.8603C42.8098 29.7284 41.349 31.248 39.7786 32.6765C38.6109 33.7392 38.2844 35.0095 38.7875 36.5084C39.144 37.5711 39.4855 38.6384 39.8098 39.7115C40.6844 42.5996 38.8682 45.5776 35.8878 45.9769C34.0475 46.2238 32.1828 46.1315 30.3471 45.7657C28.1213 45.3226 26.1344 44.3476 24.3078 43.0276C24.0563 42.8453 23.8798 42.8465 23.6271 43.0276C22.3844 43.9195 21.0632 44.6672 19.6221 45.2015C17.2613 46.0772 14.8071 46.2053 12.3448 46.0288C9.49016 45.8234 7.45477 43.1534 8.004 40.3438C8.26131 39.0261 8.76208 37.7557 9.17169 36.4692C9.639 35.0015 9.32054 33.7542 8.19439 32.703C7.63708 32.1826 7.07516 31.6645 6.54669 31.1153C3.83285 28.3022 2.23362 24.9526 1.95092 21.0492C1.80554 19.0438 1.84592 17.0222 1.87131 15.0088C1.89439 13.1995 2.694 11.7515 4.13631 10.6553C5.08362 9.93532 6.21785 9.70686 7.32669 9.41263C9.73939 8.7734 11.9709 9.17724 14.0109 10.6149C14.8209 11.1861 15.4555 11.9245 16.0163 12.7369C16.5655 13.533 17.4194 13.8757 18.2617 13.6426C18.3955 13.6057 18.594 13.4534 18.5963 13.3495C18.6205 12.2892 18.6113 11.2288 18.6113 10.1742C17.3444 10.0334 16.7767 9.60532 16.8159 8.76878C16.8298 8.4607 16.9682 8.12263 17.1459 7.86532C17.4817 7.37955 18.0378 7.35301 18.6125 7.36224C18.6125 6.09532 18.6448 4.85955 18.6009 3.62724C18.5709 2.77916 18.8571 2.18032 19.6486 1.84686V1.8457ZM25.3498 36.3365C25.3498 37.6519 25.3463 38.9442 25.3567 40.2365C25.3567 40.3299 25.4317 40.4569 25.5102 40.5099C26.8232 41.3938 28.1455 42.2465 29.6778 42.7346C31.4259 43.2919 33.2144 43.3149 35.0155 43.293C36.6309 43.2734 37.5944 41.9545 37.1121 40.4061C36.7786 39.3365 36.414 38.2761 36.0932 37.2019C35.3594 34.7453 35.9052 32.6038 37.7259 30.7945C38.0928 30.4299 38.4771 30.0803 38.8532 29.7249C41.4494 27.2719 42.9909 24.2845 43.224 20.7088C43.3498 18.7876 43.314 16.8538 43.2805 14.9269C43.2609 13.7776 42.4405 12.8211 41.3352 12.4899C40.7432 12.3122 40.1479 12.1357 39.5421 12.0238C39.0528 11.9338 38.5382 11.8726 38.0467 11.9165C36.3748 12.0676 35.1321 12.9249 34.1905 14.3038C32.6998 16.4857 30.0102 17.0892 27.7082 15.813C27.5432 15.7219 27.3321 15.6722 27.1428 15.6711C25.0417 15.6607 22.9394 15.6595 20.8382 15.6722C20.6086 15.6734 20.3582 15.7449 20.1528 15.8511C18.5825 16.6634 17.0167 16.6969 15.444 15.8695C14.6721 15.4634 14.109 14.8438 13.6128 14.1399C12.3898 12.4057 10.7121 11.6453 8.60746 11.9661C7.84592 12.0826 7.09246 12.3099 6.36323 12.5672C5.30516 12.9411 4.629 13.9657 4.62208 15.1115C4.61285 16.7095 4.59785 18.3076 4.62785 19.9045C4.67631 22.4961 5.42516 24.8822 6.81785 27.0711C7.71785 28.4857 8.93862 29.6003 10.1305 30.7495C12.0171 32.5669 12.579 34.7465 11.8071 37.2561C11.4771 38.3269 11.1148 39.3884 10.7871 40.4592C10.3313 41.9488 11.3144 43.2861 12.8663 43.3034C13.4559 43.3103 14.0467 43.3069 14.6363 43.3034C17.0305 43.2942 19.2309 42.6319 21.2305 41.3165C21.6852 41.0176 22.2805 40.7822 22.5217 40.3542C22.7444 39.9584 22.5794 39.3446 22.584 38.8276C22.5852 38.6407 22.584 38.4538 22.584 38.2657V36.3699C22.5194 36.333 22.5078 36.3203 22.4963 36.3203C22.1513 36.3145 21.8052 36.3226 21.4602 36.3042C19.2171 36.1888 17.4955 35.1619 16.6763 33.0745C16.2217 31.9161 15.5375 31.0922 14.5925 30.3919C14.4309 30.2719 14.2821 30.1357 14.1309 30.003C13.2967 29.2692 12.7221 28.3692 12.4763 27.2845C12.1902 26.0211 12.2213 24.7334 12.3955 23.4653C12.5952 22.0022 13.4398 20.943 14.7309 20.2357C15.6252 19.7465 16.5944 19.6992 17.5821 19.7234C19.0902 19.7603 20.2636 20.3984 21.0909 21.6595C21.414 22.1522 21.7221 22.6553 22.0209 23.1642C22.2702 23.5899 22.6198 23.7988 23.1182 23.7872C23.694 23.7734 24.2698 23.778 24.8455 23.7872C25.3059 23.7942 25.6452 23.6084 25.8828 23.2138C26.2025 22.6842 26.5244 22.1557 26.8578 21.6353C27.4602 20.6949 28.3094 20.0638 29.3986 19.8457C30.0113 19.7234 30.6575 19.7234 31.2875 19.7372C33.2605 19.7799 35.0271 21.1403 35.4425 23.0765C35.6479 24.0319 35.6178 25.0461 35.6167 26.0349C35.6144 27.6134 34.989 28.9392 33.8132 29.9949C33.4382 30.3319 33.0609 30.6688 32.6525 30.9607C32.0432 31.3957 31.6982 31.9622 31.4467 32.673C30.7209 34.7165 29.2475 35.9292 27.0886 36.2476C26.5382 36.3295 25.9717 36.3088 25.3509 36.3388L25.3498 36.3365ZM23.9455 33.543C24.7659 33.543 25.5863 33.5511 26.4067 33.5407C27.4982 33.5269 28.4086 32.8899 28.8067 31.8757C28.8955 31.6484 28.9821 31.4188 29.049 31.1845C29.2694 30.4092 29.7102 29.793 30.3378 29.2922C30.8998 28.8434 31.4513 28.3807 31.9913 27.9053C32.5752 27.393 32.8521 26.7319 32.8613 25.9576C32.8648 25.5976 32.8371 25.2353 32.8671 24.8788C33.0055 23.208 32.2186 22.3553 30.4521 22.4788C29.8705 22.5192 29.4298 22.7176 29.1263 23.2172C28.8044 23.7457 28.4836 24.2742 28.1478 24.7934C27.5455 25.7222 26.7032 26.3419 25.6013 26.4699C24.7336 26.5703 23.8498 26.5519 22.974 26.5426C21.609 26.5276 20.5394 25.9334 19.7871 24.7934C19.4709 24.3134 19.1802 23.8161 18.8767 23.328C18.2029 22.2457 16.2632 22.113 15.4809 23.1284C15.2663 23.4076 15.1775 23.7976 15.084 24.1507C15.0275 24.3665 15.0978 24.6122 15.0678 24.8384C14.8394 26.5299 15.4717 27.7957 16.8921 28.7257C18.0125 29.4584 18.744 30.4738 19.1155 31.7938C19.4282 32.9061 20.4171 33.5349 21.5709 33.5453C22.3625 33.5522 23.154 33.5465 23.9455 33.5465V33.543ZM26.5302 4.63916H21.4105V7.34263H26.5302V4.63916ZM21.3944 12.8603H26.514V10.1615H21.3944V12.8603Z" fill="#F9F2E0"/>
<path d="M23.9698 20.328C23.6675 20.328 23.3652 20.3384 23.064 20.3257C22.3128 20.2934 21.7302 19.6934 21.7244 18.9596C21.7186 18.2038 22.3059 17.5911 23.0813 17.5703C23.6709 17.5542 24.2617 17.5553 24.8502 17.5703C25.6232 17.5899 26.2163 18.2061 26.2117 18.9572C26.2071 19.7084 25.6117 20.3038 24.8328 20.3292C24.5455 20.3384 24.2571 20.3303 23.9698 20.3292V20.328Z" fill="#F9F2E0"/>
</svg>
