<svg width="48" height="48" viewBox="0 0 48 48" fill="none" xmlns="http://www.w3.org/2000/svg">
<path d="M24.0001 41.5452C28.6531 41.5452 33.1156 39.6968 36.4058 36.4065C39.696 33.1163 41.5445 28.6539 41.5445 24.0008C41.5445 19.3477 39.696 14.8853 36.4058 11.595C33.1156 8.30483 28.6531 6.45641 24.0001 6.45641C23.372 6.45641 22.7697 6.7059 22.3256 7.14999C21.8815 7.59409 21.632 8.19641 21.632 8.82446C21.632 9.4525 21.8815 10.0548 22.3256 10.4989C22.7697 10.943 23.372 11.1925 24.0001 11.1925C24.522 11.1925 25.0226 11.3999 25.3917 11.7689C25.7608 12.138 25.9681 12.6386 25.9681 13.1606C25.9681 13.6825 25.7608 14.1831 25.3917 14.5522C25.0226 14.9213 24.522 15.1286 24.0001 15.1286C22.3281 15.1286 20.7246 14.4644 19.5424 13.2822C18.3601 12.0999 17.6959 10.4964 17.6959 8.82446V8.81728L17.6954 8.81012C17.6738 8.50931 17.6738 8.20734 17.6954 7.90653L17.7183 7.58811L17.4218 7.70644C13.6278 9.22069 10.4811 12.0114 8.52444 15.5973C6.56774 19.1832 5.92367 23.3394 6.7033 27.3493C7.48294 31.3593 9.6374 34.9714 12.7951 37.5629C15.9527 40.1543 19.9154 41.5626 24.0001 41.5452ZM24.0001 41.5452V41.3452L24.0009 41.5452C24.0006 41.5452 24.0004 41.5452 24.0001 41.5452ZM29.3191 28.6395L29.3203 28.6402C29.7704 28.8998 30.0996 29.327 30.236 29.8284C30.3724 30.3297 30.3051 30.8645 30.0487 31.3163C29.4374 32.3801 28.5564 33.2638 27.4945 33.8784C26.4325 34.493 25.2271 34.8166 24.0001 34.8166C22.773 34.8166 21.5677 34.493 20.5056 33.8784C19.4437 33.2638 18.5626 32.38 17.9513 31.3162C17.6951 30.8644 17.6277 30.3296 17.7641 29.8284C17.9005 29.327 18.2297 28.8998 18.6799 28.6402L18.6811 28.6395C18.9045 28.5086 19.1516 28.423 19.4082 28.3878C19.6648 28.3525 19.9258 28.3683 20.1763 28.4341C20.4267 28.4999 20.6618 28.6145 20.8679 28.7714C21.0738 28.928 21.2467 29.1238 21.3769 29.3474C21.6405 29.8104 22.0219 30.1953 22.4824 30.4632C22.9433 30.7313 23.4669 30.8725 24.0001 30.8725C24.5332 30.8725 25.0569 30.7313 25.5177 30.4632C25.9783 30.1953 26.3598 29.8102 26.6233 29.3472C26.7535 29.1237 26.9264 28.928 27.1323 28.7714C27.3384 28.6145 27.5734 28.4999 27.8239 28.4341C28.0744 28.3683 28.3354 28.3525 28.592 28.3878C28.8485 28.423 29.0956 28.5086 29.3191 28.6395ZM19.1323 18.5713C19.3486 18.895 19.464 19.2755 19.464 19.6647C19.464 20.1867 19.2566 20.6872 18.8875 21.0563C18.5185 21.4254 18.0179 21.6327 17.4959 21.6327C17.1067 21.6327 16.7262 21.5173 16.4025 21.3011C16.0789 21.0848 15.8266 20.7775 15.6777 20.4178C15.5287 20.0582 15.4898 19.6625 15.5657 19.2808C15.6416 18.899 15.8291 18.5483 16.1043 18.2731C16.3795 17.9978 16.7302 17.8104 17.112 17.7345C17.4937 17.6585 17.8895 17.6975 18.2491 17.8465C18.6087 17.9954 18.916 18.2477 19.1323 18.5713ZM29.4108 18.0283C29.7345 17.8121 30.115 17.6966 30.5042 17.6966C31.0262 17.6966 31.5268 17.904 31.8958 18.2731C32.2649 18.6422 32.4723 19.1427 32.4723 19.6647C32.4723 20.0539 32.3568 20.4344 32.1406 20.7581C31.9243 21.0817 31.617 21.334 31.2574 21.4829C30.8977 21.6319 30.502 21.6709 30.1203 21.5949C29.7385 21.519 29.3878 21.3316 29.1126 21.0563C28.8374 20.7811 28.6499 20.4304 28.574 20.0486C28.498 19.6669 28.537 19.2712 28.686 18.9116C28.8349 18.5519 29.0872 18.2446 29.4108 18.0283ZM12.0662 6.14043C15.5986 3.78012 19.7516 2.52031 24.0001 2.52031C26.8209 2.52031 29.6142 3.07592 32.2203 4.15542C34.8264 5.23491 37.1944 6.81715 39.1891 8.8118C41.1837 10.8064 42.766 13.1744 43.8454 15.7806C44.9249 18.3867 45.4805 21.1799 45.4805 24.0008C45.4805 28.2492 44.2207 32.4023 41.8604 35.9347C39.5001 39.4672 36.1453 42.2204 32.2203 43.8462C28.2953 45.472 23.9762 45.8974 19.8094 45.0685C15.6426 44.2397 11.8152 42.1939 8.81108 39.1898C5.80698 36.1857 3.76116 32.3582 2.93233 28.1914C2.1035 24.0246 2.52889 19.7056 4.15469 15.7806C5.7805 11.8555 8.53371 8.50073 12.0662 6.14043Z" fill="#F9F2E0" stroke="#064736" stroke-width="0.4"/>
</svg>
