<svg width="32" height="32" viewBox="0 0 32 32" fill="none" xmlns="http://www.w3.org/2000/svg">
<circle cx="16" cy="16" r="16" fill="#064736"/>
<path d="M22.4001 15.4672H9.60013V10.1339H22.4001M20.8001 21.8672C20.3758 21.8672 19.9688 21.6986 19.6688 21.3986C19.3687 21.0985 19.2001 20.6915 19.2001 20.2672C19.2001 19.8428 19.3687 19.4359 19.6688 19.1358C19.9688 18.8358 20.3758 18.6672 20.8001 18.6672C21.2245 18.6672 21.6314 18.8358 21.9315 19.1358C22.2316 19.4359 22.4001 19.8428 22.4001 20.2672C22.4001 20.6915 22.2316 21.0985 21.9315 21.3986C21.6314 21.6986 21.2245 21.8672 20.8001 21.8672ZM11.2001 21.8672C10.7758 21.8672 10.3688 21.6986 10.0688 21.3986C9.7687 21.0985 9.60013 20.6915 9.60013 20.2672C9.60013 19.8428 9.7687 19.4359 10.0688 19.1358C10.3688 18.8358 10.7758 18.6672 11.2001 18.6672C11.6245 18.6672 12.0314 18.8358 12.3315 19.1358C12.6316 19.4359 12.8001 19.8428 12.8001 20.2672C12.8001 20.6915 12.6316 21.0985 12.3315 21.3986C12.0314 21.6986 11.6245 21.8672 11.2001 21.8672ZM7.4668 20.8005C7.4668 21.7392 7.8828 22.5819 8.53346 23.1685V25.0672C8.53346 25.3501 8.64584 25.6214 8.84588 25.8214C9.04592 26.0215 9.31723 26.1339 9.60013 26.1339H10.6668C10.9497 26.1339 11.221 26.0215 11.421 25.8214C11.6211 25.6214 11.7335 25.3501 11.7335 25.0672V24.0005H20.2668V25.0672C20.2668 25.3501 20.3792 25.6214 20.5792 25.8214C20.7793 26.0215 21.0506 26.1339 21.3335 26.1339H22.4001C22.683 26.1339 22.9543 26.0215 23.1544 25.8214C23.3544 25.6214 23.4668 25.3501 23.4668 25.0672V23.1685C24.1175 22.5819 24.5335 21.7392 24.5335 20.8005V10.1339C24.5335 6.40052 20.7148 5.86719 16.0001 5.86719C11.2855 5.86719 7.4668 6.40052 7.4668 10.1339V20.8005Z" fill="white"/>
</svg>
