<svg width="65" height="64" viewBox="0 0 65 64" fill="none" xmlns="http://www.w3.org/2000/svg">
<path d="M24.3086 31.0234C24.3086 32.1068 23.9232 33.0443 23.1523 33.8359C22.3815 34.6276 21.4336 35.0234 20.3086 35.0234C19.1836 35.0234 18.2357 34.6276 17.4648 33.8359C16.694 33.0443 16.3086 32.1068 16.3086 31.0234C16.3086 29.9401 16.694 29.0026 17.4648 28.2109C18.2357 27.4193 19.1836 27.0234 20.3086 27.0234C21.4336 27.0234 22.3815 27.4193 23.1523 28.2109C23.9232 29.0026 24.3086 29.9401 24.3086 31.0234ZM36.3086 31.0234C36.3086 32.1068 35.9232 33.0443 35.1523 33.8359C34.3815 34.6276 33.4336 35.0234 32.3086 35.0234C31.1836 35.0234 30.2357 34.6276 29.4648 33.8359C28.694 33.0443 28.3086 32.1068 28.3086 31.0234C28.3086 29.9401 28.694 29.0026 29.4648 28.2109C30.2357 27.4193 31.1836 27.0234 32.3086 27.0234C33.4336 27.0234 34.3815 27.4193 35.1523 28.2109C35.9232 29.0026 36.3086 29.9401 36.3086 31.0234ZM48.3086 31.0234C48.3086 32.1068 47.9232 33.0443 47.1523 33.8359C46.3815 34.6276 45.4336 35.0234 44.3086 35.0234C43.1836 35.0234 42.2357 34.6276 41.4648 33.8359C40.694 33.0443 40.3086 32.1068 40.3086 31.0234C40.3086 29.9401 40.694 29.0026 41.4648 28.2109C42.2357 27.4193 43.1836 27.0234 44.3086 27.0234C45.4336 27.0234 46.3815 27.4193 47.1523 28.2109C47.9232 29.0026 48.3086 29.9401 48.3086 31.0234ZM32.3086 11.0234C35.2253 11.0234 37.9857 11.5234 40.5898 12.5234C43.194 13.5234 45.4544 14.8984 47.3711 16.6484C49.2878 18.3984 50.8086 20.4401 51.9336 22.7734C53.0586 25.1068 53.6211 27.5859 53.6211 30.2109C53.6211 32.3359 53.2461 34.3984 52.4961 36.3984C51.7461 38.3984 50.6419 40.2318 49.1836 41.8984L48.3711 42.8359C46.9128 44.4193 45.1419 45.7839 43.0586 46.9297C40.9753 48.0755 38.7669 49.0547 36.4336 49.8672C34.1003 50.6797 31.7253 51.3359 29.3086 51.8359C26.8919 52.3359 24.6003 52.7318 22.4336 53.0234L24.5586 48.6484L20.4336 46.1484C17.4753 44.3568 15.1628 42.0547 13.4961 39.2422C11.8294 36.4297 10.9961 33.4193 10.9961 30.2109C10.9961 27.5859 11.5586 25.1068 12.6836 22.7734C13.8086 20.4401 15.3294 18.3984 17.2461 16.6484C19.1628 14.8984 21.4232 13.5234 24.0273 12.5234C26.6315 11.5234 29.3919 11.0234 32.3086 11.0234ZM32.3086 5.71094C28.6419 5.71094 25.1836 6.34636 21.9336 7.61719C18.6836 8.88802 15.8503 10.638 13.4336 12.8672C11.0169 15.0964 9.11068 17.7005 7.71484 20.6797C6.31901 23.6589 5.62109 26.8359 5.62109 30.2109C5.62109 32.3776 5.91276 34.4505 6.49609 36.4297C7.07943 38.4089 7.89193 40.2734 8.93359 42.0234C9.97526 43.7734 11.2357 45.388 12.7148 46.8672C14.194 48.3464 15.8294 49.6276 17.6211 50.7109L13.6211 59.0234C13.6211 59.0234 15.1628 58.9505 18.2461 58.8047C21.3294 58.6589 24.9961 58.1589 29.2461 57.3047C33.4961 56.4505 37.8607 55.0964 42.3398 53.2422C46.819 51.388 50.4753 48.7734 53.3086 45.3984H53.2461C55.0378 43.3151 56.444 40.9818 57.4648 38.3984C58.4857 35.8151 58.9961 33.0859 58.9961 30.2109C58.9961 26.8359 58.2982 23.6589 56.9023 20.6797C55.5065 17.7005 53.6003 15.0964 51.1836 12.8672C48.7669 10.638 45.9336 8.88802 42.6836 7.61719C39.4336 6.34636 35.9753 5.71094 32.3086 5.71094Z" fill="#645A41"/>
</svg>
