<svg width="48" height="49" viewBox="0 0 48 49" fill="none" xmlns="http://www.w3.org/2000/svg">
<path d="M41.544 18.81L38.808 10.602C38.4111 9.40697 37.6477 8.3674 36.6262 7.63102C35.6048 6.89463 34.3772 6.49888 33.118 6.5H14.882C13.6228 6.49888 12.3952 6.89463 11.3738 7.63102C10.3523 8.3674 9.5889 9.40697 9.192 10.602L6.456 18.81C5.72844 19.1144 5.10712 19.6271 4.67013 20.2837C4.23315 20.9402 4 21.7113 4 22.5V32.5C4 33.976 4.808 35.252 6 35.946V40.5C6 41.0304 6.21071 41.5391 6.58579 41.9142C6.96086 42.2893 7.46957 42.5 8 42.5H10C10.5304 42.5 11.0391 42.2893 11.4142 41.9142C11.7893 41.5391 12 41.0304 12 40.5V36.5H36V40.5C36 41.0304 36.2107 41.5391 36.5858 41.9142C36.9609 42.2893 37.4696 42.5 38 42.5H40C40.5304 42.5 41.0391 42.2893 41.4142 41.9142C41.7893 41.5391 42 41.0304 42 40.5V35.946C42.6068 35.598 43.1111 35.0963 43.4623 34.4913C43.8134 33.8863 43.9989 33.1995 44 32.5V22.5C44 21.7113 43.7669 20.9402 43.3299 20.2837C42.8929 19.6271 42.2716 19.1144 41.544 18.81ZM14.882 10.5H33.116C33.978 10.5 34.742 11.048 35.014 11.868L37.226 18.5H10.774L12.984 11.868C13.1167 11.4696 13.3714 11.1231 13.7121 10.8775C14.0528 10.632 14.4621 10.4999 14.882 10.5ZM11 30.5C10.6059 30.4999 10.2157 30.4221 9.85164 30.2712C9.4876 30.1202 9.15684 29.8991 8.87827 29.6203C8.59969 29.3416 8.37875 29.0107 8.22806 28.6465C8.07736 28.2824 7.99987 27.8921 8 27.498C8.00013 27.1039 8.07788 26.7137 8.22882 26.3496C8.37976 25.9856 8.60092 25.6548 8.87968 25.3763C9.15844 25.0977 9.48934 24.8768 9.85349 24.7261C10.2176 24.5754 10.6079 24.4979 11.002 24.498C11.7979 24.4983 12.5611 24.8147 13.1237 25.3777C13.6863 25.9407 14.0023 26.7041 14.002 27.5C14.0017 28.2959 13.6853 29.0591 13.1223 29.6217C12.5593 30.1843 11.7959 30.5003 11 30.5ZM37 30.5C36.6059 30.4999 36.2157 30.4221 35.8516 30.2712C35.4876 30.1202 35.1568 29.8991 34.8783 29.6203C34.5997 29.3416 34.3787 29.0107 34.2281 28.6465C34.0774 28.2824 33.9999 27.8921 34 27.498C34.0001 27.1039 34.0779 26.7137 34.2288 26.3496C34.3798 25.9856 34.6009 25.6548 34.8797 25.3763C35.1584 25.0977 35.4893 24.8768 35.8535 24.7261C36.2176 24.5754 36.6079 24.4979 37.002 24.498C37.7979 24.4983 38.5611 24.8147 39.1237 25.3777C39.6863 25.9407 40.0023 26.7041 40.002 27.5C40.0017 28.2959 39.6853 29.0591 39.1223 29.6217C38.5593 30.1843 37.7959 30.5003 37 30.5Z" fill="#645A41"/>
</svg>
