<svg width="64" height="64" viewBox="0 0 64 64" fill="none" xmlns="http://www.w3.org/2000/svg">
<path d="M34.6562 14.4668C36.1146 14.4668 37.3646 13.946 38.4062 12.9043C39.4479 11.8626 39.9688 10.6126 39.9688 9.1543C39.9688 7.6543 39.4479 6.38346 38.4062 5.3418C37.3646 4.30013 36.1146 3.7793 34.6562 3.7793C33.1979 3.7793 31.9479 4.30013 30.9062 5.3418C29.8646 6.38346 29.3438 7.6543 29.3438 9.1543C29.3438 10.6126 29.8646 11.8626 30.9062 12.9043C31.9479 13.946 33.1979 14.4668 34.6562 14.4668ZM24.7812 23.5293L17.3438 61.1543H22.9062L27.7188 39.7793L33.3438 45.1543V61.1543H38.6562V41.1543L33.0312 35.7793L34.6562 27.7793C36.4062 29.7793 38.5521 31.3939 41.0938 32.623C43.6354 33.8522 46.3854 34.4668 49.3438 34.4668V29.1543C46.8021 29.1543 44.5208 28.5501 42.5 27.3418C40.4792 26.1335 38.9271 24.5918 37.8438 22.7168L35.2188 18.4668C34.6771 17.6751 34.0104 17.0293 33.2188 16.5293C32.4271 16.0293 31.5729 15.7793 30.6562 15.7793C30.2396 15.7793 29.7917 15.7793 29.3125 15.7793C28.8333 15.7793 28.3854 15.7793 27.9688 15.7793L14.6562 21.9043V34.4668H19.9688V25.4043L24.7812 23.5293Z" fill="#645A41"/>
</svg>
