<svg width="32" height="32" viewBox="0 0 32 32" fill="none" xmlns="http://www.w3.org/2000/svg">
<circle cx="16" cy="16" r="16" fill="#064736"/>
<path d="M16.0011 5.86719C11.6221 5.86719 7.24316 6.41456 7.24316 10.2461V20.6461C7.24316 22.759 8.9619 24.4777 11.0747 24.4777L9.43264 26.1198V26.6672H11.6221L13.8116 24.4777H18.1905L20.38 26.6672H22.5695V26.1198L20.9274 24.4777C23.0402 24.4777 24.759 22.759 24.759 20.6461V10.2461C24.759 6.41456 20.38 5.86719 16.0011 5.86719ZM11.0747 22.2882C10.1661 22.2882 9.43264 21.5548 9.43264 20.6461C9.43264 19.7375 10.1661 19.004 11.0747 19.004C11.9834 19.004 12.7168 19.7375 12.7168 20.6461C12.7168 21.5548 11.9834 22.2882 11.0747 22.2882ZM14.9063 14.6251H9.43264V10.2461H14.9063V14.6251ZM20.9274 22.2882C20.0187 22.2882 19.2853 21.5548 19.2853 20.6461C19.2853 19.7375 20.0187 19.004 20.9274 19.004C21.836 19.004 22.5695 19.7375 22.5695 20.6461C22.5695 21.5548 21.836 22.2882 20.9274 22.2882ZM22.5695 14.6251H17.0958V10.2461H22.5695V14.6251Z" fill="white"/>
</svg>
