<svg width="65" height="64" viewBox="0 0 65 64" fill="none" xmlns="http://www.w3.org/2000/svg">
<path d="M12.2891 11.5762H6.91406V54.2012C6.91406 54.9512 7.17448 55.5866 7.69531 56.1074C8.21615 56.6283 8.85156 56.8887 9.60156 56.8887H49.6016V51.5762H12.2891V11.5762ZM54.9141 6.20117H17.6016C16.8516 6.20117 16.2161 6.46159 15.6953 6.98242C15.1745 7.50325 14.9141 8.13867 14.9141 8.88867V46.2012C14.9141 46.9512 15.1745 47.5866 15.6953 48.1074C16.2161 48.6283 16.8516 48.8887 17.6016 48.8887H54.9141C55.6641 48.8887 56.2995 48.6283 56.8203 48.1074C57.3411 47.5866 57.6016 46.9512 57.6016 46.2012V8.88867C57.6016 8.13867 57.3411 7.50325 56.8203 6.98242C56.2995 6.46159 55.6641 6.20117 54.9141 6.20117ZM52.2891 43.5762H20.2891V11.5762H52.2891V43.5762ZM22.9141 16.8887H49.6016V22.2012H22.9141V16.8887ZM22.9141 24.8887H49.6016V30.2012H22.9141V24.8887ZM22.9141 32.8887H41.6016V38.2012H22.9141V32.8887Z" fill="#645A41"/>
</svg>
