<svg width="48" height="48" viewBox="0 0 48 48" fill="none" xmlns="http://www.w3.org/2000/svg">
<path d="M18.6642 2.6582C15.2674 2.6582 12.5161 5.12491 11.8279 8.32789C7.68054 9.06773 4.43665 12.5286 4.43665 16.8858C4.43665 17.3233 4.48467 17.7128 4.54869 18.1094C3.40159 19.7953 2.6582 21.7818 2.6582 23.9996C2.6582 27.1954 4.24991 29.8845 6.49254 31.8354C6.33248 32.4685 6.2151 33.0999 6.2151 33.781C6.2151 38.1791 9.82001 41.784 14.2181 41.784H14.3302C15.3652 43.7919 17.1579 45.3409 19.5535 45.3409C20.3833 45.3391 21.2043 45.1708 21.968 44.8461C22.7317 44.5213 23.4225 44.0468 23.9996 43.4505C24.5767 44.0468 25.2675 44.5213 26.0311 44.8461C26.7948 45.1708 27.6159 45.3391 28.4457 45.3409C30.843 45.3409 32.6339 43.7919 33.6708 41.784H33.781C37.9568 41.784 41.3803 38.533 41.7289 34.448H41.784C41.784 34.3359 41.736 34.2256 41.7289 34.1136C41.736 34.0033 41.784 33.8913 41.784 33.781C41.784 33.1212 41.5475 32.5575 41.3946 31.9475C43.7012 29.9876 45.3409 27.2524 45.3409 23.9996C45.3409 21.7836 44.5976 19.7971 43.4505 18.1076C43.5145 17.7128 43.5625 17.3251 43.5625 16.8858C43.5625 12.5286 40.3186 9.06951 36.1713 8.32611C35.483 5.12669 32.7318 2.6582 29.3349 2.6582C27.2008 2.6582 25.305 3.65236 23.9996 5.1587C22.6942 3.65413 20.7984 2.6582 18.6642 2.6582ZM18.6642 6.2151C20.6508 6.2151 22.2211 7.78547 22.2211 9.77199V13.3289C22.2211 15.6822 20.7303 17.6594 18.633 18.3763C17.7036 18.6939 16.8858 19.4605 16.8858 20.4427C16.8858 21.4249 17.6905 22.2404 18.6518 22.039C19.9712 21.7627 21.1773 21.1841 22.2211 20.3875V39.1164C22.2211 40.6103 21.0473 41.784 19.5535 41.784C18.9312 41.7928 18.3263 41.5792 17.8474 41.1818C17.3685 40.7844 17.0471 40.2293 16.9409 39.6161L16.6083 37.8946L14.885 38.172C14.2518 38.272 13.6044 38.2332 12.9877 38.0582C12.371 37.8833 11.7997 37.5763 11.3133 37.1587C10.827 36.741 10.4372 36.2226 10.1711 35.6394C9.90496 35.0562 9.76878 34.4221 9.77199 33.781C9.77199 33.2315 9.86092 32.7175 10.0494 32.2249C10.0637 32.184 10.0921 32.1538 10.1046 32.1129C10.3774 31.4349 10.8153 30.8359 11.3783 30.37C11.4758 30.2894 11.5764 30.2132 11.68 30.1416C12.4966 29.5769 13.1653 28.6522 12.9647 27.6798C12.7666 26.7194 11.8178 26.0804 10.9219 26.4791C9.79019 26.9828 8.78456 27.7485 7.99355 28.7231C6.83721 27.4226 6.20363 25.7398 6.2151 23.9996C6.21206 22.4003 6.7618 20.8491 7.77124 19.6086L8.32789 18.9417L8.16072 18.0524C8.05994 17.6714 8.00384 17.2798 7.99355 16.8858C7.99355 13.9193 10.3624 11.5504 13.3289 11.5504H15.1073V9.77199C15.1073 7.78547 16.6777 6.2151 18.6642 6.2151ZM29.3349 6.2151C31.3214 6.2151 32.8918 7.78547 32.8918 9.77199V11.5504H34.6703C37.6367 11.5504 40.0056 13.9193 40.0056 16.8858C40.0056 17.2681 39.9345 17.6363 39.8384 18.0524L39.673 18.9417L40.2279 19.6086C41.2373 20.8491 41.7871 22.4003 41.784 23.9996C41.784 26.1337 40.8735 28.0366 39.3938 29.3349C38.1791 28.259 36.6301 27.5565 34.8926 27.5565C33.8416 27.5565 32.8553 27.7902 31.9715 28.2132C31.0943 28.633 31.0053 29.7697 31.6294 30.5156C32.263 31.2727 33.415 31.3005 34.3908 31.1506C34.5559 31.1252 34.7236 31.1126 34.8926 31.1134C36.6088 31.1134 37.9764 32.3992 38.172 34.0585C38.0262 36.4007 36.157 38.2272 33.781 38.2272C33.621 38.2272 33.4253 38.22 33.1141 38.172L31.3908 37.8928L31.0582 39.6179C30.9517 40.2307 30.6301 40.7855 30.1512 41.1825C29.6724 41.5795 29.0677 41.7928 28.4457 41.784C26.9518 41.784 25.778 40.6103 25.778 39.1164V20.3875C26.8327 21.2054 28.0541 21.766 29.3455 22.0361C30.3073 22.2372 31.1134 21.4232 31.1134 20.4405C31.1134 19.4595 30.2966 18.6939 29.3682 18.377C27.2698 17.6607 25.778 15.683 25.778 13.3289V9.77199C25.778 7.78547 27.3484 6.2151 29.3349 6.2151Z" fill="#F9F2E0"/>
</svg>
