<svg width="48" height="48" viewBox="0 0 48 48" fill="none" xmlns="http://www.w3.org/2000/svg">
<mask id="path-1-outside-1_568_240" maskUnits="userSpaceOnUse" x="4" y="2" width="40" height="44" fill="black">
<rect fill="white" x="4" y="2" width="40" height="44"/>
<path fill-rule="evenodd" clip-rule="evenodd" d="M19.7778 3C20.0577 3 20.3262 3.11062 20.5242 3.30754C20.7221 3.50445 20.8333 3.77152 20.8333 4.05V12.8102C20.8333 13.4997 20.6968 14.1825 20.4314 14.8196C20.1661 15.4566 19.7772 16.0354 19.2869 16.5229L18.756 17.0521C18.3504 17.4553 18.1023 17.9889 18.0561 18.5574C18.0099 19.1259 18.1686 19.6922 18.5039 20.1549C18.8391 20.6176 19.329 20.9465 19.8858 21.0827C20.4426 21.2189 21.0299 21.1536 21.5427 20.8983L21.7981 20.7712C22.4816 20.4313 23.2353 20.2543 23.9995 20.2543C24.7637 20.2543 25.5173 20.4313 26.2008 20.7712L26.4573 20.8972C26.9699 21.1518 27.5568 21.2167 28.1131 21.0804C28.6694 20.944 29.1588 20.6153 29.4938 20.153C29.8289 19.6908 29.9877 19.125 29.9419 18.5569C29.8962 17.9888 29.6488 17.4555 29.244 17.0521L28.7131 16.5229C28.2228 16.0354 27.8339 15.4566 27.5686 14.8196C27.3032 14.1825 27.1667 13.4997 27.1667 12.8102V4.05C27.1667 3.77152 27.2779 3.50445 27.4758 3.30754C27.6738 3.11062 27.9423 3 28.2222 3C28.5022 3 28.7707 3.11062 28.9686 3.30754C29.1666 3.50445 29.2778 3.77152 29.2778 4.05V5.8392C37.2039 8.1135 43 15.3837 43 24C43 32.6163 37.2039 39.8865 29.2778 42.1618V43.95C29.2778 44.2285 29.1666 44.4955 28.9686 44.6925C28.7707 44.8894 28.5022 45 28.2222 45C27.9423 45 27.6738 44.8894 27.4758 44.6925C27.2779 44.4955 27.1667 44.2285 27.1667 43.95V35.1898C27.1667 34.5003 27.3032 33.8175 27.5686 33.1804C27.8339 32.5434 28.2228 31.9646 28.7131 31.477L29.244 30.9478C29.6496 30.5447 29.8977 30.0111 29.9439 29.4426C29.9901 28.8741 29.8314 28.3078 29.4961 27.8451C29.1609 27.3824 28.671 27.0535 28.1142 26.9173C27.5574 26.7811 26.9701 26.8464 26.4573 27.1017L26.2019 27.2288C25.5184 27.5687 24.7647 27.7457 24.0005 27.7457C23.2363 27.7457 22.4827 27.5687 21.7992 27.2288L21.5427 27.1027C21.0301 26.8482 20.4432 26.7833 19.8869 26.9196C19.3306 27.056 18.8412 27.3847 18.5062 27.847C18.1711 28.3092 18.0123 28.875 18.0581 29.4431C18.1038 30.0112 18.3512 30.5445 18.756 30.9478L19.2869 31.477C19.7772 31.9646 20.1661 32.5434 20.4314 33.1804C20.6968 33.8175 20.8333 34.5003 20.8333 35.1898V43.95C20.8333 44.2285 20.7221 44.4955 20.5242 44.6925C20.3262 44.8894 20.0577 45 19.7778 45C19.4978 45 19.2293 44.8894 19.0314 44.6925C18.8334 44.4955 18.7222 44.2285 18.7222 43.95V42.1618C10.7961 39.8865 5 32.6173 5 24C5 15.3837 10.7961 8.1135 18.7222 5.8392V4.05C18.7222 3.77152 18.8334 3.50445 19.0314 3.30754C19.2293 3.11062 19.4978 3 19.7778 3ZM18.7222 8.03685C11.9793 10.2418 7.11111 16.5555 7.11111 24C7.11111 31.4445 11.9793 37.7592 18.7222 39.9631V35.1898C18.722 34.3545 18.3883 33.5534 17.7944 32.9628L17.2624 32.4336C16.5026 31.6776 16.038 30.6773 15.9518 29.6117C15.8656 28.5462 16.1633 27.4848 16.7917 26.6176C17.4201 25.7504 18.3382 25.134 19.3817 24.8785C20.4253 24.623 21.5261 24.7452 22.4874 25.2232L22.7428 25.3503C23.5345 25.744 24.4655 25.744 25.2572 25.3503L25.5126 25.2243C26.4737 24.747 27.5741 24.6252 28.6171 24.8808C29.6602 25.1364 30.5778 25.7527 31.206 26.6195C31.8342 27.4863 32.132 28.547 32.0462 29.6122C31.9604 30.6773 31.4966 31.6774 30.7376 32.4336L30.2056 32.9628C29.612 33.5531 29.2782 34.3538 29.2778 35.1888V39.9631C36.0207 37.7581 40.8889 31.4445 40.8889 24C40.8889 16.5555 36.0207 10.2408 29.2778 8.03685V12.8102C29.278 13.6455 29.6117 14.4466 30.2056 15.0372L30.7376 15.5664C31.4974 16.3224 31.962 17.3227 32.0482 18.3883C32.1344 19.4538 31.8367 20.5152 31.2083 21.3824C30.5799 22.2496 29.6618 22.866 28.6183 23.1215C27.5747 23.377 26.4739 23.2548 25.5126 22.7767L25.2572 22.6497C24.8668 22.4555 24.4364 22.3545 24 22.3545C23.5636 22.3545 23.1332 22.4555 22.7428 22.6497L22.4874 22.7757C21.5263 23.253 20.4259 23.3748 19.3829 23.1192C18.3398 22.8636 17.4222 22.2473 16.794 21.3805C16.1658 20.5137 15.868 19.453 15.9538 18.3878C16.0396 17.3227 16.5034 16.3226 17.2624 15.5664L17.7944 15.0372C18.388 14.4469 18.7218 13.6462 18.7222 12.8112V8.0358V8.03685Z"/>
</mask>
<path fill-rule="evenodd" clip-rule="evenodd" d="M19.7778 3C20.0577 3 20.3262 3.11062 20.5242 3.30754C20.7221 3.50445 20.8333 3.77152 20.8333 4.05V12.8102C20.8333 13.4997 20.6968 14.1825 20.4314 14.8196C20.1661 15.4566 19.7772 16.0354 19.2869 16.5229L18.756 17.0521C18.3504 17.4553 18.1023 17.9889 18.0561 18.5574C18.0099 19.1259 18.1686 19.6922 18.5039 20.1549C18.8391 20.6176 19.329 20.9465 19.8858 21.0827C20.4426 21.2189 21.0299 21.1536 21.5427 20.8983L21.7981 20.7712C22.4816 20.4313 23.2353 20.2543 23.9995 20.2543C24.7637 20.2543 25.5173 20.4313 26.2008 20.7712L26.4573 20.8972C26.9699 21.1518 27.5568 21.2167 28.1131 21.0804C28.6694 20.944 29.1588 20.6153 29.4938 20.153C29.8289 19.6908 29.9877 19.125 29.9419 18.5569C29.8962 17.9888 29.6488 17.4555 29.244 17.0521L28.7131 16.5229C28.2228 16.0354 27.8339 15.4566 27.5686 14.8196C27.3032 14.1825 27.1667 13.4997 27.1667 12.8102V4.05C27.1667 3.77152 27.2779 3.50445 27.4758 3.30754C27.6738 3.11062 27.9423 3 28.2222 3C28.5022 3 28.7707 3.11062 28.9686 3.30754C29.1666 3.50445 29.2778 3.77152 29.2778 4.05V5.8392C37.2039 8.1135 43 15.3837 43 24C43 32.6163 37.2039 39.8865 29.2778 42.1618V43.95C29.2778 44.2285 29.1666 44.4955 28.9686 44.6925C28.7707 44.8894 28.5022 45 28.2222 45C27.9423 45 27.6738 44.8894 27.4758 44.6925C27.2779 44.4955 27.1667 44.2285 27.1667 43.95V35.1898C27.1667 34.5003 27.3032 33.8175 27.5686 33.1804C27.8339 32.5434 28.2228 31.9646 28.7131 31.477L29.244 30.9478C29.6496 30.5447 29.8977 30.0111 29.9439 29.4426C29.9901 28.8741 29.8314 28.3078 29.4961 27.8451C29.1609 27.3824 28.671 27.0535 28.1142 26.9173C27.5574 26.7811 26.9701 26.8464 26.4573 27.1017L26.2019 27.2288C25.5184 27.5687 24.7647 27.7457 24.0005 27.7457C23.2363 27.7457 22.4827 27.5687 21.7992 27.2288L21.5427 27.1027C21.0301 26.8482 20.4432 26.7833 19.8869 26.9196C19.3306 27.056 18.8412 27.3847 18.5062 27.847C18.1711 28.3092 18.0123 28.875 18.0581 29.4431C18.1038 30.0112 18.3512 30.5445 18.756 30.9478L19.2869 31.477C19.7772 31.9646 20.1661 32.5434 20.4314 33.1804C20.6968 33.8175 20.8333 34.5003 20.8333 35.1898V43.95C20.8333 44.2285 20.7221 44.4955 20.5242 44.6925C20.3262 44.8894 20.0577 45 19.7778 45C19.4978 45 19.2293 44.8894 19.0314 44.6925C18.8334 44.4955 18.7222 44.2285 18.7222 43.95V42.1618C10.7961 39.8865 5 32.6173 5 24C5 15.3837 10.7961 8.1135 18.7222 5.8392V4.05C18.7222 3.77152 18.8334 3.50445 19.0314 3.30754C19.2293 3.11062 19.4978 3 19.7778 3ZM18.7222 8.03685C11.9793 10.2418 7.11111 16.5555 7.11111 24C7.11111 31.4445 11.9793 37.7592 18.7222 39.9631V35.1898C18.722 34.3545 18.3883 33.5534 17.7944 32.9628L17.2624 32.4336C16.5026 31.6776 16.038 30.6773 15.9518 29.6117C15.8656 28.5462 16.1633 27.4848 16.7917 26.6176C17.4201 25.7504 18.3382 25.134 19.3817 24.8785C20.4253 24.623 21.5261 24.7452 22.4874 25.2232L22.7428 25.3503C23.5345 25.744 24.4655 25.744 25.2572 25.3503L25.5126 25.2243C26.4737 24.747 27.5741 24.6252 28.6171 24.8808C29.6602 25.1364 30.5778 25.7527 31.206 26.6195C31.8342 27.4863 32.132 28.547 32.0462 29.6122C31.9604 30.6773 31.4966 31.6774 30.7376 32.4336L30.2056 32.9628C29.612 33.5531 29.2782 34.3538 29.2778 35.1888V39.9631C36.0207 37.7581 40.8889 31.4445 40.8889 24C40.8889 16.5555 36.0207 10.2408 29.2778 8.03685V12.8102C29.278 13.6455 29.6117 14.4466 30.2056 15.0372L30.7376 15.5664C31.4974 16.3224 31.962 17.3227 32.0482 18.3883C32.1344 19.4538 31.8367 20.5152 31.2083 21.3824C30.5799 22.2496 29.6618 22.866 28.6183 23.1215C27.5747 23.377 26.4739 23.2548 25.5126 22.7767L25.2572 22.6497C24.8668 22.4555 24.4364 22.3545 24 22.3545C23.5636 22.3545 23.1332 22.4555 22.7428 22.6497L22.4874 22.7757C21.5263 23.253 20.4259 23.3748 19.3829 23.1192C18.3398 22.8636 17.4222 22.2473 16.794 21.3805C16.1658 20.5137 15.868 19.453 15.9538 18.3878C16.0396 17.3227 16.5034 16.3226 17.2624 15.5664L17.7944 15.0372C18.388 14.4469 18.7218 13.6462 18.7222 12.8112V8.0358V8.03685Z" fill="#176953"/>
<path fill-rule="evenodd" clip-rule="evenodd" d="M19.7778 3C20.0577 3 20.3262 3.11062 20.5242 3.30754C20.7221 3.50445 20.8333 3.77152 20.8333 4.05V12.8102C20.8333 13.4997 20.6968 14.1825 20.4314 14.8196C20.1661 15.4566 19.7772 16.0354 19.2869 16.5229L18.756 17.0521C18.3504 17.4553 18.1023 17.9889 18.0561 18.5574C18.0099 19.1259 18.1686 19.6922 18.5039 20.1549C18.8391 20.6176 19.329 20.9465 19.8858 21.0827C20.4426 21.2189 21.0299 21.1536 21.5427 20.8983L21.7981 20.7712C22.4816 20.4313 23.2353 20.2543 23.9995 20.2543C24.7637 20.2543 25.5173 20.4313 26.2008 20.7712L26.4573 20.8972C26.9699 21.1518 27.5568 21.2167 28.1131 21.0804C28.6694 20.944 29.1588 20.6153 29.4938 20.153C29.8289 19.6908 29.9877 19.125 29.9419 18.5569C29.8962 17.9888 29.6488 17.4555 29.244 17.0521L28.7131 16.5229C28.2228 16.0354 27.8339 15.4566 27.5686 14.8196C27.3032 14.1825 27.1667 13.4997 27.1667 12.8102V4.05C27.1667 3.77152 27.2779 3.50445 27.4758 3.30754C27.6738 3.11062 27.9423 3 28.2222 3C28.5022 3 28.7707 3.11062 28.9686 3.30754C29.1666 3.50445 29.2778 3.77152 29.2778 4.05V5.8392C37.2039 8.1135 43 15.3837 43 24C43 32.6163 37.2039 39.8865 29.2778 42.1618V43.95C29.2778 44.2285 29.1666 44.4955 28.9686 44.6925C28.7707 44.8894 28.5022 45 28.2222 45C27.9423 45 27.6738 44.8894 27.4758 44.6925C27.2779 44.4955 27.1667 44.2285 27.1667 43.95V35.1898C27.1667 34.5003 27.3032 33.8175 27.5686 33.1804C27.8339 32.5434 28.2228 31.9646 28.7131 31.477L29.244 30.9478C29.6496 30.5447 29.8977 30.0111 29.9439 29.4426C29.9901 28.8741 29.8314 28.3078 29.4961 27.8451C29.1609 27.3824 28.671 27.0535 28.1142 26.9173C27.5574 26.7811 26.9701 26.8464 26.4573 27.1017L26.2019 27.2288C25.5184 27.5687 24.7647 27.7457 24.0005 27.7457C23.2363 27.7457 22.4827 27.5687 21.7992 27.2288L21.5427 27.1027C21.0301 26.8482 20.4432 26.7833 19.8869 26.9196C19.3306 27.056 18.8412 27.3847 18.5062 27.847C18.1711 28.3092 18.0123 28.875 18.0581 29.4431C18.1038 30.0112 18.3512 30.5445 18.756 30.9478L19.2869 31.477C19.7772 31.9646 20.1661 32.5434 20.4314 33.1804C20.6968 33.8175 20.8333 34.5003 20.8333 35.1898V43.95C20.8333 44.2285 20.7221 44.4955 20.5242 44.6925C20.3262 44.8894 20.0577 45 19.7778 45C19.4978 45 19.2293 44.8894 19.0314 44.6925C18.8334 44.4955 18.7222 44.2285 18.7222 43.95V42.1618C10.7961 39.8865 5 32.6173 5 24C5 15.3837 10.7961 8.1135 18.7222 5.8392V4.05C18.7222 3.77152 18.8334 3.50445 19.0314 3.30754C19.2293 3.11062 19.4978 3 19.7778 3ZM18.7222 8.03685C11.9793 10.2418 7.11111 16.5555 7.11111 24C7.11111 31.4445 11.9793 37.7592 18.7222 39.9631V35.1898C18.722 34.3545 18.3883 33.5534 17.7944 32.9628L17.2624 32.4336C16.5026 31.6776 16.038 30.6773 15.9518 29.6117C15.8656 28.5462 16.1633 27.4848 16.7917 26.6176C17.4201 25.7504 18.3382 25.134 19.3817 24.8785C20.4253 24.623 21.5261 24.7452 22.4874 25.2232L22.7428 25.3503C23.5345 25.744 24.4655 25.744 25.2572 25.3503L25.5126 25.2243C26.4737 24.747 27.5741 24.6252 28.6171 24.8808C29.6602 25.1364 30.5778 25.7527 31.206 26.6195C31.8342 27.4863 32.132 28.547 32.0462 29.6122C31.9604 30.6773 31.4966 31.6774 30.7376 32.4336L30.2056 32.9628C29.612 33.5531 29.2782 34.3538 29.2778 35.1888V39.9631C36.0207 37.7581 40.8889 31.4445 40.8889 24C40.8889 16.5555 36.0207 10.2408 29.2778 8.03685V12.8102C29.278 13.6455 29.6117 14.4466 30.2056 15.0372L30.7376 15.5664C31.4974 16.3224 31.962 17.3227 32.0482 18.3883C32.1344 19.4538 31.8367 20.5152 31.2083 21.3824C30.5799 22.2496 29.6618 22.866 28.6183 23.1215C27.5747 23.377 26.4739 23.2548 25.5126 22.7767L25.2572 22.6497C24.8668 22.4555 24.4364 22.3545 24 22.3545C23.5636 22.3545 23.1332 22.4555 22.7428 22.6497L22.4874 22.7757C21.5263 23.253 20.4259 23.3748 19.3829 23.1192C18.3398 22.8636 17.4222 22.2473 16.794 21.3805C16.1658 20.5137 15.868 19.453 15.9538 18.3878C16.0396 17.3227 16.5034 16.3226 17.2624 15.5664L17.7944 15.0372C18.388 14.4469 18.7218 13.6462 18.7222 12.8112V8.0358V8.03685Z" stroke="#176953" mask="url(#path-1-outside-1_568_240)"/>
</svg>
