<svg width="64" height="64" viewBox="0 0 64 64" fill="none" xmlns="http://www.w3.org/2000/svg">
<path d="M46.832 32.8887V8.88867C46.832 8.13867 46.5716 7.50325 46.0508 6.98242C45.5299 6.46159 44.9154 6.20117 44.207 6.20117H9.51953C8.76953 6.20117 8.13411 6.46159 7.61328 6.98242C7.09245 7.50325 6.83203 8.13867 6.83203 8.88867V46.2012L17.5195 35.5762H44.207C44.9154 35.5762 45.5299 35.3158 46.0508 34.7949C46.5716 34.2741 46.832 33.6387 46.832 32.8887ZM41.5195 30.2012H14.832L12.207 32.8887V11.5762H41.5195V30.2012ZM54.832 14.2012H52.207V43.5762L49.5195 40.8887H22.832V38.2012H17.5195V43.5762C17.5195 44.2845 17.7799 44.8991 18.3008 45.4199C18.8216 45.9408 19.457 46.2012 20.207 46.2012H46.832L57.5195 56.8887V16.8887C57.5195 16.1387 57.2591 15.5033 56.7383 14.9824C56.2174 14.4616 55.582 14.2012 54.832 14.2012ZM49.5195 14.2012H52.207V19.5762H49.5195V14.2012Z" fill="#645A41"/>
</svg>
