<svg width="48" height="48" viewBox="0 0 48 48" fill="none" xmlns="http://www.w3.org/2000/svg">
<path d="M38.5621 36.4396C38.7015 36.579 38.812 36.7444 38.8874 36.9265C38.9628 37.1086 39.0017 37.3037 39.0017 37.5008C39.0017 37.6979 38.9628 37.8931 38.8874 38.0752C38.812 38.2573 38.7015 38.4227 38.5621 38.5621C38.4227 38.7015 38.2573 38.812 38.0752 38.8874C37.8931 38.9628 37.6979 39.0017 37.5008 39.0017C37.3037 39.0017 37.1086 38.9628 36.9265 38.8874C36.7444 38.812 36.579 38.7015 36.4396 38.5621L24.0008 26.1215L11.5621 38.5621C11.2806 38.8435 10.8989 39.0017 10.5008 39.0017C10.1028 39.0017 9.72105 38.8435 9.43958 38.5621C9.15812 38.2806 9 37.8989 9 37.5008C9 37.1028 9.15812 36.721 9.43958 36.4396L21.8802 24.0008L9.43958 11.5621C9.15812 11.2806 9 10.8989 9 10.5008C9 10.1028 9.15812 9.72105 9.43958 9.43958C9.72105 9.15812 10.1028 9 10.5008 9C10.8989 9 11.2806 9.15812 11.5621 9.43958L24.0008 21.8802L36.4396 9.43958C36.721 9.15812 37.1028 9 37.5008 9C37.8989 9 38.2806 9.15812 38.5621 9.43958C38.8435 9.72105 39.0017 10.1028 39.0017 10.5008C39.0017 10.8989 38.8435 11.2806 38.5621 11.5621L26.1215 24.0008L38.5621 36.4396Z" fill="#353831"/>
</svg>
