<svg width="22" height="22" viewBox="0 0 22 22" fill="none" xmlns="http://www.w3.org/2000/svg">
<path d="M19.7368 6.67429L8.73679 17.6743C8.67294 17.7382 8.59711 17.7889 8.51365 17.8235C8.43019 17.8581 8.34073 17.8759 8.25038 17.8759C8.16003 17.8759 8.07057 17.8581 7.98711 17.8235C7.90365 17.7889 7.82783 17.7382 7.76398 17.6743L2.95148 12.8618C2.82247 12.7328 2.75 12.5578 2.75 12.3754C2.75 12.1929 2.82247 12.018 2.95148 11.889C3.08048 11.76 3.25544 11.6875 3.43788 11.6875C3.62032 11.6875 3.79529 11.76 3.92429 11.889L8.25038 16.2159L18.764 5.70148C18.893 5.57247 19.0679 5.5 19.2504 5.5C19.4328 5.5 19.6078 5.57247 19.7368 5.70148C19.8658 5.83048 19.9383 6.00544 19.9383 6.18788C19.9383 6.37032 19.8658 6.54529 19.7368 6.67429Z" fill="white" stroke="white"/>
</svg>
