<svg width="14" height="23" viewBox="0 0 14 23" fill="none" xmlns="http://www.w3.org/2000/svg">
<path d="M12.7166 12.1542L2.53338 21.7504C2.36346 21.9106 2.13772 22 1.90298 22C1.66823 22 1.44249 21.9106 1.27258 21.7504L1.26162 21.7396C1.17896 21.6619 1.11314 21.5684 1.06817 21.4648C1.02319 21.3612 0.999999 21.2496 0.999999 21.1369C0.999999 21.0241 1.02319 20.9126 1.06817 20.8089C1.11314 20.7053 1.17896 20.6119 1.26162 20.5342L10.851 11.4982L1.26162 2.46581C1.17896 2.38815 1.11314 2.29467 1.06817 2.19106C1.02319 2.08744 1 1.97587 1 1.86311C1 1.75035 1.02319 1.63877 1.06817 1.53516C1.11314 1.43155 1.17896 1.33807 1.26162 1.26041L1.27258 1.24957C1.44249 1.08937 1.66823 1 1.90298 1C2.13772 1 2.36346 1.08937 2.53338 1.24957L12.7166 10.8458C12.8062 10.9302 12.8774 11.0317 12.9262 11.1441C12.9749 11.2566 13 11.3777 13 11.5C13 11.6223 12.9749 11.7434 12.9262 11.8559C12.8774 11.9683 12.8062 12.0698 12.7166 12.1542Z" fill="#90815A" stroke="#90815A"/>
</svg>
