<svg width="80" height="81" viewBox="0 0 80 81" fill="none" xmlns="http://www.w3.org/2000/svg">
<g id="inje_logo" clip-path="url(#clip0_208_2773)">
<path id="Vector" d="M0 40.4959C0 62.5555 17.9436 80.5 39.9939 80.5C62.0441 80.5 80 62.5555 80 40.4959C80 18.4364 62.0564 0.5 39.9939 0.5C17.9314 0.5 0 18.4405 0 40.4959Z" fill="white"/>
<path id="Vector_2" d="M39.9989 17.8788C42.7504 19.9617 46.4253 21.7057 50.6333 22.7413C52.4614 23.1958 54.3252 23.4922 56.2041 23.6273V51.7364C56.2041 56.9238 53.6045 58.0834 53.6045 58.0834L39.9989 64.7226L26.3932 58.0834C26.3932 58.0834 23.7936 56.9145 23.7936 51.7364V23.6273C25.6725 23.4918 27.5363 23.1954 29.3645 22.7413C33.5724 21.7057 37.2473 19.9617 39.9989 17.8788ZM39.9989 16.3265L39.2508 16.8923C36.5109 18.9752 32.9903 20.5719 29.0629 21.5467C27.3037 21.9837 25.5103 22.2691 23.7024 22.4L22.5499 22.4795V51.7364C22.5499 54.1443 23.0619 56.1033 24.0695 57.5597C24.5168 58.2474 25.1313 58.8105 25.8555 59.1961L39.4518 65.8306L39.9942 66.0948L40.5365 65.8306L54.1329 59.1961C54.8561 58.8101 55.4698 58.2471 55.9166 57.5597C56.9265 56.1033 57.4361 54.1443 57.4361 51.7364V22.4818L56.2859 22.4023C54.4788 22.2703 52.6862 21.9841 50.9278 21.5467C47.0051 20.5789 43.4844 18.9752 40.7446 16.8993L39.9989 16.3336V16.3265Z" fill="#231916"/>
<path id="Vector_3" d="M34.0773 28.3261C33.9368 27.9525 33.8655 27.5564 33.8669 27.1573V26.8089H34.6033V26.2222H32.4455V26.7926H33.2123V27.1409C33.2119 27.5489 33.1325 27.953 32.9785 28.3308C32.7954 28.7382 32.5133 29.0934 32.158 29.3641L32.1393 29.3781L32.6068 29.7522H32.6185C32.8454 29.5843 33.0443 29.3815 33.2076 29.1514C33.3453 28.9655 33.4556 28.7608 33.5349 28.5435C33.603 28.7525 33.7057 28.9485 33.8388 29.1233C33.9879 29.3343 34.1685 29.5211 34.3742 29.6774H34.3859L34.7973 29.2963L34.8113 29.2823L34.795 29.2683C34.4755 29.0243 34.2276 28.6989 34.0773 28.3261Z" fill="#231916"/>
<path id="Vector_4" d="M36.6675 25.8762H36.0457V30.8206H36.6675V25.8762Z" fill="#231916"/>
<path id="Vector_5" d="M35.0241 27.3608H34.3041V27.9662H35.0241V30.8206H35.6389V25.8833H35.0241V27.3608Z" fill="#231916"/>
<path id="Vector_6" d="M39.4425 29.0415C39.2493 29.0655 39.055 29.0788 38.8604 29.0812H38.4629V26.7832H39.6599V26.2222H37.806V29.6797H38.6967C38.8861 29.6797 39.1128 29.6657 39.37 29.64C39.579 29.6228 39.7862 29.5884 39.9895 29.5371V28.962H39.9684C39.7946 28.9975 39.619 29.024 39.4425 29.0415Z" fill="#231916"/>
<path id="Vector_7" d="M41.2659 27.6202H40.824V25.8832H40.1975V30.8206H40.824V28.2186H41.2659V30.8206H41.8877V25.8762H41.2659V27.6202Z" fill="#231916"/>
<path id="Vector_8" d="M51.5964 27.8586L51.5847 28.0503C51.559 28.408 51.5356 28.7774 51.4842 29.079V29.1023H52.1458V29.086C52.2019 28.726 52.2299 28.2701 52.258 27.8306V27.7254V27.6179C52.2907 27.0989 52.3118 26.6196 52.3188 26.1872V26.1685H48.7V26.7506H51.6432C51.6385 27.0802 51.6245 27.4519 51.5964 27.8586Z" fill="#231916"/>
<path id="Vector_9" d="M51.2154 29.8504V28.1415H50.5702V29.8504H49.9974V28.1415H49.3545V29.8504H48.2488V30.4278H52.9547V29.8504H51.2154Z" fill="#231916"/>
<path id="Vector_10" d="M46.9793 25.8669H46.3201V28.892H46.9793V27.7161H47.6409V27.127H46.9793V25.8669Z" fill="#231916"/>
<path id="Vector_11" d="M45.7918 26.2877H44.7235V25.7687H44.0502V26.2877H42.9327V26.837H45.7918V26.2877Z" fill="#231916"/>
<path id="Vector_12" d="M45.3008 28.6441C45.4194 28.5638 45.5166 28.4556 45.5837 28.3291C45.6508 28.2026 45.6859 28.0615 45.6859 27.9182C45.6859 27.775 45.6508 27.6339 45.5837 27.5074C45.5166 27.3809 45.4194 27.2727 45.3008 27.1924C45.0324 27.0006 44.7108 26.8976 44.3809 26.8976C44.0511 26.8976 43.7295 27.0006 43.461 27.1924C43.3429 27.273 43.2463 27.3813 43.1795 27.5078C43.1127 27.6343 43.0778 27.7752 43.0778 27.9182C43.0778 28.0613 43.1127 28.2022 43.1795 28.3287C43.2463 28.4552 43.3429 28.5634 43.461 28.6441C43.7301 28.8342 44.0515 28.9363 44.3809 28.9363C44.7104 28.9363 45.0318 28.8342 45.3008 28.6441ZM43.7392 27.9288C43.7407 27.8626 43.7585 27.7979 43.7912 27.7404C43.8238 27.6829 43.8702 27.6343 43.9262 27.5991C44.0634 27.5091 44.2239 27.4612 44.3879 27.4612C44.552 27.4612 44.7125 27.5091 44.8497 27.5991C44.9051 27.6348 44.9509 27.6834 44.9831 27.7409C45.0153 27.7984 45.0329 27.8629 45.0343 27.9288C45.0326 27.9939 45.0148 28.0576 44.9826 28.1143C44.9504 28.171 44.9047 28.2188 44.8497 28.2537C44.7125 28.3437 44.552 28.3917 44.3879 28.3917C44.2239 28.3917 44.0634 28.3437 43.9262 28.2537C43.8706 28.2193 43.8244 28.1716 43.7917 28.1148C43.7591 28.0581 43.741 27.9942 43.7392 27.9288Z" fill="#231916"/>
<path id="Vector_13" d="M31.1785 25.8833H30.5193V29.4577H31.1785V25.8833Z" fill="#231916"/>
<path id="Vector_14" d="M29.3644 28.228C29.4912 28.1075 29.5921 27.9625 29.661 27.8017C29.73 27.641 29.7656 27.4679 29.7656 27.293C29.7656 27.118 29.73 26.9449 29.661 26.7842C29.5921 26.6234 29.4912 26.4784 29.3644 26.3579C29.1064 26.109 28.762 25.97 28.4036 25.97C28.0452 25.97 27.7007 26.109 27.4428 26.3579C27.316 26.4784 27.2151 26.6234 27.1461 26.7842C27.0772 26.9449 27.0416 27.118 27.0416 27.293C27.0416 27.4679 27.0772 27.641 27.1461 27.8017C27.2151 27.9625 27.316 28.1075 27.4428 28.228C27.7013 28.4758 28.0455 28.6141 28.4036 28.6141C28.7617 28.6141 29.1059 28.4758 29.3644 28.228ZM27.7069 27.293C27.7055 27.1989 27.7229 27.1056 27.7583 27.0184C27.7936 26.9313 27.8461 26.8521 27.9127 26.7857C27.9754 26.7184 28.0514 26.6649 28.136 26.6287C28.2205 26.5925 28.3116 26.5743 28.4036 26.5753C28.4956 26.5739 28.5869 26.5919 28.6715 26.6281C28.7561 26.6644 28.8321 26.7181 28.8945 26.7857C29.0253 26.9226 29.0982 27.1047 29.0982 27.2941C29.0982 27.4835 29.0253 27.6656 28.8945 27.8026C28.8316 27.8694 28.7555 27.9224 28.6709 27.9583C28.5864 27.9941 28.4954 28.0119 28.4036 28.0106C28.3119 28.0115 28.221 27.9935 28.1365 27.9577C28.052 27.9219 27.9758 27.8691 27.9127 27.8026C27.8461 27.7361 27.7936 27.657 27.7583 27.5698C27.7229 27.4827 27.7055 27.3893 27.7069 27.2953V27.293Z" fill="#231916"/>
<path id="Vector_15" d="M28.5813 29.0906H27.9104V30.8299H31.2697V30.2501H28.5813V29.0906Z" fill="#231916"/>
<path id="Vector_16" d="M43.6691 29.8434H46.2803V30.8206H46.9606V29.2706H43.6691V29.8434Z" fill="#231916"/>
<path id="Vector_17" d="M35.653 33.1162V41.5461H38.4442V35.9028H40.0503C41.5581 35.9028 41.4202 37.2727 41.4202 37.2727V37.8455H44.0946V35.9028C44.0946 35.9028 43.9823 33.1162 41.0976 33.1162H35.653Z" fill="#231916"/>
<path id="Vector_18" d="M41.4388 41.67H47.0798V43.2714C47.0798 44.7769 45.7076 44.639 45.7076 44.639H45.1372V47.318H47.0798C47.0798 47.318 49.8688 47.2035 49.8688 44.321V38.8811H41.4388V41.67Z" fill="#231916"/>
<path id="Vector_19" d="M44.202 44.5198H41.4131V50.1654H39.8164C38.3086 50.1654 38.4489 48.7932 38.4489 48.7932V48.2228H35.7675V50.1654C35.7675 50.1654 35.882 52.9544 38.7621 52.9544H44.202V44.5198Z" fill="#231916"/>
<path id="Vector_20" d="M29.9979 47.318H38.4348V44.5244H32.8032V42.9277C32.8032 41.4222 34.1778 41.5602 34.1778 41.5602H34.7459V38.8811H32.8032C32.8032 38.8811 29.9979 38.9957 29.9979 41.8851V47.318Z" fill="#231916"/>
<path id="Vector_21" d="M30.6525 54.1185L29.9722 53.7959L28.3194 57.2815L28.2797 57.361L28.9623 57.6836L30.6151 54.2003L30.6525 54.1185Z" fill="#231916"/>
<path id="Vector_22" d="M34.0095 55.7199L33.3737 55.4183L32.2445 57.7982L32.2913 54.9975L32.2936 54.904L31.4848 54.5206L29.8296 58.0062L29.7922 58.0857L30.4281 58.3873L31.5736 55.97L31.5292 58.8174L31.5268 58.9086L32.317 59.285L33.9721 55.7994L34.0095 55.7199Z" fill="#231916"/>
<path id="Vector_23" d="M36.366 56.9074L35.6857 56.5848L34.5636 58.9506C34.3438 59.4182 34.2059 59.5865 33.9067 59.4439C33.6986 59.3457 33.6963 59.2101 33.8856 58.787L33.9254 58.6982L33.9815 58.5719L33.2802 58.2423L33.2194 58.3709C33.0569 58.6463 32.9721 58.9605 32.9739 59.2803C33.007 59.4498 33.0812 59.6086 33.19 59.7427C33.2989 59.8768 33.439 59.9821 33.5981 60.0494C33.7812 60.1417 33.9823 60.1928 34.1872 60.199C34.2905 60.1995 34.3932 60.1829 34.4911 60.1499C34.633 60.0944 34.762 60.0103 34.8702 59.903C34.9783 59.7956 35.0634 59.6672 35.12 59.5257L36.3239 56.9893L36.366 56.9074Z" fill="#231916"/>
<path id="Vector_24" d="M35.4612 60.8232L35.4238 60.9027L37.4132 61.8472L37.7101 61.2206L36.4033 60.5988L36.8218 59.7151L38.0117 60.2785L38.3086 59.652L37.1187 59.0886L37.4997 58.2868L38.7808 58.8946L39.0777 58.2681L37.1164 57.3376L35.4612 60.8232Z" fill="#231916"/>
<path id="Vector_25" d="M43.1127 57.153L42.4347 57.4779L43.5077 59.7198C43.6371 59.9299 43.6983 60.1749 43.6831 60.4211C43.655 60.5497 43.5709 60.6362 43.3932 60.7204C43.3323 60.7604 43.2626 60.785 43.1901 60.7919C43.1175 60.7989 43.0444 60.7879 42.9771 60.7601C42.7731 60.6159 42.6182 60.4128 42.5329 60.178L41.4529 57.9455L40.7726 58.2704L41.8386 60.4936C41.9878 60.8818 42.2648 61.2075 42.6241 61.417C42.7532 61.4759 42.8936 61.5062 43.0355 61.5058C43.2596 61.4995 43.4793 61.4428 43.6784 61.3399C43.8498 61.2749 44.004 61.1713 44.1288 61.0371C44.2537 60.9029 44.346 60.7417 44.3984 60.5661C44.4779 60.2458 44.3984 59.8647 44.1647 59.3762L43.1127 57.153Z" fill="#231916"/>
<path id="Vector_26" d="M45.7894 55.8765L46.9279 58.2517L44.7094 56.3955L43.9028 56.7812L45.607 60.3393L46.2406 60.0354L45.0857 57.6252L47.2692 59.4486L47.3393 59.5094L48.1295 59.1307L46.4229 55.5726L45.7894 55.8765Z" fill="#231916"/>
<path id="Vector_27" d="M47.8108 54.8289L47.132 55.1543L48.8376 58.7127L49.5164 58.3874L47.8108 54.8289Z" fill="#231916"/>
<path id="Vector_28" d="M50.9559 53.5294L50.9255 53.3401L50.2218 53.6767L50.7642 56.5405L48.887 54.3173L48.1576 54.6679L50.8203 57.6509L50.8928 57.7304L51.5894 57.3961L50.9559 53.5294Z" fill="#231916"/>
<path id="Vector_29" d="M39.9988 13.1308C45.4512 13.1231 50.7805 14.7519 55.297 17.8063C58.2106 19.7755 60.7198 22.2847 62.689 25.1983C65.7414 29.7167 67.3725 35.0449 67.3725 40.4977C67.3725 45.9505 65.7414 51.2787 62.689 55.7971C59.717 60.1947 55.5356 63.638 50.6496 65.7114C45.6323 67.8292 40.0974 68.4021 34.7527 67.3568C29.4081 66.3115 24.4967 63.6956 20.647 59.8437C18.1509 57.3495 16.1601 54.3966 14.7839 51.1473C13.0115 46.9538 12.314 42.3842 12.7544 37.8529C13.1949 33.3216 14.7595 28.9719 17.3063 25.1983C19.2748 22.2849 21.7832 19.7757 24.6959 17.8063C29.2144 14.7523 34.545 13.1236 39.9988 13.1308ZM39.9988 11.8918C36.173 11.8849 32.3851 12.6498 28.8618 14.1408C22.0022 17.045 16.5412 22.5035 13.6337 29.3618C11.781 33.7441 11.0518 38.5197 11.5123 43.2552C11.9728 47.9908 13.6084 52.5364 16.2707 56.4797C18.3292 59.5215 20.952 62.1403 23.997 64.1942C28.7207 67.3845 34.2905 69.0891 39.9906 69.0891C45.6907 69.0891 51.2606 67.3845 55.9843 64.1942C60.5819 61.0904 64.1808 56.72 66.3452 51.6125C68.1992 47.2304 68.9291 42.4546 68.4685 37.7189C68.008 32.9831 66.3717 28.4374 63.7083 24.4946C60.6053 19.8948 56.2337 16.2947 51.1242 14.1314C47.6025 12.6405 43.8161 11.8756 39.9918 11.8825L39.9988 11.8918Z" fill="#231916"/>
<path id="Vector_30" d="M23.6838 66.7752L23.0876 66.324L22.391 67.2497L21.5471 66.6162L21.152 67.1398L21.9959 67.7757L21.166 68.8791L21.152 68.8978L21.7481 69.3467L23.6697 66.7939L23.6838 66.7752Z" fill="#231916"/>
<path id="Vector_31" d="M18.2555 66.5062C18.5807 66.6023 18.9195 66.6442 19.2583 66.6301C19.5042 66.6316 19.7484 66.5913 19.9807 66.5109C19.9787 66.7405 20.015 66.9688 20.0882 67.1865C20.1677 67.4527 20.2834 67.7068 20.4319 67.9416V67.9556L21.1332 67.7218L21.1145 67.6938C20.9089 67.414 20.7748 67.0882 20.7241 66.7447C20.6821 66.4741 20.7376 66.1973 20.8807 65.9639L20.9275 65.9007L21.741 66.5132L22.1431 65.9639L19.8989 64.2737L19.8802 64.2596L19.4781 64.795L20.2916 65.4098L20.2449 65.4706C20.0474 65.6975 19.7739 65.8446 19.4758 65.8844C19.05 65.9265 18.6202 65.8763 18.2157 65.7371H18.183L18.2414 66.5086L18.2555 66.5062Z" fill="#231916"/>
<path id="Vector_32" d="M21.18 69.3092C20.9129 68.8511 20.557 68.4512 20.133 68.1328C19.709 67.8144 19.2256 67.5841 18.7113 67.4554C18.5453 67.417 18.3719 67.4255 18.2105 67.48C18.0491 67.5345 17.906 67.6328 17.7972 67.764C17.7001 67.9042 17.6447 68.069 17.6372 68.2395C17.6298 68.4099 17.6707 68.5789 17.7552 68.7271C18.3038 69.6442 19.1901 70.3098 20.2238 70.5809C20.2918 70.592 20.3606 70.5975 20.4295 70.5973C20.564 70.6037 20.698 70.5775 20.8201 70.5209C20.9422 70.4643 21.0488 70.3791 21.1309 70.2724C21.2285 70.1326 21.2849 69.9681 21.2936 69.7978C21.3023 69.6275 21.2629 69.4582 21.18 69.3092ZM20.4786 69.7768C20.3711 69.9194 20.1584 69.8983 19.9971 69.8562C19.404 69.6492 18.8906 69.2617 18.5289 68.7481C18.4097 68.5448 18.391 68.3764 18.4775 68.2642C18.6575 68.0305 19.1672 68.1637 19.7773 68.6219C20.3875 69.0801 20.6469 69.543 20.4693 69.7814L20.4786 69.7768Z" fill="#231916"/>
<path id="Vector_33" d="M26.9753 72.0046L26.9659 72.0257L27.6392 72.3483L29.0115 69.4822L29.0208 69.4612L28.3476 69.1385L26.9753 72.0046Z" fill="#231916"/>
<path id="Vector_34" d="M23.7095 70.4711C23.9976 70.4763 24.2854 70.4489 24.5674 70.3893C24.8298 70.3365 25.0802 70.2358 25.3061 70.0924C25.3692 70.3288 25.4595 70.557 25.575 70.7727C25.6962 71.0067 25.854 71.2198 26.0425 71.4039V71.4179L26.7041 71.0859L26.6784 71.0626C26.4533 70.8541 26.2756 70.5998 26.1571 70.3168C26.0729 70.143 26.0291 69.9524 26.0291 69.7593C26.0291 69.5661 26.0729 69.3755 26.1571 69.2017L26.1711 69.1737L27.1062 69.6155L27.3937 69.0124L24.855 67.7991H24.8339L24.544 68.4022L25.4628 68.8417V68.8698C25.3795 69.0487 25.2594 69.2079 25.1104 69.3373C24.9613 69.4666 24.7867 69.563 24.5978 69.6202C24.235 69.7203 23.8585 69.7613 23.4827 69.7417H23.4476L23.6814 70.4805L23.7095 70.4711Z" fill="#231916"/>
<path id="Vector_35" d="M23.9128 70.7914L23.6229 71.3945L26.5708 72.8065L26.0308 73.938L26.0191 73.959L26.6947 74.2816L27.5246 72.547L27.534 72.526L23.9338 70.8031L23.9128 70.7914Z" fill="#231916"/>
<path id="Vector_36" d="M35.8026 72.9771C35.9283 73.1998 36.0858 73.403 36.2702 73.5802C36.5018 73.8159 36.7683 74.0146 37.0603 74.1693H37.0767L37.5653 73.6527L37.5372 73.6387C37.1855 73.4611 36.8774 73.2081 36.6349 72.8976C36.3857 72.5622 36.2775 72.1428 36.3333 71.7287L36.373 71.3336L35.5876 71.2518L35.5478 71.6493C35.5241 72.0971 35.324 72.5173 34.9914 72.8181C34.6771 73.0982 34.3153 73.3198 33.9231 73.4727H33.8927L34.3602 74.0478H34.3766C34.6589 73.9307 34.9265 73.7808 35.1738 73.6013C35.4151 73.4278 35.6274 73.2171 35.8026 72.9771Z" fill="#231916"/>
<path id="Vector_37" d="M36.7775 74.4196C36.2493 74.3418 35.7101 74.3972 35.2088 74.5809C35.0468 74.6363 34.9032 74.7352 34.7935 74.8667C34.6839 74.9982 34.6124 75.1573 34.587 75.3266C34.5762 75.4988 34.6144 75.6706 34.6971 75.822C34.7799 75.9734 34.9038 76.0983 35.0545 76.1822C35.5089 76.4589 36.0243 76.6195 36.5554 76.6498C36.7278 76.668 36.901 76.6773 37.0743 76.6778C38.0585 76.6778 38.6851 76.3412 38.7458 75.7427C38.8066 75.0812 38.0375 74.5482 36.7775 74.4196ZM37.5489 75.9929C37.2426 76.065 36.9258 76.0809 36.6138 76.0396C36.2995 76.0191 35.9918 75.9398 35.7068 75.8059C35.5595 75.7264 35.3865 75.5955 35.4052 75.4178C35.4239 75.2401 35.6179 75.1419 35.7792 75.0975C35.9563 75.052 36.1388 75.0308 36.3216 75.0344C36.4455 75.0344 36.5764 75.0344 36.7167 75.0554C37.03 75.0775 37.3366 75.1567 37.6214 75.2892C37.771 75.3664 37.944 75.4996 37.9253 75.682C37.9066 75.8643 37.7125 75.9461 37.5489 75.9929Z" fill="#231916"/>
<path id="Vector_38" d="M38.2643 72.3179L37.2076 72.2081L37.1351 72.9024L38.1918 73.0122L38.0352 74.5201L38.0328 74.5435L38.7762 74.6206L39.1012 71.481L39.1035 71.4576L38.3601 71.3805L38.2643 72.3179Z" fill="#231916"/>
<path id="Vector_39" d="M45.0448 71.0569L44.2997 71.123L44.5486 73.929L45.2938 73.8629L45.0448 71.0569Z" fill="#231916"/>
<path id="Vector_40" d="M42.3599 76.0092L42.3365 75.7381L45.3896 75.4622L45.413 75.4599L45.2868 74.0292L41.4459 74.3705L41.4225 74.3728L41.4763 74.9736L44.5457 74.7001L44.5714 74.9713L41.523 75.2425L41.4996 75.2448L41.6259 76.6802L45.5977 76.3272L45.6234 76.3248L45.5696 75.7194L42.3599 76.0092Z" fill="#231916"/>
<path id="Vector_41" d="M42.1028 73.0706C42.2767 73.243 42.4715 73.3929 42.6825 73.5171C42.9371 73.6703 43.2128 73.7853 43.5007 73.8584H43.5171L43.9052 73.2576H43.8724C43.542 73.1802 43.2299 73.0388 42.9537 72.8415C42.7931 72.7325 42.6588 72.5891 42.5605 72.4217C42.4622 72.2543 42.4025 72.0671 42.3856 71.8737L42.3482 71.4365L41.5604 71.5067L41.6002 71.9438C41.6165 72.1412 41.5929 72.3398 41.5306 72.5278C41.4684 72.7158 41.3688 72.8893 41.2378 73.0379C40.98 73.3355 40.6693 73.5828 40.3214 73.7673L40.291 73.7836L40.8684 74.2675H40.8825C41.1433 74.1149 41.3863 73.9338 41.6072 73.7275C41.8153 73.5445 41.9839 73.321 42.1028 73.0706Z" fill="#231916"/>
<path id="Vector_42" d="M53.4478 73.3348L52.9709 72.2898L52.9616 72.2688L52.2766 72.582L53.02 74.2115L53.0294 74.2325L56.7721 72.5259L56.7931 72.5166L56.5266 71.9298L53.4478 73.3348Z" fill="#231916"/>
<path id="Vector_43" d="M56.3163 70.2934L56.0451 69.7043L55.2456 70.0713C55.2059 69.896 55.1311 69.564 55.0306 69.183C54.9441 68.865 54.7407 68.1544 54.6612 67.9814V67.9603L50.8483 69.6996H50.825L51.0985 70.2981L54.1375 68.9071C54.2825 69.3443 54.4882 70.076 54.5607 70.3846L51.2083 71.9135H51.1873L51.4561 72.5049L56.3093 70.2957L56.3163 70.2934Z" fill="#231916"/>
<path id="Vector_44" d="M62.35 68.0094L59.671 69.9474L59.0211 69.0474L58.3899 69.5032L59.4255 70.9339L62.7358 68.5401L62.35 68.0094Z" fill="#231916"/>
<path id="Vector_45" d="M59.5424 67.4834L60.4377 66.8359L61.2419 67.951L61.8497 67.5138L59.5868 64.3859L59.5728 64.3649L58.9673 64.795L59.4115 65.4098L58.5184 66.0668L58.2543 65.6997L56.0989 67.259L57.6792 69.4448L57.6932 69.4635L59.8486 67.9042L59.5424 67.4834ZM57.906 68.4887L57.0877 67.3595L58.0509 66.6652L58.8691 67.7944L57.906 68.4887ZM58.8995 66.5998L59.7949 65.9522L60.0497 66.3052L59.1543 66.9528L58.8995 66.5998Z" fill="#231916"/>
<path id="Vector_46" d="M7.43403 48.7301C7.43403 48.7301 10.7793 46.2684 9.30423 41.1067C9.30423 41.1067 7.06233 42.3363 6.93376 45.5484C5.86307 42.521 3.34766 42.0254 3.34766 42.0254C3.50195 47.3859 7.43403 48.7301 7.43403 48.7301Z" fill="#231916"/>
<path id="Vector_47" d="M10.3165 47.6897C10.3165 47.6897 8.39951 49.3822 8.9816 52.5429C7.25869 49.8311 4.69885 49.8919 4.69885 49.8919C6.02435 55.0887 10.1528 55.5352 10.1528 55.5352C10.1528 55.5352 12.8786 52.4049 10.3165 47.6897Z" fill="#231916"/>
<path id="Vector_48" d="M12.3106 59.0816C10.1389 56.7158 7.63513 57.2254 7.63513 57.2254C9.85599 62.1113 14.0008 61.8261 14.0008 61.8261C14.0008 61.8261 16.1305 58.254 12.7758 54.0671C12.7688 54.0671 11.1815 56.0729 12.3106 59.0816Z" fill="#231916"/>
<path id="Vector_49" d="M72.5636 48.7301C72.5636 48.7301 69.2159 46.2684 70.6934 41.1067C70.6934 41.1067 72.9353 42.3363 73.0639 45.5484C74.1439 42.5234 76.6546 42.0278 76.6546 42.0278C76.4957 47.3859 72.5636 48.7301 72.5636 48.7301Z" fill="#231916"/>
<path id="Vector_50" d="M69.6812 47.6897C69.6812 47.6897 71.5958 49.3822 71.016 52.5429C72.739 49.8311 75.2988 49.8919 75.2988 49.8919C73.9733 55.0887 69.8448 55.5352 69.8448 55.5352C69.8448 55.5352 67.119 52.4049 69.6812 47.6897Z" fill="#231916"/>
<path id="Vector_51" d="M67.6871 59.0816C69.8565 56.7158 72.3626 57.2254 72.3626 57.2254C70.1488 62.1113 65.9993 61.8261 65.9993 61.8261C65.9993 61.8261 63.8672 58.254 67.2219 54.0671C67.2266 54.0671 68.8162 56.0729 67.6871 59.0816Z" fill="#231916"/>
<path id="Vector_52" d="M32.1954 72.9001C32.1958 73.0514 32.1513 73.1996 32.0675 73.3256C31.9837 73.4517 31.8643 73.55 31.7246 73.6082C31.5848 73.6663 31.4309 73.6817 31.2824 73.6523C31.1339 73.6228 30.9975 73.55 30.8904 73.4429C30.7834 73.3359 30.7105 73.1995 30.6811 73.051C30.6517 72.9024 30.667 72.7486 30.7251 72.6088C30.7833 72.469 30.8816 72.3496 31.0077 72.2658C31.1338 72.182 31.2819 72.1375 31.4333 72.1379C31.6354 72.1379 31.8293 72.2182 31.9722 72.3612C32.1151 72.5041 32.1954 72.6979 32.1954 72.9001Z" fill="#231916"/>
<path id="Vector_53" d="M49.3265 72.9C49.3265 73.0508 49.2818 73.1981 49.198 73.3234C49.1143 73.4488 48.9953 73.5465 48.856 73.6041C48.7167 73.6618 48.5635 73.6769 48.4157 73.6475C48.2678 73.6181 48.132 73.5455 48.0255 73.4389C47.9189 73.3324 47.8463 73.1966 47.8169 73.0487C47.7875 72.9009 47.8026 72.7477 47.8603 72.6084C47.9179 72.4691 48.0156 72.3501 48.141 72.2664C48.2663 72.1826 48.4136 72.1379 48.5644 72.1379C48.7665 72.1379 48.9603 72.2182 49.1032 72.3612C49.2462 72.5041 49.3265 72.6979 49.3265 72.9Z" fill="#231916"/>
<path id="Vector_54" d="M39.9989 0.506958C32.0876 0.506958 24.3541 2.85297 17.7762 7.2483C11.1983 11.6436 6.07158 17.8909 3.0443 25.2C0.0170216 32.5091 -0.774817 40.5518 0.768926 48.3109C2.31267 56.07 6.12265 63.1971 11.7171 68.7909C17.3115 74.3846 24.439 78.1938 32.1983 79.7366C39.9577 81.2795 48.0002 80.4867 55.309 77.4586C62.6177 74.4304 68.8644 69.3029 73.2589 62.7245C77.6535 56.1462 79.9986 48.4123 79.9977 40.5011C79.9964 29.8936 75.7817 19.7209 68.2806 12.2207C60.7795 4.72047 50.6064 0.506958 39.9989 0.506958ZM39.9989 78.8799C32.409 78.8776 24.9903 76.6249 18.6807 72.4067C12.371 68.1885 7.4537 62.1942 4.55049 55.1816C1.64728 48.169 0.888509 40.453 2.37011 33.0092C3.85172 25.5654 7.50717 18.7281 12.8743 13.3616C18.2414 7.99509 25.0792 4.34048 32.5232 2.85978C39.9672 1.37908 47.6831 2.13879 54.6953 5.04285C61.7075 7.94692 67.7013 12.8649 71.9187 19.1751C76.1362 25.4853 78.3879 32.9043 78.3893 40.4941C78.3893 45.5351 77.3962 50.5266 75.4668 55.1837C73.5373 59.8408 70.7093 64.0722 67.1443 67.6361C63.5793 71.2001 59.347 74.0268 54.6894 75.9548C50.0317 77.8829 45.0398 78.8744 39.9989 78.8729V78.8799Z" fill="#231916"/>
<path id="Vector_55" d="M5.4096 30.6943L5.24829 31.2997H5.27167C5.38316 31.3427 5.485 31.4074 5.57128 31.4901C5.65756 31.5728 5.72656 31.6718 5.77428 31.7813C5.87476 32.0561 5.88539 32.3557 5.80467 32.6369V32.6603L6.4382 32.8286L6.70471 31.8257L10.0594 32.7117H10.0804L10.2791 31.9683L5.43998 30.6873L5.4096 30.6943Z" fill="#231916"/>
<path id="Vector_56" d="M10.7559 27.2484C10.0428 26.6791 9.18428 26.3212 8.27793 26.2151C7.39193 26.159 6.73502 26.5494 6.43112 27.3139C6.34596 27.5207 6.30367 27.7427 6.3068 27.9663C6.30994 28.19 6.35843 28.4107 6.44936 28.615C6.54028 28.8194 6.67174 29.0031 6.83576 29.1552C6.99979 29.3073 7.19298 29.4245 7.40362 29.4997C8.29664 29.855 9.24109 29.4997 9.59876 28.6932C9.67953 28.4991 9.7211 28.2909 9.7211 28.0807C9.7211 27.8704 9.67953 27.6623 9.59876 27.4682C9.8652 27.5705 10.1114 27.7193 10.3258 27.9077C10.604 28.1695 10.8611 28.5015 10.6671 28.9877C10.5866 29.1907 10.4375 29.3592 10.2458 29.4638C10.0541 29.5684 9.83177 29.6026 9.61747 29.5605H9.59876L9.32992 30.2384H9.35564C9.48784 30.2765 9.62483 30.2954 9.7624 30.2945C10.0957 30.2985 10.4224 30.2021 10.7001 30.0178C10.9778 29.8335 11.1936 29.5699 11.3193 29.2612C11.6069 28.5389 11.4129 27.8422 10.7559 27.2484ZM8.97692 28.3004C8.93329 28.4127 8.86573 28.5142 8.77894 28.5978C8.69214 28.6813 8.58819 28.745 8.4743 28.7843C8.22085 28.8637 7.94743 28.8505 7.70285 28.7469C7.15114 28.5272 6.901 28.0456 7.0927 27.5523C7.13502 27.4371 7.20189 27.3325 7.28868 27.2457C7.37547 27.1589 7.4801 27.092 7.59531 27.0497C7.6953 27.0151 7.80043 26.9977 7.90623 26.9983C8.06176 27.0003 8.21555 27.0312 8.35976 27.0895C8.60797 27.1798 8.81596 27.3555 8.94653 27.5851C9.00451 27.6945 9.03733 27.8155 9.04259 27.9393C9.04785 28.0631 9.02541 28.1864 8.97692 28.3004Z" fill="#231916"/>
<path id="Vector_57" d="M13.2083 23.2883L12.6075 22.9494L12.2895 23.5151L9.28786 21.8272L9.26682 21.8156L8.88342 22.4818L10.7115 26.0095L11.4409 26.4209L12.5116 24.5157L13.2971 24.9575L13.6711 24.2936L12.888 23.8494L13.2083 23.2883ZM11.9131 24.1813L11.2258 25.4017L9.98918 23.099L11.9131 24.1813Z" fill="#231916"/>
<path id="Vector_58" d="M11.2189 19.001L11.2002 18.9869L10.8285 19.4942L10.8472 19.5083C10.9359 19.5885 11.0076 19.6857 11.0582 19.7941C11.1088 19.9025 11.1372 20.0199 11.1417 20.1395C11.1386 20.4316 11.0419 20.7151 10.8659 20.9483L10.8519 20.967L11.3825 21.3504L11.988 20.5088L14.8237 22.5543L15.2749 21.9302L11.2189 19.001Z" fill="#231916"/>
<path id="Vector_59" d="M20.135 9.89543V9.87439L19.3495 10.0754V10.1012C19.7321 11.2347 19.7599 12.458 19.429 13.6078V13.6335L20.2378 13.8275V13.8065C20.3063 13.557 20.3525 13.302 20.3758 13.0444L22.1174 15.8497L22.8187 15.4148L20.481 11.6464C20.4261 11.0524 20.3102 10.4656 20.135 9.89543Z" fill="#231916"/>
<path id="Vector_60" d="M24.2167 9.69207L24.2377 9.68039L23.8473 9.04919L20.8901 10.882L20.869 10.896L21.2594 11.5249L24.2167 9.69207Z" fill="#231916"/>
<path id="Vector_61" d="M25.9934 11.8895L22.5779 14.0052L22.5592 14.0169L22.9519 14.6527L26.3674 12.5371L26.3861 12.5254L25.9934 11.8895Z" fill="#231916"/>
<path id="Vector_62" d="M37.3619 9.19408C37.3619 9.17538 37.1281 8.8668 36.9715 8.67744C36.8148 8.48808 36.5039 8.18651 36.4782 8.17249L36.0387 8.48808L36.4805 9.03745C36.6105 9.21307 36.7306 9.39569 36.8405 9.58448V9.6102L37.3735 9.21278L37.3619 9.19408Z" fill="#231916"/>
<path id="Vector_63" d="M34.7178 8.29175L34.276 8.56059L34.2924 8.57462C34.5139 8.77615 34.6853 9.02674 34.7926 9.30634V9.32971L35.3537 8.96035V8.94632C35.1998 8.67838 34.9812 8.45331 34.7178 8.29175Z" fill="#231916"/>
<path id="Vector_64" d="M32.7799 8.9883C32.7473 9.42562 32.6146 9.84956 32.3918 10.2273L32.3801 10.2437L33.0043 10.4611V10.4471C33.2008 10.0162 33.3241 9.55558 33.369 9.08415V9.07013L32.7752 8.9696L32.7799 8.9883Z" fill="#231916"/>
<path id="Vector_65" d="M32.3988 8.13981L32.5063 8.68918L36.8639 7.84993L36.8779 7.84759L36.7727 7.29822L32.4152 8.13747L32.3988 8.13981Z" fill="#231916"/>
<path id="Vector_66" d="M33.8341 5.47234L33.916 5.8908L32.3356 6.19237L32.6325 7.74463V7.761L36.394 7.03629H36.408L36.1088 5.48637V5.47001L34.5238 5.77625L34.4443 5.3578L36.1742 5.0235H36.1906L36.076 4.48114L34.3391 4.81544L34.2713 4.20996L33.5583 4.31048L33.7149 4.93466L31.999 5.26662H31.985L32.0855 5.79495L33.8341 5.47234ZM35.1526 6.17367L35.6202 6.08483L35.7254 6.63654L35.2578 6.72538L35.1526 6.17367ZM33.5162 6.48926L33.6214 7.04098L33.1258 7.13682L33.0206 6.58511L33.5162 6.48926ZM34.1988 6.92876L34.0936 6.37705L34.5963 6.28121L34.7014 6.83291L34.1988 6.92876Z" fill="#231916"/>
<path id="Vector_67" d="M30.5474 6.85872C31.0613 6.36292 31.4873 5.7835 31.8074 5.14514V5.12878L31.1856 4.85059V4.86695C30.9775 5.62438 30.192 6.2883 30.0354 6.41454L30.0214 6.42623L30.5357 6.8704L30.5474 6.85872Z" fill="#231916"/>
<path id="Vector_68" d="M32.186 6.38643C32.186 6.37007 32.186 6.35838 32.186 6.3537V6.33968L31.5665 6.15967V6.17603C31.3763 7.03959 30.9327 7.82672 30.2925 8.43664L30.2784 8.44832L30.8044 8.91587V8.90185L30.8302 8.87145C30.9937 8.6934 31.1364 8.49733 31.2556 8.28702L31.8027 11.1344V11.1508L32.4572 11.0222L31.7746 7.48049C31.9685 7.13974 32.1073 6.7705 32.186 6.38643Z" fill="#231916"/>
<path id="Vector_69" d="M36.3847 9.28757L35.7255 9.23848V9.26887C35.7681 9.38429 35.7681 9.51112 35.7255 9.62654C35.653 9.72473 35.0779 9.86032 34.8629 9.87434L34.7623 9.89071C34.5823 9.92578 34.3813 9.96318 34.3135 9.69901L34.248 9.32497C34.2338 9.22502 34.2252 9.12433 34.2223 9.0234V8.99535V8.98132L33.521 9.05379L33.6215 9.49796C33.6209 9.5034 33.6209 9.50889 33.6215 9.51433C33.6475 9.79257 33.7202 10.0644 33.8366 10.3185C33.9184 10.4775 34.1241 10.5312 34.3743 10.5312C34.6847 10.5163 34.9931 10.4725 35.2953 10.4003L35.4894 10.3606C35.9569 10.2718 36.1907 10.1969 36.331 9.89304C36.3915 9.69883 36.4075 9.49348 36.3777 9.29224L36.3847 9.28757Z" fill="#231916"/>
<path id="Vector_70" d="M44.5481 5.28769L44.5597 5.29937L44.9572 4.81546C44.6968 4.53965 44.3975 4.30338 44.0688 4.11414L43.6854 4.63078H43.7018C44.0196 4.79942 44.3059 5.02165 44.5481 5.28769Z" fill="#231916"/>
<path id="Vector_71" d="M44.4009 8.05097L43.8889 7.68628V7.70265C43.5382 8.4202 43.0423 9.05706 42.4325 9.57284L42.4185 9.58453L43.0099 10.1152L43.0216 10.1035C43.5793 9.49468 44.0455 8.80799 44.4055 8.06499L44.4009 8.05097Z" fill="#231916"/>
<path id="Vector_72" d="M44.0853 6.87036L44.0993 6.88906L44.4803 6.38178L44.4546 6.3584C44.2126 6.0906 43.9273 5.86538 43.6107 5.69214H43.599L43.2109 6.21346H43.2273C43.5576 6.36756 43.8503 6.59172 44.0853 6.87036Z" fill="#231916"/>
<path id="Vector_73" d="M48.0851 8.68917L45.6912 8.22163L45.7894 7.84758L45.0624 7.68628V7.70732C45.0504 8.15065 44.9716 8.58963 44.8286 9.00944C44.7741 9.22494 44.6706 9.42498 44.5263 9.59404C44.382 9.7631 44.2006 9.89663 43.9963 9.98429L43.98 9.99597L44.4849 10.4518C44.8162 10.2956 45.0825 10.0285 45.2377 9.69674L47.7741 10.176L47.6128 11.0246L48.2464 11.1461L48.7139 8.71489C48.7356 8.61847 48.7669 8.52449 48.8074 8.43436C48.8074 8.42033 48.8074 8.41799 48.8074 8.41565V8.3993L48.1248 8.21695L48.0851 8.68917ZM47.8957 9.657L45.4645 9.18946L45.5884 8.75697L47.9799 9.21049L47.8957 9.657Z" fill="#231916"/>
<path id="Vector_74" d="M47.7859 5.18245L47.8303 4.94867L47.9238 4.61671L47.2225 4.46008L47.1757 4.82477L47.1313 5.05855L45.1302 4.67983L45.0297 5.21751L46.7128 5.53545L46.2991 5.65233L46.4674 6.03105L44.9174 5.73649L44.8286 6.20404L45.1559 6.26482C45.0963 6.47108 44.9848 6.65864 44.8322 6.80964C44.6796 6.96063 44.4908 7.07005 44.2839 7.12745H44.2559L44.5528 7.56227C45.1536 7.41967 45.565 6.74873 45.7216 6.36534L45.9554 6.40976C45.9437 6.51262 45.8151 7.11109 45.7099 7.13212C45.6003 7.14382 45.4895 7.12522 45.3897 7.07835H45.378H45.3569L45.3943 7.57162H45.4107C45.6372 7.65438 45.8856 7.65438 46.112 7.57162C46.2663 7.48279 46.4417 6.99186 46.5796 6.28352L46.8134 6.75107L46.5913 7.91994L47.2178 8.03917L47.4516 6.84225L48.3563 6.02871L48.0921 5.79493L49.7285 6.10586L49.829 5.56817L47.7859 5.18245ZM47.711 5.7248L47.2248 6.29053L46.9583 5.58921L47.711 5.7248Z" fill="#231916"/>
<path id="Vector_75" d="M49.1674 6.84935L49.5111 6.72077L49.2259 6.27427V6.26257H49.2119C49.1978 6.26257 48.9594 6.36543 48.7794 6.41687C48.5156 6.47664 48.2456 6.50411 47.9752 6.49869H47.9331L47.8864 6.82363L47.7508 7.52495L47.545 7.54599L47.6806 8.09537L48.8495 7.93874C48.9465 8.15142 49.0665 8.35287 49.2072 8.53954L49.7215 8.20057L49.7075 8.18654C49.366 7.82441 49.1732 7.34707 49.1674 6.84935ZM48.6999 7.48755L48.3235 7.52963L48.4311 6.96624C48.5097 6.9612 48.5878 6.95025 48.6648 6.93351C48.6609 7.11885 48.6726 7.30419 48.6999 7.48755Z" fill="#231916"/>
<path id="Vector_76" d="M59.2198 11.5435L59.8674 10.4494C60.0217 10.2016 60.183 9.99826 60.19 9.98189L59.4887 9.51434C59.4629 9.57279 59.3133 9.90942 59.2035 10.1081L58.5793 11.1671L57.8522 10.737L58.4741 9.68733C58.5796 9.51847 58.6951 9.3561 58.8201 9.20108L58.1187 8.70782C58.093 8.76626 57.9411 9.09121 57.8312 9.29225L57.2023 10.3559L56.4589 9.91643L57.0247 8.95796C57.0994 8.83234 57.1838 8.71275 57.2772 8.60028L56.5641 8.11169L56.3514 8.56756L55.788 9.51901L54.9394 9.01874L54.5934 9.60318L55.442 10.1035L53.7051 13.0443L57.8873 15.5153L58.2193 14.9543L54.701 12.876L56.1036 10.4962L56.847 10.9357L55.8277 12.6633L57.8452 13.8555L58.8692 12.1209L59.9282 12.7474L60.2718 12.163L59.2198 11.5435ZM57.5413 12.9087L56.8166 12.4786L57.5039 11.3097L58.2286 11.7399L57.5413 12.9087Z" fill="#231916"/>
<path id="Vector_77" d="M69.1809 19.5083L68.8069 19.0056L68.7882 19.0197C68.6837 19.0819 68.5677 19.1224 68.4471 19.1384C68.3265 19.1545 68.204 19.1459 68.0868 19.1132C67.8099 19.0209 67.5693 18.8433 67.3995 18.6059L67.3855 18.5848L66.8689 18.9752L67.4907 19.8075L64.6854 21.8974L65.153 22.5146L69.1645 19.5199L69.1809 19.5083Z" fill="#231916"/>
<path id="Vector_78" d="M68.5708 25.8434C69.4556 25.6343 70.2649 25.1835 70.9086 24.5413C71.5047 23.8797 71.6099 23.1247 71.1938 22.4116C71.0855 22.2164 70.9383 22.0453 70.7614 21.909C70.5845 21.7727 70.3816 21.6741 70.1652 21.6191C69.7259 21.5138 69.2628 21.5843 68.8747 21.8155C68.0425 22.2947 67.7292 23.2509 68.1453 24.0364C68.2456 24.2215 68.3815 24.385 68.5452 24.5174C68.7089 24.6498 68.8972 24.7485 69.0991 24.8078C68.8526 24.9521 68.5829 25.0526 68.302 25.1047C67.9256 25.1585 67.5048 25.1561 67.243 24.7003C67.1364 24.512 67.0985 24.2926 67.1356 24.0795C67.1726 23.8663 67.2825 23.6726 67.4464 23.5314L67.4604 23.5197L67.098 22.8885L67.0747 22.9026C66.7545 23.1445 66.5328 23.4943 66.4507 23.8872C66.3687 24.28 66.4317 24.6893 66.6281 25.0393C66.7745 25.3064 66.9926 25.5273 67.2577 25.6773C67.5229 25.8272 67.8246 25.9001 68.129 25.8879C68.2772 25.8848 68.4249 25.8699 68.5708 25.8434ZM69.2932 22.5192C69.4679 22.4145 69.667 22.3573 69.8706 22.3532C69.9302 22.3527 69.9897 22.3582 70.0483 22.3696C70.1646 22.3988 70.2737 22.4514 70.369 22.5243C70.4642 22.5972 70.5436 22.6887 70.6023 22.7933C70.6609 22.8979 70.6976 23.0134 70.7101 23.1327C70.7225 23.252 70.7105 23.3725 70.6748 23.487C70.5821 23.7338 70.4026 23.9383 70.1698 24.0621C69.6485 24.3613 69.1015 24.2514 68.8373 23.7932C68.5732 23.335 68.7719 22.8137 69.2838 22.5192H69.2932Z" fill="#231916"/>
<path id="Vector_79" d="M70.9435 27.91C71.6306 27.9231 72.3136 28.0197 72.9774 28.1976L73.6413 27.9124L72.3415 24.8733L71.6776 25.1585L72.6314 27.3817C71.9074 27.2375 71.1736 27.1477 70.4362 27.1128C69.6309 27.0834 68.8268 27.2006 68.0634 27.4588H68.04L68.3813 28.2583H68.4047C69.2207 27.9799 70.0827 27.8616 70.9435 27.91Z" fill="#231916"/>
<path id="Vector_80" d="M74.5951 30.3109C74.5353 30.0959 74.4327 29.8952 74.2934 29.7209C74.154 29.5466 73.9809 29.4022 73.7844 29.2965C73.5878 29.1908 73.372 29.126 73.1497 29.1059C72.9275 29.0857 72.7034 29.1108 72.4911 29.1794C71.5677 29.4483 71.037 30.3016 71.2521 31.1642C71.361 31.5748 71.6284 31.9254 71.9955 32.139C71.7225 32.2226 71.4365 32.2558 71.1516 32.2372C70.7729 32.2021 70.3661 32.0969 70.2165 31.5943C70.1547 31.3857 70.1676 31.1621 70.2529 30.962C70.3383 30.7619 70.4907 30.5978 70.684 30.4979H70.7027L70.4994 29.7966H70.4736C70.1059 29.9559 69.8084 30.2432 69.6364 30.6052C69.4645 30.9672 69.4297 31.3793 69.5386 31.765C69.756 32.5154 70.3357 32.9479 71.2171 33.0133C71.2732 33.0133 71.3293 33.0133 71.3877 33.0133C72.2417 32.9908 73.0757 32.7493 73.8096 32.312C74.546 31.8117 74.8242 31.1011 74.5951 30.3109ZM73.8377 31.232C73.6886 31.4498 73.4649 31.6053 73.2088 31.6691C72.6337 31.8374 72.1264 31.6013 71.9792 31.094C71.9426 30.9772 71.9325 30.8536 71.9494 30.7324C71.9664 30.6111 72.0101 30.4951 72.0773 30.3927C72.2291 30.1747 72.4538 30.018 72.7109 29.9509C72.8262 29.9164 72.9458 29.8983 73.0662 29.8971C73.2087 29.8964 73.3497 29.9259 73.48 29.9836C73.5877 30.0386 73.6829 30.115 73.7598 30.2082C73.8368 30.3015 73.8938 30.4095 73.9273 30.5256C73.9608 30.6418 73.9702 30.7635 73.9547 30.8834C73.9393 31.0033 73.8995 31.1188 73.8377 31.2226V31.232Z" fill="#231916"/>
</g>
<defs>
<clipPath id="clip0_208_2773">
<rect width="80" height="79.9953" fill="white" transform="translate(0 0.5)"/>
</clipPath>
</defs>
</svg>
