<svg width="20" height="20" viewBox="0 0 20 20" fill="none" xmlns="http://www.w3.org/2000/svg">
<g id="octicon:plus-24">
<path id="Vector" d="M9.79167 3.75C9.95743 3.75 10.1164 3.81585 10.2336 3.93306C10.3508 4.05027 10.4167 4.20924 10.4167 4.375V9.16667H15.2083C15.3741 9.16667 15.5331 9.23251 15.6503 9.34973C15.7675 9.46694 15.8333 9.62591 15.8333 9.79167C15.8333 9.95743 15.7675 10.1164 15.6503 10.2336C15.5331 10.3508 15.3741 10.4167 15.2083 10.4167H10.4167V15.2083C10.4167 15.3741 10.3508 15.5331 10.2336 15.6503C10.1164 15.7675 9.95743 15.8333 9.79167 15.8333C9.62591 15.8333 9.46694 15.7675 9.34973 15.6503C9.23251 15.5331 9.16667 15.3741 9.16667 15.2083V10.4167H4.375C4.20924 10.4167 4.05027 10.3508 3.93306 10.2336C3.81585 10.1164 3.75 9.95743 3.75 9.79167C3.75 9.62591 3.81585 9.46694 3.93306 9.34973C4.05027 9.23251 4.20924 9.16667 4.375 9.16667H9.16667V4.375C9.16667 4.20924 9.23251 4.05027 9.34973 3.93306C9.46694 3.81585 9.62591 3.75 9.79167 3.75Z" fill="white"/>
<rect x="0.5" y="0.5" width="19" height="19" stroke="white"/>
</g>
</svg>
