<svg width="80" height="81" viewBox="0 0 80 81" fill="none" xmlns="http://www.w3.org/2000/svg">
<g id="yonsei_logo" clip-path="url(#clip0_208_2332)">
<path id="Vector" d="M0 40.4959C0 62.5555 17.9436 80.5 39.9939 80.5C62.0441 80.5 80 62.5555 80 40.4959C80 18.4364 62.0564 0.5 39.9939 0.5C17.9314 0.5 0 18.4405 0 40.4959Z" fill="white"/>
<path id="Vector_2" d="M1.18555 40.492C1.18555 19.0809 18.6031 1.67676 39.9988 1.67676C61.3945 1.67676 78.8203 19.0911 78.8203 40.492C78.8203 61.8929 61.4088 79.3236 39.9988 79.3236C18.5888 79.3236 1.18555 61.9031 1.18555 40.492Z" fill="#003378"/>
<path id="Vector_3" d="M39.9965 68.7914C34.4014 68.7902 28.9324 67.1298 24.2808 64.0202C19.6293 60.9106 16.0043 56.4915 13.8642 51.3216C11.7241 46.1517 11.1649 40.4633 12.2575 34.9756C13.3501 29.4879 16.0453 24.4475 20.0024 20.4917C23.9594 16.5359 29.0006 13.8423 34.4883 12.7517C39.9761 11.661 45.6641 12.2222 50.8329 14.3643C56.0018 16.5064 60.4194 20.1332 63.5271 24.786C66.6349 29.4389 68.2932 34.9089 68.2924 40.5043C68.2921 44.2198 67.56 47.8988 66.1378 51.3313C64.7155 54.7638 62.6311 57.8825 60.0035 60.5093C57.3759 63.1361 54.2566 65.2195 50.8238 66.6405C47.391 68.0616 43.7119 68.7924 39.9965 68.7914Z" fill="white"/>
<path id="Vector_4" d="M7.28138 49.6843C7.28057 49.9003 7.34391 50.1117 7.46338 50.2917C7.58285 50.4717 7.75305 50.6121 7.95243 50.6953C8.15181 50.7784 8.37139 50.8005 8.58333 50.7587C8.79526 50.7169 8.99002 50.6131 9.14291 50.4605C9.2958 50.3079 9.39995 50.1133 9.44214 49.9014C9.48434 49.6896 9.46268 49.47 9.37992 49.2704C9.29716 49.0709 9.15702 48.9004 8.97727 48.7806C8.79752 48.6608 8.58624 48.597 8.37022 48.5974C8.08213 48.5985 7.80611 48.7133 7.6022 48.9168C7.39829 49.1204 7.28299 49.3962 7.28138 49.6843Z" fill="white"/>
<path id="Vector_5" d="M73.1224 49.8418C73.1212 50.0602 73.0553 50.2734 72.9331 50.4544C72.8108 50.6354 72.6376 50.7761 72.4355 50.8587C72.2333 50.9414 72.0112 50.9623 71.7972 50.9188C71.5832 50.8753 71.3868 50.7693 71.2329 50.6143C71.0791 50.4593 70.9746 50.2622 70.9327 50.0478C70.8907 49.8335 70.9133 49.6115 70.9974 49.4099C71.0815 49.2084 71.2235 49.0363 71.4054 48.9153C71.5873 48.7944 71.8009 48.7301 72.0193 48.7305C72.1648 48.7305 72.309 48.7593 72.4433 48.8152C72.5777 48.8712 72.6997 48.9532 72.8022 49.0565C72.9048 49.1598 72.9858 49.2823 73.0408 49.4171C73.0958 49.5519 73.1235 49.6962 73.1224 49.8418Z" fill="white"/>
<path id="Vector_6" d="M10.442 30.8814C10.0526 32.1049 8.74146 32.631 7.25704 32.1579C5.42189 31.5767 5.47491 30.4532 5.66454 29.8353C5.73878 29.5963 5.85999 29.3745 6.02105 29.183C6.18211 28.9915 6.37979 28.834 6.6025 28.7199C7.27983 28.4113 8.05179 28.3834 8.74961 28.6424C9.56523 28.8973 10.1015 29.2807 10.3564 29.7639C10.4433 29.9354 10.4957 30.1224 10.5104 30.3141C10.525 30.5059 10.5018 30.6986 10.442 30.8814ZM8.83933 27.4821C8.49967 27.3588 8.13864 27.3051 7.7778 27.3244C7.41695 27.3437 7.06369 27.4354 6.73911 27.5943C6.07234 27.945 5.56666 28.6139 5.2812 29.4968C4.99573 30.3798 5.04874 31.1913 5.40354 31.8704C5.76994 32.5557 6.39208 33.0687 7.13469 33.2978C8.47026 33.7199 10.1933 33.2794 10.805 31.3239C10.9475 30.9436 11.0091 30.5377 10.9859 30.1323C10.9627 29.7268 10.8551 29.3306 10.6701 28.9691C10.4852 28.6075 10.2268 28.2886 9.91154 28.0325C9.5963 27.7765 9.23111 27.589 8.83933 27.4821Z" fill="white"/>
<path id="Vector_7" d="M16.516 20.3841L15.5066 19.4176L15.7105 19.2137L16.1693 19.5114C16.3609 19.614 16.5821 19.6469 16.7951 19.6045C17.0082 19.5621 17.2 19.447 17.3377 19.2789C17.7455 18.8527 17.6823 18.3491 17.4193 18.0942C17.1562 17.8393 16.8483 17.7149 16.1367 17.825L15.7146 17.8862C14.744 18.0289 14.1323 17.9004 13.6756 17.4539C13.0639 16.8727 13.123 15.9469 13.8387 15.1945C14.4504 14.5644 14.7787 14.5195 14.7787 14.5195L15.6555 15.3597L15.4516 15.586C15.305 15.4156 15.0998 15.3065 14.8766 15.2801C14.7351 15.2662 14.5924 15.2867 14.4607 15.3399C14.3289 15.3932 14.212 15.4777 14.1201 15.586C13.7877 15.9388 13.7653 16.3507 14.0671 16.6403C14.271 16.8319 14.5177 16.9094 15.3007 16.785L15.5515 16.7442C16.675 16.577 17.2582 16.6912 17.774 17.1786C17.966 17.3576 18.1089 17.5827 18.1892 17.8326C18.2695 18.0824 18.2845 18.3487 18.2328 18.606C18.147 19.017 17.9387 19.3924 17.6354 19.6827C17.3336 19.9967 16.8544 20.3739 16.5363 20.3801" fill="white"/>
<path id="Vector_8" d="M64.4883 21.6806L65.6444 20.8894L65.8055 21.132L65.412 21.5195C65.2731 21.6853 65.1959 21.894 65.1933 22.1103C65.1907 22.3266 65.2629 22.5371 65.3977 22.7063C65.73 23.1977 66.2357 23.2405 66.5396 23.0325C66.8434 22.8245 67.0289 22.5574 67.0697 21.8335L67.0962 21.4155C67.1594 20.4326 67.4143 19.8616 67.9424 19.5007C68.6459 19.0215 69.5349 19.2744 70.1201 20.1308C70.6115 20.8506 70.583 21.1891 70.583 21.1891L69.5818 21.8722L69.4044 21.6153C69.6034 21.5079 69.7536 21.3284 69.8244 21.1137C69.8691 20.9796 69.8797 20.8364 69.8551 20.6972C69.8305 20.558 69.7716 20.4271 69.6838 20.3164C69.4085 19.9085 69.0088 19.8066 68.6642 20.037C68.4277 20.2042 68.2992 20.4306 68.2564 21.2177L68.2442 21.4726C68.1728 22.6084 67.9424 23.1569 67.3531 23.5566C67.1376 23.7071 66.8872 23.8001 66.6257 23.8269C66.3641 23.8537 66.1001 23.8133 65.8585 23.7095C65.4746 23.5366 65.1514 23.2524 64.9307 22.8939C64.684 22.535 64.4169 21.9864 64.4801 21.6704" fill="white"/>
<path id="Vector_9" d="M20.7807 13.0635C21.0763 12.8454 21.1599 12.9371 21.3924 13.2471L21.5963 13.0901L20.6889 11.8666L20.485 12.0215C20.7134 12.3315 20.7827 12.4294 20.485 12.6598L19.6225 13.3021L18.4888 11.7952C18.4888 11.7952 19.1678 11.2936 19.3431 11.161C19.7408 10.8653 19.9202 11.0652 20.1425 11.3649L20.3566 11.2079L19.6694 10.2842L16.7617 12.4722L16.9187 12.6761C17.1124 12.5293 17.4774 12.2132 17.7914 12.6292L20.2138 15.8735C20.5768 16.3568 20.3973 16.4363 20.0548 16.6892L20.2281 16.9135L23.1929 14.6989L22.4384 13.6998L22.2345 13.8568C22.5669 14.3013 22.5057 14.5847 22.2019 14.8131C21.998 14.964 21.2701 15.5044 21.2701 15.5044L19.9263 13.71L20.7807 13.0635Z" fill="white"/>
<path id="Vector_10" d="M59.3715 13.375C59.6815 13.5789 59.6183 13.687 59.4021 14.0051L59.6183 14.1601L60.4645 12.8897L60.2442 12.7449C60.0301 13.0671 59.9547 13.165 59.6468 12.9631L58.7496 12.3514L59.7977 10.7873L60.6806 11.3787C61.0884 11.658 60.9599 11.8925 60.7479 12.1943L60.964 12.3412L61.6043 11.3868L58.5947 9.37012L58.4478 9.58627C58.6518 9.72289 59.0596 9.96147 58.7782 10.4019L56.5352 13.7645C56.1988 14.2661 56.0662 14.1234 55.7196 13.8868L55.5605 14.1234L58.6395 16.1829L59.3307 15.145L59.1105 14.9921C58.8006 15.4529 58.5131 15.4896 58.1991 15.2816L57.2203 14.6352L58.4723 12.7714L59.3715 13.375Z" fill="white"/>
<path id="Vector_11" d="M23.9009 8.6852C23.7398 8.36302 23.8907 8.27737 24.2883 8.07346L24.166 7.83691L22.127 8.88708L22.2493 9.12158C22.2493 9.12158 22.7672 8.75249 22.9833 9.16848C23.0894 9.3724 24.9714 13.0429 24.9714 13.0429C25.1407 13.361 24.9714 13.4507 24.582 13.6546L24.7043 13.8871L26.9085 12.7533L26.7903 12.5229C26.462 12.6921 26.1031 12.9307 25.9073 12.5514C25.7116 12.1721 23.9091 8.67704 23.9091 8.67704" fill="white"/>
<path id="Vector_12" d="M35.7559 7.32126L35.3073 5.07819C35.24 4.72338 35.4051 4.68259 35.8435 4.59083L35.7885 4.33594L33.829 4.72949L33.882 4.98439C33.882 4.98439 34.4815 4.7662 34.5753 5.22705L35.0504 7.60062C35.2053 8.36122 35.293 8.97297 34.9994 9.41546C34.793 9.71087 34.4802 9.91479 34.1267 9.98439C33.8148 10.0575 33.487 10.0163 33.203 9.86815C32.8828 9.70094 32.5484 9.38284 32.3241 8.25519L31.8246 5.77762C31.7553 5.42688 31.9224 5.37998 32.367 5.29026L32.3099 5.03129L30.0547 5.48398L30.1036 5.73887C30.1036 5.73887 30.7153 5.53496 30.803 5.98357L31.3087 8.50192C31.4902 9.42566 31.8225 9.99458 32.3486 10.3127C33.0154 10.7103 33.7596 10.5574 34.0798 10.4962C34.6411 10.4075 35.1473 10.1077 35.4949 9.65812C36.0067 9.00763 35.921 8.15119 35.7559 7.32126Z" fill="white"/>
<path id="Vector_13" d="M48.8235 5.93686C48.9071 5.58 49.0805 5.60855 49.5127 5.71051L49.5719 5.45562L47.3289 4.93359L47.2739 5.18849C47.2739 5.18849 47.906 5.24151 47.802 5.69828C47.751 5.92666 46.8192 9.94991 46.8192 9.94991C46.7376 10.3006 46.5541 10.268 46.1198 10.1701L46.0586 10.425L48.4749 10.9838L48.536 10.735C48.1711 10.6514 47.7449 10.6004 47.8407 10.1885C47.9366 9.77658 48.8215 5.93686 48.8215 5.93686" fill="white"/>
<path id="Vector_14" d="M72.2809 25.3896C72.6051 25.2306 72.6887 25.3794 72.8926 25.7791L73.1271 25.6649L72.1137 23.6074L71.8772 23.7237C71.8772 23.7237 72.2422 24.2477 71.816 24.4557L67.9011 26.3766C67.5748 26.5316 67.4933 26.3766 67.2893 25.9688L67.0508 26.0891L68.1437 28.3117L68.3761 28.1996C68.213 27.8672 67.9785 27.5042 68.3639 27.3166C68.7493 27.129 72.2789 25.3917 72.2789 25.3917" fill="white"/>
<path id="Vector_15" d="M74.1605 28.0469L73.0105 28.212L73.0941 28.5016C73.4734 28.4445 73.7486 28.4241 73.8914 28.9094C73.9179 28.9992 73.9709 29.1745 74.2074 29.9739C73.5631 30.1615 69.8867 31.2504 69.8867 31.2504C69.54 31.3544 69.4789 31.1749 69.3545 30.7467L69.0996 30.8201L69.8031 33.2018L70.0519 33.1325C69.9479 32.7716 69.7725 32.374 70.1823 32.2557L74.5031 30.9771C74.7396 31.7724 74.7926 31.9498 74.8191 32.0334C74.9578 32.5147 74.7172 32.6452 74.3644 32.8042L74.4542 33.0938L75.5083 32.6146L74.1605 28.0469Z" fill="white"/>
<path id="Vector_16" d="M64.968 16.5812C64.5132 17.0461 64.1258 17.0685 63.9484 17.04C63.8057 17.0196 63.7262 16.9768 63.5263 16.779L63.1552 16.414L64.868 14.6807L65.1168 14.9315C65.3941 15.2068 65.6918 15.8613 64.9761 16.5812M66.2852 15.9062C66.1582 15.4394 65.8956 15.0207 65.5307 14.7031L63.9872 13.1758L63.8057 13.3654C63.8057 13.3654 64.3216 13.7427 63.9913 14.0791L60.9204 17.1766C60.6676 17.4335 60.5269 17.3091 60.2088 16.9972L60.0273 17.1868L61.783 18.918L61.9624 18.7427C61.6973 18.4776 61.3507 18.2125 61.6606 17.9087L62.8229 16.73L63.2939 17.197L63.09 18.4572C62.9819 19.179 62.9452 19.6113 63.0533 19.9498C63.1465 20.2127 63.3084 20.4458 63.5223 20.6248L64.0565 21.1468L64.2237 20.9755L64.0993 20.8226C63.9282 20.557 63.8501 20.2422 63.8771 19.9274C63.8913 19.387 63.9647 18.7039 64.0565 17.8475L64.0993 17.4967C64.9435 17.5742 65.4981 17.4233 65.9243 16.9951C66.0653 16.8528 66.171 16.6795 66.233 16.489C66.2949 16.2985 66.3114 16.0961 66.2811 15.898" fill="white"/>
<path id="Vector_17" d="M7.55452 36.8619C7.31477 36.855 7.07892 36.7995 6.86125 36.6988C6.11128 36.2114 5.38964 35.6817 4.69985 35.1123C4.56745 35.0074 4.46191 34.8725 4.39195 34.7187L4.34098 34.419L4.35729 34.2151L4.09833 34.1865L3.92298 36.034L4.19417 36.0585L4.21252 35.8688L4.34098 35.7832L4.67947 35.9116L6.46363 37.1107C6.46363 37.1107 4.48575 38.0242 4.30224 38.0854L4.07999 38.1445L4.01882 38.0874L4.00861 38.0466L4.01882 37.8835L3.7619 37.8529L3.57227 39.941L3.82919 39.9634C3.83769 39.8024 3.88303 39.6454 3.96172 39.5046C4.11288 39.3249 4.29964 39.1784 4.51022 39.0744C4.91803 38.8501 6.59617 38.0303 6.70424 37.9957C6.94246 37.9016 7.20041 37.8687 7.45461 37.8998C7.45461 37.8998 8.20702 37.9691 8.67804 38.0161C9.14906 38.063 9.13275 38.3158 9.10216 38.6706L9.34685 38.6951L9.5691 36.2359L9.33258 36.2155C9.29383 36.6233 9.29383 37.0128 8.75552 36.9638L7.55656 36.8517" fill="white"/>
<path id="Vector_18" d="M72.5057 37.9997C72.7402 37.9604 72.9805 37.9737 73.2092 38.0385C74.0382 38.3723 74.8471 38.7543 75.6316 39.1824C75.7825 39.2627 75.9119 39.3781 76.0088 39.5189L76.1169 39.8023L76.1352 40.0062L76.3962 39.9777L76.2168 38.1425L75.9456 38.1669L75.968 38.3566L75.86 38.4667C75.7371 38.4718 75.6144 38.4524 75.499 38.4096L73.5191 37.5613C73.5191 37.5613 75.2931 36.2868 75.4603 36.191L75.6642 36.0911L75.7356 36.1339V36.1686L75.7641 36.3419L76.019 36.3133L75.8151 34.2334L75.5582 34.2579C75.5794 34.4184 75.5633 34.5817 75.5113 34.735C75.3981 34.9415 75.2416 35.1209 75.0525 35.2611C74.6956 35.5548 73.2051 36.6743 73.1072 36.7314C72.8918 36.8689 72.6447 36.9489 72.3895 36.9638L71.1661 37.0821C70.695 37.1331 70.6583 36.8782 70.6237 36.5173L70.377 36.5417L70.6196 38.9887L70.8561 38.9622C70.8153 38.5544 70.7419 38.169 71.2843 38.1241L72.4874 38.0018" fill="white"/>
<path id="Vector_19" d="M15.0984 22.4062L14.8945 22.7284L9.48693 23.9519L12.1275 25.5832C12.6882 25.9298 12.8758 25.4914 13.0695 25.1754L13.2959 25.3161L12.2029 27.084L11.9746 26.9453C12.1458 26.666 12.3538 26.3968 11.8237 26.0705L7.75781 23.5583L7.94133 23.2606L13.4243 22.0595C13.4243 22.0595 11.1814 20.6647 10.6818 20.363C10.1822 20.0612 9.98038 20.4608 9.82949 20.7035L9.60723 20.5669L10.6268 18.9355L10.8531 19.0783C10.694 19.3373 10.5085 19.5758 10.9938 19.8776C11.4791 20.1794 15.0984 22.4103 15.0984 22.4103" fill="white"/>
<path id="Vector_20" d="M43.5888 10.0474L43.2156 10.025L39.5882 5.83453L39.3985 8.93404C39.3577 9.5886 39.8267 9.55598 40.1999 9.57229L40.1815 9.83942L38.1017 9.71707L38.1139 9.44586C38.4463 9.4683 38.7787 9.52335 38.8174 8.90141C38.8561 8.27947 39.1069 4.13184 39.1069 4.13184L39.4515 4.15427C40.0632 4.86797 43.0117 8.29986 43.1096 8.41405C43.1096 8.41405 43.2707 5.76316 43.3013 5.19831C43.3318 4.63347 42.8935 4.62531 42.6039 4.60696L42.6161 4.34594L44.5369 4.46014L44.5165 4.73134C44.2107 4.71095 43.9171 4.66201 43.8783 5.23298C43.8396 5.80394 43.5888 10.0474 43.5888 10.0474Z" fill="white"/>
<path id="Vector_21" d="M57.0143 8.64245L57.0775 8.38144L55.3993 7.64734L55.2933 7.89204L55.4972 7.97565L55.5992 8.12043L55.3953 8.44261L53.8313 10.0168L52.8118 11.0181C52.8118 10.8753 52.9117 8.86064 52.9586 7.98381L52.9994 7.21504L53.0524 7.01113L53.2318 6.99074L53.4357 7.08046L53.5418 6.83372L51.5884 5.9834L51.4844 6.21586C51.6257 6.27353 51.752 6.36282 51.8534 6.47687C51.9433 6.66747 51.9793 6.87903 51.9574 7.08862L51.8718 12.3252L52.094 12.4251L55.0547 9.6763L56.1232 8.70974C56.1232 8.70974 56.478 8.40183 56.8308 8.56089L57.0143 8.64245Z" fill="white"/>
<path id="Vector_22" d="M41.8338 71V72.719H41.379V71H40.2127V71.1366C40.3269 71.1366 40.437 71.3405 40.437 71.5445V75.2578H38.0248V71.936H39.6255V71.157H36.7871V71.2916C36.9033 71.2916 37.0196 71.4853 37.0196 71.6994V76.0408H40.437V77.2826H41.379V73.502H41.8338V77.2887H42.8533V71H41.8338Z" fill="white"/>
<path id="Vector_23" d="M69.0251 61.5096C68.2095 60.8367 65.1999 58.3306 65.1509 58.2959L61.9863 62.103L62.598 62.6046L65.1183 59.5663L68.3808 62.2804C68.1096 62.6169 67.8934 62.8799 67.8934 62.8799L66.1908 61.4668L65.5791 62.207L67.2817 63.6181L66.9514 64.0259L65.2447 62.6148L64.529 63.4774L64.6412 63.5651C64.7166 63.4753 64.9409 63.5182 65.102 63.6528L66.3805 64.7131L65.6607 65.5818L66.2724 66.0834L70.0222 61.5361L69.4105 61.0304C69.3962 61.0549 69.2392 61.2527 69.021 61.5096" fill="white"/>
<path id="Vector_24" d="M28.0892 68.6279L25.4629 74.3477L26.3805 74.7678L29.0108 69.05H29.0047L28.0892 68.6279Z" fill="white"/>
<path id="Vector_25" d="M26.696 67.9873L26.6369 68.1158C26.7409 68.1647 26.7592 68.3911 26.6695 68.5848L26.1822 69.6451L25.2238 69.2047L24.8955 69.9204L25.8539 70.3568L24.2695 73.7989L25.0852 74.1741L27.7196 68.4645L26.7001 67.9975" fill="white"/>
<path id="Vector_26" d="M24.0612 69.7478L24.0326 69.6866L24.051 69.6662C24.742 69.1498 25.2906 68.4664 25.6455 67.6801L24.316 67.0684L24.263 67.1907C24.2752 67.205 24.5199 67.3946 24.3058 67.8596C24.2916 67.8881 23.582 69.4399 21.4512 70.1373L21.6897 70.7388C22.283 70.6335 22.8519 70.4199 23.3679 70.1087L23.3964 70.0904L23.4168 70.123C23.5596 70.4166 23.7757 70.8653 23.9857 72.0133L24.8013 71.5484C24.6267 70.9184 24.3754 70.3124 24.053 69.7437" fill="white"/>
<path id="Vector_27" d="M53.0165 73.5482L56.8173 71.7272L57.3963 72.9466L58.3119 72.5103L57.3862 70.5771L52.6719 72.8406L53.0165 73.5482Z" fill="white"/>
<path id="Vector_28" d="M55.59 66.8379L54.4746 67.3742L54.5317 67.4986C54.6418 67.4476 54.8274 67.5822 54.9171 67.7718L56.2445 70.5308L57.1519 70.0944L56.6564 69.0606L57.5475 68.6323L57.2436 67.9921L56.3546 68.4223L55.59 66.8379Z" fill="white"/>
<path id="Vector_29" d="M53.4648 71.2284C53.3027 71.3121 53.1193 71.3454 52.9381 71.3241C52.7569 71.3028 52.5862 71.2279 52.4479 71.1089C52.3096 70.9899 52.21 70.8324 52.1619 70.6564C52.1138 70.4804 52.1193 70.2941 52.1777 70.1213C52.2362 69.9485 52.345 69.7971 52.4901 69.6865C52.6352 69.5759 52.81 69.5113 52.9921 69.5007C53.1742 69.4902 53.3554 69.5343 53.5122 69.6274C53.6691 69.7205 53.7946 69.8584 53.8726 70.0233C53.9779 70.2373 53.994 70.4842 53.9176 70.7101C53.8412 70.936 53.6783 71.1224 53.4648 71.2284ZM51.4543 71.1795C51.8335 71.9646 52.8612 72.2562 53.7543 71.832C54.6474 71.4079 55.0614 70.4148 54.6862 69.6257C54.5897 69.4323 54.4524 69.2621 54.2837 69.1269C54.1151 68.9918 53.9192 68.8948 53.7095 68.8426C54.0989 68.6571 54.3681 68.5245 54.3824 68.5143L54.0459 67.8047L52.7715 68.4164L52.5431 67.9352L51.4278 68.4695L51.4889 68.5979C51.5807 68.5571 51.7377 68.655 51.8376 68.8243L51.8601 68.8549L50.5 69.5094L50.8385 70.215C50.8609 70.215 51.1036 70.0906 51.4502 69.9213C51.3595 70.1183 51.3125 70.3325 51.3125 70.5494C51.3125 70.7662 51.3595 70.9805 51.4502 71.1774" fill="white"/>
<path id="Vector_30" d="M12.7955 61.9435L11.9799 61.0137L11.8759 61.1034C11.9534 61.1931 11.8759 61.4072 11.7209 61.5459L10.6035 62.5267L13.7681 66.1585L14.3615 65.6446L11.8473 62.7714L12.7955 61.9435Z" fill="white"/>
<path id="Vector_31" d="M13.8093 59.6374C13.9559 59.5283 14.1312 59.4642 14.3137 59.4532C14.4961 59.4421 14.6778 59.4845 14.8366 59.5751C14.9953 59.6658 15.1242 59.8007 15.2075 59.9635C15.2907 60.1262 15.3247 60.3097 15.3052 60.4915C15.2858 60.6733 15.2137 60.8454 15.098 60.9869C14.9822 61.1284 14.8277 61.233 14.6533 61.288C14.479 61.343 14.2924 61.346 14.1164 61.2966C13.9405 61.2471 13.7827 61.1475 13.6625 61.0098C13.5007 60.808 13.4253 60.5504 13.4528 60.2933C13.4803 60.0362 13.6085 59.8004 13.8093 59.6374ZM16.562 62.2679L16.1542 62.6248C16.1542 62.6248 15.8035 62.2169 15.5139 61.8907L15.6689 61.7704L15.9075 61.5114C16.1909 61.8438 16.5661 62.2679 16.5661 62.2679M14.7126 62.166L15.5608 63.1427L14.3374 64.2194L14.998 64.978L18.4196 61.9906L17.6039 61.0567L17.5 61.1484C17.5795 61.2382 17.4999 61.4543 17.3429 61.593L17.1655 61.7541C17.1655 61.7541 16.3989 60.8833 16.2296 60.6835C16.2535 60.4161 16.2228 60.1466 16.1394 59.8914C16.0559 59.6363 15.9215 59.4007 15.7443 59.199C15.0572 58.418 13.9092 58.2895 13.1894 58.9217C12.4696 59.5538 12.4329 60.7039 13.1242 61.4849C13.3175 61.7155 13.5624 61.8973 13.8391 62.0156C14.1157 62.1339 14.4164 62.1854 14.7166 62.166" fill="white"/>
<path id="Vector_32" d="M39.9953 26.9111C39.1731 26.9119 38.3696 27.1565 37.6864 27.614C37.0032 28.0714 36.4709 28.7212 36.1569 29.4811C35.8429 30.2411 35.7613 31.077 35.9223 31.8834C36.0834 32.6897 36.4799 33.4302 37.0617 34.0112C37.6435 34.5921 38.3845 34.9876 39.191 35.1474C39.9976 35.3073 40.8334 35.2244 41.5928 34.9093C42.3522 34.5942 43.0012 34.061 43.4576 33.377C43.914 32.6931 44.1574 31.8892 44.157 31.0669C44.1568 30.5207 44.0489 29.98 43.8396 29.4755C43.6303 28.971 43.3236 28.5127 42.9371 28.1268C42.5507 27.7408 42.0919 27.4348 41.5872 27.2263C41.0824 27.0177 40.5415 26.9106 39.9953 26.9111Z" fill="#003378"/>
<path id="Vector_33" d="M29.9531 60.9042C32.5651 63.1677 35.846 65.3271 40.0015 67.246C44.1571 65.3292 47.442 63.1677 50.0479 60.9022L40.0015 50.8369L29.9531 60.9042Z" fill="#003378"/>
<path id="Vector_34" d="M40.0026 39.1848C38.3967 39.1848 36.8269 38.7085 35.4917 37.8163C34.1564 36.9241 33.1157 35.6559 32.5012 34.1722C31.8866 32.6885 31.7258 31.0558 32.0391 29.4807C32.3524 27.9056 33.1257 26.4588 34.2613 25.3232C35.3968 24.1876 36.8435 23.4143 38.4186 23.101C39.9936 22.7877 41.6262 22.9485 43.1098 23.563C44.5934 24.1776 45.8615 25.2184 46.7537 26.5537C47.6459 27.889 48.1221 29.4589 48.1221 31.0648C48.1216 32.1317 47.9109 33.188 47.5022 34.1734C47.0934 35.1589 46.4946 36.0542 45.7399 36.8082C44.9852 37.5622 44.0893 38.1601 43.1035 38.5679C42.1177 38.9757 41.0613 39.1853 39.9945 39.1848M60.442 36.9417V23.0632C60.442 23.0632 48.6155 23.4445 39.9945 16.8193C31.3795 23.4445 19.5489 23.0632 19.5489 23.0632V36.9437C19.5273 39.0324 19.6773 41.1194 19.9975 43.1835C33.2249 40.761 46.7823 40.761 60.0097 43.1835C60.327 41.1205 60.4743 39.0349 60.4502 36.9478" fill="#003378"/>
<path id="Vector_35" d="M20.207 44.3435C20.2967 44.7718 20.3946 45.2061 20.5088 45.6323C21.4672 49.3028 23.18 53.5258 26.6851 57.6143L40.0021 44.2722L53.3191 57.6143C56.8222 53.536 58.5371 49.2987 59.4995 45.6323C59.6116 45.2061 59.7034 44.7718 59.7972 44.3435C46.7097 41.9428 33.2946 41.9428 20.207 44.3435Z" fill="#003378"/>
<path id="Vector_36" d="M26.1201 34.3153H28.0348L28.149 34.197V30.2717L28.0348 30.1514H26.4811C26.3532 30.1514 26.2306 30.202 26.1401 30.2922C26.0495 30.3824 25.9983 30.5048 25.9978 30.6326V34.197L26.1201 34.3153Z" fill="white"/>
<path id="Vector_37" d="M23.4694 34.3153H25.382L25.5003 34.197V30.6326C25.5006 30.5697 25.4884 30.5073 25.4646 30.4491C25.4408 30.3908 25.4057 30.3379 25.3614 30.2932C25.3171 30.2485 25.2644 30.213 25.2064 30.1886C25.1484 30.1643 25.0861 30.1516 25.0232 30.1514H23.4694L23.3552 30.2717V34.197L23.4694 34.3153Z" fill="white"/>
<path id="Vector_38" d="M29.0424 30.8321H28.6346V34.7289H26.2204V34.7718C26.2102 34.8875 26.157 34.9953 26.0714 35.0738C25.9857 35.1523 25.8737 35.1958 25.7575 35.1959C25.6414 35.195 25.5297 35.1511 25.4439 35.0729C25.3581 34.9946 25.3042 34.8873 25.2926 34.7718V34.7289H22.8662V30.8321H22.4584L22.334 30.9504V35.0858L22.4584 35.2061H24.8808C24.9659 35.3609 25.0911 35.4899 25.2432 35.5798C25.3952 35.6697 25.5687 35.7171 25.7453 35.7171C25.922 35.7171 26.0954 35.6697 26.2474 35.5798C26.3995 35.4899 26.5247 35.3609 26.6099 35.2061H29.0363L29.1587 35.0858V30.9483L29.0363 30.8301" fill="white"/>
<path id="Vector_39" d="M54.838 33.8867H53.2577L53.1211 34.0254L53.637 37.3268C53.6462 37.3935 53.6791 37.4546 53.7296 37.4991C53.7801 37.5437 53.8449 37.5686 53.9122 37.5694H54.1814L54.4546 37.3268L54.9705 34.0254L54.838 33.8867Z" fill="white"/>
<path id="Vector_40" d="M55.0543 32.4376C55.4621 32.0828 56.4103 31.0449 56.3063 30.4617C56.2023 29.8275 54.4385 28.9201 54.3366 28.2309C54.3057 27.8578 54.3859 27.4839 54.567 27.1562L54.461 27.1338C54.4263 27.1583 52.9888 28.2329 52.9786 28.969C52.9786 29.2647 53.1825 29.5808 53.5332 29.8805C53.8227 30.1211 54.1999 30.3353 54.4895 30.6248C54.6372 30.7505 54.7503 30.912 54.8178 31.0938C54.9605 31.4915 54.5527 32.1277 54.3019 32.4295H53.731C53.9941 32.1345 54.1914 31.7869 54.3101 31.4099C54.5445 30.5188 52.324 30.2965 52.6564 28.9629L52.5626 28.9344C52.5402 28.9486 51.6817 29.7826 51.6797 30.3618C51.6797 30.8614 52.6992 31.3283 53.1682 32.0053V32.4315H52.2669C52.2669 32.4315 52.0508 32.405 52.1405 32.6109L52.3852 33.3756C52.4031 33.41 52.431 33.4382 52.4652 33.4564C52.4994 33.4746 52.5384 33.482 52.5769 33.4776H55.4947C55.535 33.4828 55.5759 33.4759 55.6123 33.4578C55.6486 33.4396 55.6787 33.411 55.6986 33.3756L55.9556 32.6028C56.0208 32.4172 55.8128 32.4315 55.8128 32.4315L55.0543 32.4376Z" fill="white"/>
<path id="Vector_41" d="M36.0357 58.6629C35.8869 58.7689 35.1406 59.2645 35.1141 59.2747L35.0488 59.3787L35.1304 59.4765L35.2038 59.4561L35.3282 59.4031L35.6422 59.2747L35.6524 59.3583V60.5226L35.6422 61.4178L35.5239 61.5809L35.2181 61.6034L35.1304 61.7053L35.2527 61.795H35.7401H36.1071H36.6046L36.7249 61.7053L36.6352 61.6034L36.3824 61.5809L36.2723 61.4178L36.2519 60.5226V59.7824L36.2723 58.7934V58.7343L36.1744 58.5977L36.0357 58.6629Z" fill="white"/>
<path id="Vector_42" d="M37.9257 59.2931C37.9239 59.2366 37.9339 59.1803 37.955 59.1279C37.9762 59.0754 38.008 59.0279 38.0484 58.9884C38.0889 58.9489 38.1371 58.9183 38.1901 58.8984C38.243 58.8785 38.2995 58.8699 38.3559 58.873C38.4103 58.8739 38.4639 58.886 38.5132 58.9087C38.5626 58.9314 38.6068 58.9641 38.6428 59.0047C38.6789 59.0454 38.7061 59.0931 38.7227 59.1449C38.7393 59.1966 38.7449 59.2513 38.7393 59.3053C38.7451 59.4182 38.7164 59.5301 38.657 59.6263C38.5976 59.7225 38.5104 59.7983 38.4069 59.8437C38.0501 59.6398 37.9257 59.4991 37.9257 59.2931ZM37.3894 59.3747C37.3894 59.7519 37.6708 59.9701 37.9155 60.1108C37.4893 60.3147 37.2324 60.6328 37.2324 60.9999C37.2324 61.528 37.6545 61.8461 38.2968 61.8461C39.039 61.8461 39.4224 61.3771 39.4224 60.904C39.4224 60.4309 39.0349 60.1659 38.7576 60.0068C38.9064 59.9465 39.035 59.8451 39.1281 59.7143C39.2213 59.5836 39.2753 59.429 39.2837 59.2686C39.2837 58.8608 38.933 58.5957 38.4069 58.5957C37.6586 58.5957 37.3874 59.0606 37.3874 59.3747M37.7952 60.9795C37.7946 60.8357 37.832 60.6944 37.9037 60.5698C37.9753 60.4452 38.0785 60.3417 38.203 60.2699C38.5354 60.4738 38.8147 60.643 38.8147 60.9999C38.8207 61.0705 38.8119 61.1416 38.7886 61.2085C38.7654 61.2755 38.7284 61.3368 38.6799 61.3885C38.6315 61.4402 38.5727 61.4812 38.5074 61.5087C38.4421 61.5363 38.3717 61.5498 38.3009 61.5484C38.2288 61.5463 38.1579 61.5299 38.0924 61.5C38.0268 61.4701 37.9678 61.4274 37.919 61.3744C37.8702 61.3213 37.8324 61.2591 37.808 61.1913C37.7836 61.1235 37.773 61.0514 37.7769 60.9795" fill="white"/>
<path id="Vector_43" d="M40.6873 59.2931C40.6855 59.2364 40.6956 59.1799 40.7168 59.1273C40.7381 59.0747 40.77 59.0272 40.8107 58.9876C40.8514 58.9481 40.8999 58.9175 40.9531 58.8977C41.0063 58.878 41.063 58.8696 41.1196 58.873C41.174 58.8732 41.2277 58.8849 41.2773 58.9074C41.3268 58.9299 41.371 58.9627 41.4068 59.0036C41.4427 59.0444 41.4694 59.0925 41.4853 59.1445C41.5012 59.1966 41.5058 59.2514 41.4989 59.3053C41.5056 59.4178 41.4777 59.5297 41.419 59.6259C41.3604 59.7221 41.2737 59.7981 41.1706 59.8437C40.8199 59.6398 40.6873 59.4991 40.6873 59.2931ZM40.1572 59.3747C40.1684 59.5334 40.223 59.686 40.3151 59.8158C40.4071 59.9456 40.5331 60.0477 40.6792 60.1108C40.253 60.3147 39.9961 60.6328 39.9961 60.9999C39.9961 61.528 40.4182 61.8461 41.0686 61.8461C41.8027 61.8461 42.186 61.3771 42.186 60.904C42.186 60.4309 41.7966 60.1659 41.5213 60.0068C41.6707 59.9477 41.7998 59.8465 41.8928 59.7155C41.9858 59.5844 42.0388 59.4292 42.0453 59.2686C42.0453 58.8608 41.6987 58.5957 41.1665 58.5957C40.4243 58.5957 40.1572 59.0606 40.1572 59.3747ZM40.565 60.9795C40.5658 60.836 40.6039 60.6953 40.6753 60.5709C40.7468 60.4465 40.8493 60.3428 40.9728 60.2699C41.3092 60.4738 41.5845 60.643 41.5845 60.9999C41.5908 61.07 41.5823 61.1407 41.5595 61.2074C41.5368 61.2741 41.5003 61.3352 41.4525 61.3869C41.4046 61.4386 41.3465 61.4797 41.2817 61.5075C41.217 61.5353 41.1472 61.5492 41.0768 61.5484C41.0048 61.546 40.9341 61.5294 40.8686 61.4994C40.8031 61.4694 40.7443 61.4267 40.6955 61.3738C40.6468 61.3208 40.609 61.2587 40.5845 61.191C40.56 61.1233 40.5492 61.0514 40.5527 60.9795" fill="white"/>
<path id="Vector_44" d="M44.4266 58.6481L44.1697 58.6685H43.1848L43.0564 58.7685L42.9565 59.8288L43.0809 59.9716C43.3541 60.0083 44.0474 60.2366 44.0474 60.8688C44.0474 61.3663 43.7211 61.5437 43.4356 61.5437C43.1033 61.5437 42.9463 61.3847 42.9463 61.0666L42.8565 60.9422L42.7526 61.0564L42.7383 61.5152V61.5703L42.8423 61.7742C42.9726 61.8232 43.1109 61.8474 43.2501 61.8455C44.1942 61.8455 44.6244 61.2338 44.6244 60.6608C44.6244 59.9777 43.9515 59.6167 43.3011 59.4985L43.348 59.107H44.0433C44.3308 59.107 44.3308 59.1946 44.3308 59.2721L44.4266 59.3802L44.5204 59.2925L44.5775 58.7685L44.4837 58.6318L44.4266 58.6481Z" fill="white"/>
<path id="Vector_45" d="M26.6855 57.6146C27.6917 58.7888 28.7821 59.8881 29.948 60.9038L39.9944 50.8344L50.0408 60.8997C51.2071 59.8859 52.2975 58.7879 53.3033 57.6146L39.9863 44.2725L26.6855 57.6146Z" fill="white"/>
<path id="Vector_46" d="M40.0012 41.3623C33.2916 41.3605 26.5958 41.968 19.9961 43.1772C20.0573 43.5605 20.1286 43.95 20.2 44.3435C33.2882 41.9428 46.704 41.9428 59.7922 44.3435C59.8676 43.95 59.939 43.5605 59.9961 43.1772C53.3957 41.9681 46.6992 41.3606 39.989 41.3623" fill="white"/>
<path id="Vector_47" d="M39.9951 35.2312C39.173 35.2304 38.3695 34.9858 37.6864 34.5285C37.0032 34.0711 36.4709 33.4215 36.1569 32.6617C35.8428 31.9018 35.7611 31.066 35.9219 30.2597C36.0828 29.4534 36.4791 28.713 37.0607 28.1319C37.6423 27.5508 38.3832 27.1552 39.1896 26.9951C39.9959 26.835 40.8317 26.9176 41.5912 27.2324C42.3506 27.5472 42.9997 28.0801 43.4564 28.7638C43.913 29.4475 44.1568 30.2512 44.1568 31.0733C44.1565 31.6196 44.0487 32.1605 43.8394 32.6651C43.6301 33.1697 43.3234 33.6281 42.937 34.0142C42.5505 34.4003 42.0919 34.7065 41.5871 34.9153C41.0823 35.1241 40.5413 35.2314 39.9951 35.2312ZM48.1207 31.0652C48.1231 29.4566 47.6483 27.8834 46.7564 26.5448C45.8645 25.2062 44.5955 24.1622 43.1101 23.545C41.6247 22.9279 39.9896 22.7652 38.4117 23.0777C36.8339 23.3902 35.3842 24.1638 34.2461 25.3005C33.108 26.4372 32.3326 27.886 32.0182 29.4636C31.7037 31.0411 31.8643 32.6765 32.4796 34.1628C33.0949 35.649 34.1372 36.9194 35.4746 37.813C36.8121 38.7067 38.3845 39.1835 39.993 39.1831C41.0598 39.1839 42.1162 38.9745 43.102 38.5669C44.0878 38.1594 44.9836 37.5616 45.7383 36.8078C46.4931 36.054 47.092 35.1588 47.5007 34.1735C47.9095 33.1882 48.1202 32.1319 48.1207 31.0652Z" fill="white"/>
</g>
<defs>
<clipPath id="clip0_208_2332">
<rect width="80" height="80" fill="white" transform="translate(0 0.5)"/>
</clipPath>
</defs>
</svg>
