<svg width="278" height="52" viewBox="0 0 278 52" fill="none" xmlns="http://www.w3.org/2000/svg">
<path d="M49.284 28.3209C48.4377 28.3209 47.5914 28.165 46.9151 27.7036C46.0754 27.1295 45.649 26.2102 45.649 24.9656V18.5437H46.9684V24.9656C46.9684 25.7621 47.1949 26.3031 47.658 26.6184C48.6976 27.3286 50.7633 26.9038 51.8928 26.5487C51.8961 26.3595 51.8994 26.1703 51.8994 25.9812C51.9028 12.384 41.3643 1.23936 27.9804 0.207207C26.8943 0.519176 25.415 1.07342 23.9523 2.02924C20.2307 4.45862 18.3449 8.21552 18.3449 13.2004V20.9697C18.3449 21.7995 18.025 22.503 17.4186 23.0075C16.4857 23.7841 15.0231 23.9766 13.797 23.9766C12.7308 23.9766 11.8479 23.8306 11.658 23.7974L11.8912 22.503C12.8274 22.669 15.4895 22.9013 16.5724 21.9986C16.8822 21.7397 17.0255 21.4145 17.0255 20.9697V13.2004C17.0255 6.37689 20.4239 2.74279 23.2759 0.897522C23.6991 0.62206 24.1222 0.379786 24.5387 0.164062C14.2234 0.714987 5.51079 7.26634 1.84915 16.3765C2.1057 16.9938 2.68876 18.0691 3.67164 18.0691H12.5909V19.3834H3.67164C2.54882 19.3834 1.76918 18.7229 1.25609 18.0127C0.439796 20.5217 0 23.2 0 25.9778C0 37.1324 7.09006 46.6375 17.0288 50.2617V25.5564H18.3482V29.2734C20.9503 29.0212 24.7852 26.6549 25.7181 24.637C26.4445 23.0672 25.1451 22.0982 24.6853 21.816H19.5243V20.5018H25.0218L25.1651 20.5748C26.2479 21.139 28.0104 22.8283 26.9143 25.188C25.7715 27.6539 21.4301 30.3487 18.3449 30.591V50.7064C20.7504 51.4398 23.3059 51.8348 25.9514 51.8348C39.6251 51.8348 50.8266 41.3042 51.8328 27.9393C51.1531 28.1251 50.2235 28.3176 49.2873 28.3176L49.284 28.3209ZM12.5875 30.5047H5.39085C3.14522 30.5047 2.55216 27.7169 2.52884 27.6008L2.51551 27.5344V20.1931H3.8349V27.395C3.91153 27.7036 4.338 29.1905 5.38751 29.1905H12.5842V30.5047H12.5875ZM34.4108 20.5018H39.9083L40.0515 20.5748C41.1344 21.139 42.8936 22.8283 41.8007 25.188C40.5813 27.8231 37.1196 29.6783 35.1638 30.5512L34.624 29.3498C36.0634 28.7092 39.5218 26.9635 40.6013 24.6337C41.3276 23.0639 40.0282 22.0948 39.5684 21.8127H34.4075V20.4985L34.4108 20.5018ZM27.7106 27.3518L27.7572 26.6947C28.4469 26.7412 30.4093 26.698 31.209 25.9579C31.4289 25.7522 31.5321 25.5165 31.5321 25.2112V18.235H32.8515V25.2112C32.8515 25.3307 32.8415 25.4435 32.8249 25.5597H32.8515V32.0181H31.5321V27.3352C30.4693 27.9326 29.0266 28.0256 28.2303 28.0256C27.9438 28.0256 27.7406 28.0123 27.6706 28.009L27.7172 27.3518H27.7106ZM48.3977 35.6423C48.3977 37.9621 46.5019 39.8505 44.173 39.8505H41.8241C41.7508 39.8505 41.6775 39.8505 41.6042 39.8439C38.1724 39.8273 27.7539 39.7875 24.5554 39.8505C24.532 39.8505 24.5087 39.8505 24.4854 39.8505C23.5758 39.8505 22.8361 39.5054 22.343 38.8482C20.8071 36.8072 22.1498 32.3234 22.3097 31.819L23.5691 32.2106C23.0494 33.87 22.5463 36.9233 23.3992 38.0584C23.5558 38.2674 23.8457 38.5396 24.5287 38.5329C27.0842 38.4832 34.2076 38.4998 38.7455 38.5164C38.0358 37.763 37.6027 36.7507 37.6027 35.6423V35.1212C37.6027 32.8013 39.4985 30.9129 41.8274 30.9129H44.1763C46.5052 30.9129 48.401 32.8013 48.401 35.1212V35.6423H48.3977Z" fill="white"/>
<path d="M44.1683 32.224H41.8194C40.2168 32.224 38.9141 33.5217 38.9141 35.118V35.6391C38.9141 37.1989 40.1602 38.47 41.7128 38.5265C42.3258 38.5265 42.689 38.5298 42.7123 38.5298H44.1683C45.7709 38.5298 47.0736 37.2321 47.0736 35.6358V35.1147C47.0736 33.5184 45.7709 32.2207 44.1683 32.2207V32.224Z" fill="white"/>
<g clip-path="url(#clip0_758_35308)">
<path d="M76.257 29.3808H73.022V26.4137C71.9037 26.7088 70.8126 26.8946 69.3997 26.8946H63.268C61.5387 26.8946 60.9004 25.4356 60.9004 24.1351V10.032H70.6981V12.9554H64.1572V23.9767H71.6091C72.5638 23.9767 73.022 23.4303 73.022 22.6762V19.5944H68.8978V16.6984H73.022V9.09766H76.257V29.3862V29.3808Z" fill="white"/>
<path d="M89.0854 15.1844C87.4925 18.4957 83.8701 20.4573 79.9914 21.0967L78.9004 17.9493C82.8446 17.9711 86.2596 15.4849 86.3959 12.5834H79.9478V9.6874H89.9528V11.2829C89.9528 12.1955 89.8382 13.0424 89.6091 13.8402H93.1878V9.0918H96.4227V23.561H93.1878V16.7581H89.0854V15.1844ZM96.8319 29.1509H85.3049C83.3246 29.1509 82.4354 28.1947 82.4354 26.845V21.6431H85.6704V26.233H96.8373V29.1564L96.8319 29.1509Z" fill="white"/>
<path d="M110.342 11.1901C110.342 17.4193 105.307 20.0912 100.179 20.6595L99.0879 17.5777C103.119 17.6706 106.54 15.6598 106.856 12.578H99.928V9.65461H110.342V11.1846V11.1901ZM112.873 9.0918H116.108V13.8621H118.454V16.7854H116.108V20.8945H113.943C115.699 21.6267 116.425 22.9272 116.425 24.7522C116.425 27.7411 114.532 29.3859 109.382 29.3859C104.232 29.3859 102.159 27.7411 102.159 24.7522C102.159 21.7633 104.254 20.2115 109.382 20.2115C110.773 20.2115 111.935 20.3262 112.868 20.5557V9.09727L112.873 9.0918ZM109.387 23.0802C106.742 23.0802 105.356 23.5118 105.356 24.7468C105.356 26.0691 106.747 26.5062 109.387 26.5062C112.028 26.5062 113.239 26.0746 113.239 24.7468C113.239 23.5118 112.055 23.0802 109.387 23.0802Z" fill="white"/>
<path d="M130.557 11.3485H133.541V9.0918H136.776V23.6976H133.541V18.8837H130.579V17.1734C129.875 19.4301 128.004 20.5502 125.636 20.5502C122.538 20.5502 120.307 18.7252 120.307 15.0259C120.307 11.3267 122.516 9.52347 125.636 9.52347C127.982 9.52347 129.853 10.6163 130.557 12.8348V11.354V11.3485ZM137.278 29.1509H125.751C123.771 29.1509 122.882 28.375 122.882 26.6647V21.8015H126.095V26.2275H137.283V29.1509H137.278ZM125.636 12.261C124.087 12.261 123.334 13.4031 123.334 15.0205C123.334 16.6379 124.087 17.8072 125.636 17.8072C127.186 17.8072 127.846 16.6652 127.846 15.0205C127.846 13.3757 127.186 12.261 125.636 12.261ZM133.568 16.2117V14.0424H130.814C130.857 14.3593 130.884 14.6817 130.884 15.0259C130.884 15.4357 130.863 15.8456 130.792 16.2117H133.574H133.568Z" fill="white"/>
<path d="M149.874 24.8174L147.801 26.9375C146.432 25.5004 145.362 23.353 144.953 22.1235C144.659 23.5606 143.109 26.3911 142.013 27.5112L139.76 25.2272C142.902 22.3967 143.268 16.4408 143.268 12.6049V9.68153H146.502V12.3972C146.502 15.8233 146.388 20.681 149.874 24.424V18.5117H147.643V15.5883H149.874V9.08594H152.994V29.3745H149.874V24.8119V24.8174ZM157.304 29.38H154.184V9.0914H157.304V29.38Z" fill="white"/>
<path d="M167.788 26.9598C166.719 25.9762 165.235 23.9927 164.782 22.8507C164.531 24.0856 163.325 26.3204 162.278 27.4843L159.861 25.5008C162.594 22.7141 163.096 18.381 163.096 12.9495H160.636V10.0043H168.677V12.9495H166.239C166.239 18.3591 166.604 22.031 169.932 24.7249L167.788 26.9598ZM177.493 29.3804H174.351V19.8617H173.167V29.3804H170.025V9.0918H173.167V16.9439H174.351V9.0918H177.493V29.3804Z" fill="white"/>
<path d="M180.515 12.4907V9.86786H184.71V8.33789H187.945V9.86786H192.162V12.4907H191.022C191.295 12.8786 191.431 13.3595 191.431 13.9496C191.431 16.0042 189.653 16.709 187.945 16.9385V17.5997H192.048C192.822 17.5997 193.575 16.8457 193.575 16.3211V9.06463H196.81V13.3103H199.156V16.2063H196.81V20.1078H193.575V19.6269C191.846 19.8783 191.159 20.0149 187.902 20.0149H180.221V17.5943H184.71V16.9549C183.003 16.7254 181.203 15.9987 181.203 13.9442C181.203 13.3486 181.339 12.8732 181.59 12.4852H180.521L180.515 12.4907ZM197.127 29.1729H184.389C183.09 29.1729 182.065 28.4899 182.065 26.9162V23.8562H193.57V23.124H182.065V20.6815H196.805V25.9545H185.3V26.7304H197.127V29.1729ZM186.303 12.8295C185.551 12.8295 184.209 12.8295 184.209 13.9496C184.209 15.0698 185.551 15.0698 186.325 15.0698C187.056 15.0698 188.398 15.0698 188.398 13.9496C188.398 12.8295 187.056 12.8295 186.303 12.8295Z" fill="white"/>
<path d="M218.572 21.6867H211.278V25.1783H208.043V21.6867H200.799V18.8781H218.572V21.6867ZM209.685 17.5339C205.469 17.5339 201.917 16.758 201.917 13.474C201.917 10.19 205.474 9.41406 209.685 9.41406C213.897 9.41406 217.41 10.19 217.41 13.474C217.41 16.758 213.881 17.5339 209.685 17.5339ZM217.547 29.1508H204.536C202.872 29.1508 202.119 28.2382 202.119 26.8941V23.0363H205.354V26.3913H217.547V29.1508ZM209.685 11.9658C205.812 11.9658 205.152 12.6052 205.152 13.4958C205.152 14.3865 205.812 14.9766 209.685 14.9766C213.559 14.9766 214.175 14.3592 214.175 13.4685C214.175 12.5778 213.559 11.9604 209.685 11.9604V11.9658Z" fill="white"/>
<path d="M238.736 20.7525H220.963V17.8291H228.229V16.9385H224.471C222.943 16.9385 222.283 16.0915 222.283 14.8839V9.63281H237.367V12.4196H225.518V14.1517H237.367V16.9385H231.464V17.8291H238.731V20.7525H238.736ZM229.85 29.3805C225.796 29.3805 222.081 28.6045 222.081 25.3206C222.081 22.0366 225.796 21.2606 229.85 21.2606C233.903 21.2606 237.574 22.0366 237.574 25.3206C237.574 28.6045 233.881 29.3805 229.85 29.3805ZM229.85 23.8561C226.271 23.8561 225.316 24.4517 225.316 25.3369C225.316 26.2221 226.271 26.774 229.85 26.774C233.428 26.774 234.339 26.2057 234.339 25.3151C234.339 24.4244 233.428 23.8561 229.85 23.8561Z" fill="white"/>
<path d="M248.92 20.7743C247.463 19.6814 246.301 18.1515 245.706 17.075C245.341 18.2389 243.977 20.3863 242.722 21.4573L240.557 19.2224C243.426 17.2826 244.021 13.6326 244.021 11.5999V9.63822H247.299V11.3977C247.299 13.2227 247.55 16.3756 250.785 18.4247L248.92 20.7743ZM258.401 29.1509H246.847C245.068 29.1509 244.064 28.4897 244.064 26.7521V21.3644H247.299V26.2275H258.395V29.1509H258.401ZM253.911 23.561H250.791V15.4576H248.696V12.7419H250.791V9.0918H253.911V23.561ZM258.15 23.561H255.029V9.0918H258.15V23.561Z" fill="white"/>
<path d="M277.898 29.3804H274.663V26.4133C273.272 26.7794 271.608 26.8942 269.786 26.8942H264.772C263.065 26.8942 262.541 25.5937 262.541 24.3151V10.0262H272.268V12.9495H265.798V16.6925H270.424V19.6596H265.798V23.9708H273.293C273.953 23.9708 274.663 23.6266 274.663 22.9654V19.6323H271.722V16.7362H274.663V9.0918H277.898V29.3804Z" fill="white"/>
<path d="M64.7682 40.5231L67.1631 44.348H65.9411L63.7153 40.7362H61.9314V44.348H60.9004V35.8457H63.6171C65.581 35.8457 66.5739 36.72 66.5739 38.2445C66.5739 39.4302 65.8702 40.1515 64.7682 40.4848V40.5231ZM63.5462 39.9602C64.8882 39.9602 65.4883 39.3373 65.4883 38.2554C65.4883 37.1735 64.8555 36.6708 63.5462 36.6708H61.9314V39.9548H63.5462V39.9602Z" fill="white"/>
<path d="M75.0359 43.9044C74.6431 44.1558 73.7648 44.4672 72.7829 44.4672C70.8408 44.4672 69.7988 43.2924 69.7988 41.216C69.7988 38.9866 71.1135 37.9648 72.5647 37.9648C74.2503 37.9648 75.1395 39.0085 75.1395 40.9374V41.4291H70.8299C70.879 43.0356 71.6318 43.6585 72.9138 43.6585C73.6448 43.6585 74.3049 43.4892 74.8177 43.1886L75.0359 43.8935V43.9044ZM74.1249 40.7024C74.114 39.3364 73.503 38.7353 72.5428 38.7353C71.7627 38.7353 70.939 39.2271 70.8408 40.7024H74.1194H74.1249Z" fill="white"/>
<path d="M78.377 35.2828H79.3589V38.6652C79.9099 38.2444 80.7227 37.9712 81.5028 37.9712C82.5939 37.9712 83.3849 38.4848 83.3849 39.7088V44.3479H82.403V39.9219C82.403 39.2116 82.0538 38.8182 81.0391 38.8182C80.5591 38.8182 79.768 39.0094 79.3753 39.3318V44.3425H78.3824V35.2773L78.377 35.2828Z" fill="white"/>
<path d="M86.5254 42.7148C86.5254 41.6001 87.3655 41.01 88.6475 40.8679L90.3332 40.6766V40.0428C90.3332 39.0592 89.7604 38.786 88.7784 38.786C88.2274 38.786 87.5946 38.9445 87.1637 39.1467L86.8745 38.4418C87.4146 38.1522 88.2056 37.9609 89.0075 37.9609C90.3223 37.9609 91.3206 38.5238 91.3206 39.8188V44.3541H90.4968L90.3877 43.8404H90.3495C90.0168 44.1628 89.3076 44.4743 88.5875 44.4743C87.4473 44.4743 86.5254 43.8841 86.5254 42.7257V42.7148ZM90.3332 43.2448V41.3597L88.8111 41.5291C88.0201 41.6274 87.5401 41.9498 87.5401 42.682C87.5401 43.4142 88.1129 43.7366 88.833 43.7366C89.384 43.7366 90.055 43.5071 90.3277 43.2448H90.3332Z" fill="white"/>
<path d="M95.8111 43.7254V44.3483H94.791V35.2832H95.8111V38.6437H95.8221C96.193 38.3104 96.9349 37.9607 97.6769 37.9607C98.9698 37.9607 100.072 38.7038 100.072 41.1518C100.072 43.5997 98.8607 44.4631 97.655 44.4631C96.8913 44.4631 96.1603 44.1134 95.8111 43.7309V43.7254ZM95.8111 43.0041C96.1221 43.3374 96.7222 43.6872 97.355 43.6872C98.2988 43.6872 99.0298 43.097 99.0298 41.2392C99.0298 39.3814 98.4079 38.7912 97.3877 38.7912C96.7986 38.7912 96.133 39.0918 95.8057 39.354V42.9987L95.8111 43.0041Z" fill="white"/>
<path d="M103.283 35.8457H104.347V36.8402H103.283V35.8457ZM103.305 38.086H104.309V44.348H103.305V38.086Z" fill="white"/>
<path d="M107.916 35.2832H108.936V44.3483H107.916V35.2832Z" fill="white"/>
<path d="M112.502 35.8457H113.566V36.8402H112.502V35.8457ZM112.524 38.086H113.528V44.348H112.524V38.086Z" fill="white"/>
<path d="M117.651 42.9209V38.8664H116.658V38.0741H117.651V36.5605H118.622V38.0741H120.515V38.8664H118.622V42.7788C118.622 43.4017 119.031 43.6422 119.724 43.6422C120.024 43.6422 120.433 43.5602 120.717 43.4509L120.859 44.1558C120.57 44.2979 120.008 44.4454 119.457 44.4454C118.453 44.4454 117.651 44.0137 117.651 42.9209Z" fill="white"/>
<path d="M123.572 42.7148C123.572 41.6001 124.412 41.01 125.694 40.8679L127.38 40.6766V40.0428C127.38 39.0592 126.807 38.786 125.825 38.786C125.274 38.786 124.641 38.9445 124.211 39.1467L123.921 38.4418C124.461 38.1522 125.252 37.9609 126.054 37.9609C127.369 37.9609 128.367 38.5238 128.367 39.8188V44.3541H127.544L127.435 43.8404H127.396C127.064 44.1628 126.354 44.4743 125.634 44.4743C124.494 44.4743 123.572 43.8841 123.572 42.7257V42.7148ZM127.38 43.2448V41.3597L125.858 41.5291C125.067 41.6274 124.587 41.9498 124.587 42.682C124.587 43.4142 125.16 43.7366 125.88 43.7366C126.431 43.7366 127.102 43.5071 127.375 43.2448H127.38Z" fill="white"/>
<path d="M132.362 42.9209V38.8664H131.369V38.0741H132.362V36.5605H133.333V38.0741H135.226V38.8664H133.333V42.7788C133.333 43.4017 133.742 43.6422 134.435 43.6422C134.735 43.6422 135.144 43.5602 135.428 43.4509L135.57 44.1558C135.281 44.2979 134.719 44.4454 134.168 44.4454C133.164 44.4454 132.362 44.0137 132.362 42.9209Z" fill="white"/>
<path d="M138.627 35.8457H139.691V36.8402H138.627V35.8457ZM138.649 38.086H139.653V44.348H138.649V38.086Z" fill="white"/>
<path d="M142.916 41.2391C142.916 39.1135 144.28 37.9551 145.873 37.9551C147.466 37.9551 148.819 39.0971 148.819 41.1953C148.819 43.2936 147.444 44.4793 145.862 44.4793C144.176 44.4793 142.916 43.3537 142.916 41.2391ZM147.755 41.2281C147.755 39.3321 146.833 38.7474 145.862 38.7474C144.809 38.7474 143.969 39.5506 143.969 41.2063C143.969 43.0914 144.891 43.7034 145.884 43.7034C146.877 43.7034 147.749 42.9111 147.749 41.2336L147.755 41.2281Z" fill="white"/>
<path d="M152.033 38.0745H152.993V38.6756H153.015C153.566 38.2548 154.39 37.9707 155.159 37.9707C156.25 37.9707 157.052 38.4734 157.052 39.6974V44.3529H156.07V39.9487C156.07 39.1455 155.59 38.7958 154.739 38.7958C154.188 38.7958 153.517 39.0144 153.026 39.3258V44.3529H152.033V38.08V38.0745Z" fill="white"/>
<path d="M165.393 40.0909C165.393 36.9708 167.307 35.7031 169.299 35.7031C170.33 35.7031 171.202 35.9162 171.704 36.1949L171.453 37.0091C170.891 36.7359 170.15 36.5665 169.288 36.5665C167.853 36.5665 166.5 37.5719 166.5 39.998C166.5 42.4241 167.613 43.6535 169.315 43.6535C170.275 43.6535 171.088 43.3803 171.672 43.1126L171.912 43.9267C171.35 44.2491 170.319 44.5005 169.195 44.5005C167.078 44.5005 165.398 43.0361 165.398 40.0854L165.393 40.0909Z" fill="white"/>
<path d="M179.95 43.9044C179.557 44.1558 178.679 44.4672 177.697 44.4672C175.755 44.4672 174.713 43.2924 174.713 41.216C174.713 38.9866 176.028 37.9648 177.479 37.9648C179.164 37.9648 180.054 39.0085 180.054 40.9374V41.4291H175.744C175.793 43.0356 176.546 43.6585 177.828 43.6585C178.559 43.6585 179.219 43.4892 179.732 43.1886L179.95 43.8935V43.9044ZM179.039 40.7024C179.028 39.3364 178.417 38.7353 177.457 38.7353C176.677 38.7353 175.853 39.2271 175.755 40.7024H179.033H179.039Z" fill="white"/>
<path d="M183.299 38.0745H184.259V38.6756H184.281C184.832 38.2548 185.655 37.9707 186.425 37.9707C187.516 37.9707 188.318 38.4734 188.318 39.6974V44.3529H187.336V39.9487C187.336 39.1455 186.856 38.7958 186.005 38.7958C185.454 38.7958 184.783 39.0144 184.292 39.3258V44.3529H183.299V38.08V38.0745Z" fill="white"/>
<path d="M192.385 42.9209V38.8664H191.393V38.0741H192.385V36.5605H193.356V38.0741H195.249V38.8664H193.356V42.7788C193.356 43.4017 193.766 43.6422 194.458 43.6422C194.758 43.6422 195.168 43.5602 195.451 43.4509L195.593 44.1558C195.304 44.2979 194.742 44.4454 194.191 44.4454C193.187 44.4454 192.385 44.0137 192.385 42.9209Z" fill="white"/>
<path d="M203.559 43.9044C203.167 44.1558 202.288 44.4672 201.306 44.4672C199.364 44.4672 198.322 43.2924 198.322 41.216C198.322 38.9866 199.637 37.9648 201.088 37.9648C202.774 37.9648 203.663 39.0085 203.663 40.9374V41.4291H199.353C199.402 43.0356 200.155 43.6585 201.437 43.6585C202.168 43.6585 202.828 43.4892 203.341 43.1886L203.554 43.8935L203.559 43.9044ZM202.648 40.7024C202.637 39.3364 202.026 38.7353 201.066 38.7353C200.286 38.7353 199.462 39.2271 199.364 40.7024H202.643H202.648Z" fill="white"/>
<path d="M206.893 38.0757H207.853V38.8298H207.875C208.404 38.3981 209.026 38.0156 209.789 38.0156C210.062 38.0156 210.362 38.0648 210.569 38.1741L210.28 39.0265C210.138 38.9664 209.86 38.9063 209.62 38.9063C208.927 38.8954 208.387 39.1249 207.875 39.5074V44.3541H206.893V38.0812V38.0757Z" fill="white"/>
</g>
<defs>
<clipPath id="clip0_758_35308">
<rect width="217" height="37" fill="white" transform="translate(60.9004 7.5)"/>
</clipPath>
</defs>
</svg>
