<svg width="140" height="50" viewBox="0 0 140 50" fill="none" xmlns="http://www.w3.org/2000/svg">
<path d="M5.73281 27.8828L5.52187 29.6875C5.52187 31.5781 6.15469 32.8672 7.42031 33.5547C7.85781 33.7891 8.38125 33.9062 8.99062 33.9062C9.6 33.9062 10.1469 33.8047 10.6312 33.6016C11.1156 33.3828 11.5141 33.1016 11.8266 32.7578C12.4828 32.0547 12.8109 31.2422 12.8109 30.3203C12.8109 29.3984 12.6234 28.5625 12.2484 27.8125C11.8734 27.0625 11.4047 26.3125 10.8422 25.5625L8.96719 23.2656C7.45156 21.4531 6.43594 19.8047 5.92031 18.3203C5.40469 16.8203 5.14687 15.4453 5.14687 14.1953C5.14687 12.9453 5.29531 11.7656 5.59219 10.6562C5.90469 9.53125 6.33437 8.46875 6.88125 7.46875C7.42812 6.45312 8.08437 5.52344 8.85 4.67969C9.61562 3.83594 10.4672 3.10938 11.4047 2.5C13.3578 1.1875 15.2953 0.53125 17.2172 0.53125C19.1391 0.53125 20.6391 0.796875 21.7172 1.32812C22.7953 1.85938 23.6625 2.53125 24.3187 3.34375C25.5375 4.875 26.1469 6.72656 26.1469 8.89844C26.1469 10.9141 25.5766 12.8125 24.4359 14.5938C23.3891 16.2188 22.2172 17.25 20.9203 17.6875C20.6391 17.8281 20.2484 17.8984 19.7484 17.8984C19.2641 17.8984 18.85 17.8281 18.5062 17.6875C18.1781 17.5312 17.8891 17.3281 17.6391 17.0781C17.0922 16.5312 16.8187 15.9375 16.8187 15.2969C16.8187 14.8594 16.9516 14.5703 17.2172 14.4297C18.4047 13.7891 19.4359 12.8594 20.3109 11.6406C21.2641 10.3125 21.7641 8.99219 21.8109 7.67969C21.8578 6.35156 21.5375 5.375 20.85 4.75C20.1781 4.10938 19.2797 3.78906 18.1547 3.78906C17.0297 3.78906 16.0141 4.04688 15.1078 4.5625C14.2016 5.0625 13.4203 5.74219 12.7641 6.60156C11.3578 8.44531 10.6547 10.625 10.6547 13.1406C10.6547 14.8125 11.2328 16.5781 12.3891 18.4375C12.8734 19.2344 13.3969 20.0234 13.9594 20.8047C14.5375 21.5703 15.0766 22.3594 15.5766 23.1719C16.7172 25.0625 17.2875 26.7578 17.2875 28.2578C17.2875 29.7578 17.0141 31.0234 16.4672 32.0547C15.9359 33.0859 15.225 33.9844 14.3344 34.75C12.4125 36.4062 10.225 37.2344 7.77187 37.2344C5.45937 37.2344 3.67812 36.5469 2.42812 35.1719C1.42812 34.0625 0.928123 32.8594 0.928123 31.5625C0.928123 30.1562 1.32656 28.9688 2.12344 28C2.73281 27.2656 3.31875 26.8281 3.88125 26.6875C5.11562 26.3594 5.73281 26.7578 5.73281 27.8828ZM22.8084 34.7266C22.6209 34.2109 22.5272 33.625 22.5272 32.9688C22.5272 32.2969 22.6366 31.5547 22.8553 30.7422C23.0897 29.9141 23.3866 29.0547 23.7459 28.1641C24.1053 27.2734 24.4959 26.3594 24.9178 25.4219L26.1834 22.6094C27.8084 19 28.41 16.8594 27.9881 16.1875C27.8006 15.8906 27.4491 15.5938 26.9334 15.2969C26.7459 15.1875 26.6522 15 26.6522 14.7344C26.6522 14.4531 26.7616 14.1875 26.9803 13.9375C27.2147 13.6875 27.5116 13.4688 27.8709 13.2812C28.6366 12.9219 29.4022 12.7422 30.1678 12.7422C30.9334 12.7422 31.5116 12.8281 31.9022 13C32.3084 13.1562 32.6366 13.3594 32.8866 13.6094C33.4022 14.125 33.66 14.6953 33.66 15.3203C33.66 15.9453 33.5584 16.6484 33.3553 17.4297C33.1522 18.1953 32.8866 19.0312 32.5584 19.9375C32.2303 20.8438 31.8709 21.7812 31.4803 22.75C30.4022 25.2812 29.6756 26.9531 29.3006 27.7656L28.4334 29.5703C27.9491 30.6484 27.7069 31.4062 27.7069 31.8438C27.7069 32.2812 27.7772 32.5938 27.9178 32.7812C28.0584 32.9531 28.3084 33.0391 28.6678 33.0391C29.0428 33.0391 29.4491 32.8984 29.8866 32.6172C30.3397 32.3359 30.8241 31.9609 31.3397 31.4922C31.8553 31.0234 32.3866 30.4844 32.9334 29.875C33.4959 29.25 34.0428 28.6016 34.5741 27.9297C35.9647 26.2109 36.9959 24.7344 37.6678 23.5C41.0428 17.2812 42.8319 14.0312 43.035 13.75C43.5506 13.0781 44.0662 12.7422 44.5819 12.7422C45.1131 12.7422 45.5741 12.8047 45.9647 12.9297C46.3553 13.0391 46.6912 13.2031 46.9725 13.4219C47.5975 13.875 47.785 14.3828 47.535 14.9453C47.3006 15.5078 47.0116 16.2812 46.6678 17.2656C43.6991 25.875 41.7694 31.2422 40.8787 33.3672C40.0037 35.4922 39.2381 37.1953 38.5819 38.4766C37.9256 39.7734 37.1522 41.0781 36.2616 42.3906C35.3866 43.7031 34.4491 44.8984 33.4491 45.9766C31.1678 48.4141 29.0272 49.7188 27.0272 49.8906C26.2616 49.9531 25.6522 49.8438 25.1991 49.5625C24.4178 49.0938 24.0272 48.6484 24.0272 48.2266C24.0272 47.8047 24.3787 47.5078 25.0819 47.3359C25.8006 47.1797 26.535 46.8516 27.285 46.3516C28.0506 45.8672 28.785 45.2969 29.4881 44.6406C31.5506 42.6719 33.1522 40.5312 34.2928 38.2188C35.2616 36.1875 36.0428 34.2656 36.6366 32.4531L38.4647 26.875C38.0116 27.4219 37.5116 28.0625 36.9647 28.7969L35.2772 31.0469C33.8084 32.9062 32.5897 34.2266 31.6209 35.0078C29.7772 36.4922 28.1287 37.2344 26.6756 37.2344C24.7381 37.2344 23.4491 36.3984 22.8084 34.7266ZM46.6809 32.875C46.6809 32.3906 46.7825 31.9453 46.9856 31.5391C47.2044 31.1172 47.47 30.7656 47.7825 30.4844C48.4387 29.875 49.1262 29.5703 49.845 29.5703C50.47 29.5703 50.7825 29.8906 50.7825 30.5312C50.7825 32.1562 51.3216 33.2891 52.3997 33.9297C52.7903 34.1641 53.1966 34.2812 53.6184 34.2812C54.0403 34.2812 54.3997 34.2344 54.6966 34.1406C54.9934 34.0469 55.2669 33.8984 55.5169 33.6953C56.0794 33.2422 56.3606 32.7031 56.3606 32.0781C56.3606 31.4531 56.22 30.8828 55.9387 30.3672C55.6575 29.8359 55.3059 29.2812 54.8841 28.7031L53.5481 26.8281C51.6731 24.3281 50.7356 22.0234 50.7356 19.9141C50.7356 18.1641 51.4778 16.5781 52.9622 15.1562C54.6497 13.5469 56.8137 12.7422 59.4544 12.7422C61.7669 12.7422 63.5716 13.3125 64.8684 14.4531C65.9309 15.375 66.4622 16.4297 66.4622 17.6172C66.4622 18.8516 65.9934 19.8359 65.0559 20.5703C64.2122 21.2266 63.3684 21.4688 62.5247 21.2969C62.1497 21.2188 61.8606 21.0312 61.6575 20.7344C61.4544 20.4219 61.4153 20.0703 61.5403 19.6797C61.6653 19.2891 61.7278 18.8828 61.7278 18.4609C61.7278 18.0391 61.6497 17.6484 61.4934 17.2891C61.3372 16.9297 61.1262 16.625 60.8606 16.375C60.3137 15.8594 59.7356 15.6016 59.1262 15.6016C58.5325 15.6016 58.0403 15.6719 57.6497 15.8125C57.2591 15.9375 56.9153 16.125 56.6184 16.375C56.0091 16.9375 55.7044 17.6328 55.7044 18.4609C55.7044 19.2734 55.845 19.9766 56.1262 20.5703C56.4075 21.1641 56.7512 21.7578 57.1575 22.3516C57.5794 22.9453 58.0325 23.5469 58.5169 24.1562C59.0012 24.7656 59.4466 25.4062 59.8528 26.0781C60.8372 27.6562 61.3294 29.0469 61.3294 30.25C61.3294 31.4375 61.0794 32.4375 60.5794 33.25C60.0794 34.0469 59.4309 34.7344 58.6341 35.3125C56.9309 36.5781 55.0247 37.2109 52.9153 37.2109C50.8997 37.2109 49.3059 36.7266 48.1341 35.7578C47.1653 34.9453 46.6809 33.9844 46.6809 32.875ZM80.3503 30.8594C80.8034 30.8594 81.03 31.1641 81.03 31.7734C81.03 32.2891 80.8737 32.7891 80.5612 33.2734C80.1394 34.1797 79.2956 35.0391 78.03 35.8516C76.5925 36.7734 75.1472 37.2344 73.6941 37.2344C71.1784 37.2344 69.5847 36.1094 68.9128 33.8594C68.1159 31.1875 69.3112 25.5234 72.4987 16.8672C70.7019 16.7109 69.7253 16.3984 69.5691 15.9297C69.5222 15.7891 69.4987 15.6406 69.4987 15.4844C69.4987 15.3125 69.5691 15.1172 69.7097 14.8984C69.8659 14.6797 70.0612 14.4688 70.2956 14.2656C70.8425 13.8125 71.3972 13.5859 71.9597 13.5859H73.8112C75.4987 9.63281 76.7019 7.38281 77.4206 6.83594C77.7644 6.58594 78.1472 6.46094 78.5691 6.46094C78.9909 6.46094 79.3425 6.51562 79.6237 6.625C79.905 6.73438 80.155 6.89062 80.3737 7.09375C80.8737 7.5625 81.1237 8.08594 81.1237 8.66406C81.1237 8.97656 81.03 9.33594 80.8425 9.74219L79.1081 13.5156H79.6706C80.6394 13.5156 81.4206 13.5078 82.0144 13.4922C82.0144 13.4922 82.4597 13.4844 83.3503 13.4688C83.6472 13.4531 84.0144 13.4453 84.4519 13.4453C84.905 13.4453 85.1316 13.6094 85.1316 13.9375C85.1316 16 82.6941 17.0312 77.8191 17.0312H77.6316L76.0378 21.1562C74.2409 26.0312 73.3425 29.4453 73.3425 31.3984C73.3425 31.9453 73.4675 32.375 73.7175 32.6875C73.9675 32.9844 74.4362 33.1328 75.1237 33.1328C75.8112 33.1328 76.4362 33.0156 76.9987 32.7812C77.5612 32.5469 78.0534 32.2891 78.4753 32.0078C78.8972 31.7109 79.2566 31.4453 79.5534 31.2109C79.8659 30.9766 80.1316 30.8594 80.3503 30.8594ZM82.7541 28.7969C82.8166 27.4375 83.0431 26.1406 83.4337 24.9062C83.8244 23.6562 84.3478 22.4531 85.0041 21.2969C85.6603 20.125 86.4259 19.0234 87.3009 17.9922C88.1916 16.9453 89.1525 16.0312 90.1837 15.25C92.4181 13.5781 94.6759 12.7422 96.9572 12.7422C99.6291 12.7422 101.41 13.8438 102.301 16.0469C102.613 16.7969 102.762 17.6875 102.746 18.7188C102.731 19.7344 102.535 20.6797 102.16 21.5547C101.785 22.4141 101.262 23.2031 100.59 23.9219C99.9337 24.625 99.1447 25.2578 98.2228 25.8203C97.3166 26.3828 96.3244 26.8594 95.2462 27.25C93.0275 28.0312 90.6525 28.4375 88.1212 28.4688C88.0587 28.6875 88.0197 29.0156 88.0041 29.4531C87.9884 29.8906 88.0353 30.3828 88.1447 30.9297C88.2541 31.4609 88.4416 31.9375 88.7072 32.3594C89.2697 33.2969 90.0822 33.7656 91.1447 33.7656C92.9572 33.7656 94.7228 33.2344 96.4416 32.1719C97.0509 31.8125 97.5431 31.4453 97.9181 31.0703C98.3087 30.6797 98.6447 30.4844 98.9259 30.4844C99.2072 30.4844 99.4494 30.6562 99.6525 31C99.8712 31.3281 99.9806 31.7031 99.9806 32.125C99.9806 32.9531 99.7462 33.6719 99.2775 34.2812C97.3087 36.25 94.3791 37.2344 90.4884 37.2344C88.1916 37.2344 86.3478 36.5469 84.9572 35.1719C83.3947 33.6094 82.6603 31.4844 82.7541 28.7969ZM96.4416 15.8594C94.8009 15.8594 93.2228 16.9844 91.7072 19.2344C90.4259 21.1719 89.3947 23.4688 88.6134 26.125C91.2228 25.8594 93.4884 24.8281 95.4103 23.0312C97.1759 21.3438 98.0587 19.7266 98.0587 18.1797C98.0587 16.6328 97.5197 15.8594 96.4416 15.8594ZM121.392 17.1719C120.486 17.1719 118.83 18.4844 116.423 21.1094C114.627 23.1562 113.322 24.6953 112.509 25.7266L110.4 28.3984C109.494 30.1172 108.783 31.5469 108.267 32.6875L107.002 35.4062C106.673 36.0781 106.384 36.5547 106.134 36.8359C105.9 37.1016 105.572 37.2344 105.15 37.2344C104.744 37.2344 104.345 37.1562 103.955 37C103.58 36.8594 103.252 36.6719 102.97 36.4375C102.377 35.9375 102.08 35.3906 102.08 34.7969C102.08 34.5625 102.252 34.1016 102.595 33.4141L103.486 31.5156C103.767 30.9531 104.095 30.2344 104.47 29.3594L105.783 26.1484C107.627 21.5391 108.548 18.5625 108.548 17.2188C108.548 16.5 108.314 15.9688 107.845 15.625L107.377 15.2969C107.22 15.1875 107.142 15 107.142 14.7344C107.142 14.4531 107.244 14.1875 107.447 13.9375C107.666 13.6875 107.947 13.4688 108.291 13.2812C108.994 12.9219 109.697 12.7422 110.4 12.7422C111.119 12.7422 111.681 12.8203 112.088 12.9766C112.494 13.1328 112.845 13.3438 113.142 13.6094C113.736 14.1562 114.033 14.7266 114.033 15.3203C114.033 15.9141 113.955 16.5156 113.798 17.125C113.642 17.7188 113.447 18.3281 113.213 18.9531C112.978 19.5625 112.728 20.1562 112.463 20.7344C111.838 22.0781 111.447 22.9062 111.291 23.2188C111.15 23.5156 111.111 23.625 111.173 23.5469C114.033 19.8438 115.752 17.6562 116.33 16.9844C117.533 15.5938 118.47 14.6406 119.142 14.125C120.377 13.2031 121.541 12.7422 122.634 12.7422C123.744 12.7422 124.627 13.0859 125.283 13.7734C125.939 14.4609 126.267 15.3672 126.267 16.4922C126.267 17.4766 126.017 18.6328 125.517 19.9609C125.017 21.2891 124.681 22.2188 124.509 22.75L127.955 18.2031L129.877 15.9062C131.033 14.6094 132.048 13.7578 132.923 13.3516C133.798 12.9453 134.509 12.7422 135.056 12.7422C135.619 12.7422 136.166 12.8438 136.697 13.0469C137.244 13.25 137.705 13.5391 138.08 13.9141C138.877 14.6797 139.275 15.6953 139.275 16.9609C139.275 18.1797 138.994 19.4297 138.431 20.7109C137.869 21.9922 137.377 23.0469 136.955 23.875C136.533 24.6875 136.127 25.5078 135.736 26.3359C134.595 28.8203 134.025 30.6641 134.025 31.8672C134.025 32.7109 134.369 33.1328 135.056 33.1328C135.713 33.1328 136.306 32.9922 136.838 32.7109C137.384 32.4297 137.736 32.2891 137.892 32.2891C138.22 32.2891 138.384 32.4531 138.384 32.7812C138.384 34.1719 137.673 35.3359 136.252 36.2734C135.298 36.9141 134.423 37.2344 133.627 37.2344C132.845 37.2344 132.213 37.1406 131.728 36.9531C131.244 36.7656 130.806 36.4688 130.416 36.0625C129.541 35.1562 129.103 34.0234 129.103 32.6641C129.103 31.3047 129.275 30.0547 129.619 28.9141C129.963 27.7734 130.369 26.6719 130.838 25.6094C131.306 24.5312 131.775 23.5469 132.244 22.6562C132.728 21.75 133.095 21.0312 133.345 20.5C133.845 19.4062 134.095 18.6016 134.095 18.0859C134.095 17.4766 133.775 17.1719 133.134 17.1719C132.291 17.1719 130.775 18.5703 128.588 21.3672C126.931 23.5391 125.783 25.1016 125.142 26.0547L123.525 28.3984C122.619 30.1172 121.923 31.5469 121.439 32.6875L120.244 35.4062C119.947 36.0781 119.689 36.5547 119.47 36.8359C119.252 37.1016 118.947 37.2344 118.556 37.2344C118.166 37.2344 117.783 37.1719 117.408 37.0469C117.048 36.9219 116.736 36.7578 116.47 36.5547C115.861 36.1016 115.556 35.625 115.556 35.125C115.556 34.6094 115.72 33.9141 116.048 33.0391C116.392 32.1484 116.814 31.1562 117.314 30.0625L120.595 23.125C121.767 20.5469 122.353 18.9141 122.353 18.2266C122.353 17.5234 122.033 17.1719 121.392 17.1719ZM123.713 23.7812C123.728 23.7812 123.736 23.7734 123.736 23.7578L123.759 23.7109C123.728 23.7422 123.713 23.7656 123.713 23.7812Z" fill="#288B70"/>
</svg>
